<svg width="117" height="99" viewBox="0 0 117 99" fill="none" xmlns="http://www.w3.org/2000/svg">
<path d="M76.7648 33.4566C77.9643 34.6561 79.1638 35.8556 80.3634 37.0552C80.1681 38.7289 81.8419 39.2032 82.4835 40.319C82.2324 41.6301 83.4599 42.0207 84.0178 42.8018C84.5199 43.4713 85.5521 43.806 85.5521 44.7545C85.58 45.8145 86.4168 46.1493 86.9469 46.7909C87.5048 47.4325 88.1743 48.0183 88.7601 48.632C89.2065 49.0784 89.5691 48.9947 89.6807 48.3252C89.7644 47.8231 89.7644 47.3488 90.2107 46.9583C90.4339 46.763 90.657 46.4561 90.7407 46.1493C90.8244 45.8145 90.7686 45.4519 90.7686 45.1171C90.7407 44.085 90.6291 43.0249 91.7171 42.3833C91.745 41.8812 91.8287 41.3791 91.8008 40.8769C91.7729 40.4864 91.8008 40.1516 92.0798 39.9564C92.9724 39.3984 92.9166 38.5337 92.8329 37.6689C92.805 37.2783 92.9166 37.0273 93.1677 36.7483C93.893 35.9114 93.8651 35.8835 93.893 34.9629C93.9209 34.2376 93.9209 34.2377 94.6462 33.2055C94.7299 33.066 94.9252 32.9265 94.8973 32.815C94.7857 32.0339 95.2599 31.5875 95.7062 31.0575C96.2084 30.4996 95.8178 29.7464 95.9573 29.0769C96.0131 28.77 96.2084 28.4353 96.4594 28.2679C97.1289 27.8215 96.7942 27.0126 97.1847 26.4825C97.4916 26.092 98.0495 25.8688 97.9937 25.2551C97.9658 24.8646 97.9937 24.5577 98.2727 24.3345C98.8585 23.8882 99.1933 23.3303 99.0259 22.5771C99.3606 22.2144 99.7233 21.8239 100.058 21.4612C99.6117 20.2617 101.23 19.8712 101.118 18.7832C101.034 17.8905 102.373 17.6395 102.178 16.6073C102.122 16.3841 102.485 16.0494 102.68 15.7983C103.266 15.0172 104.466 14.6267 104.242 13.3156C104.215 13.204 104.41 13.0366 104.494 12.925C105.051 12.116 106.195 11.7534 106.307 10.5539C106.418 9.38221 107.562 8.99168 108.176 8.21059C108.734 7.54108 109.375 6.98315 109.989 6.36943C110.714 5.64413 111.468 4.89095 112.193 4.16565C112.304 4.05407 112.472 3.8588 112.444 3.803C112.277 3.44035 111.97 3.32877 111.607 3.32877C107.785 3.32877 103.991 3.35666 100.17 3.32877C99.5838 3.32877 99.1933 3.57983 98.8864 3.97037C98.6353 4.27723 98.3843 4.38882 98.0216 4.38882C91.7729 4.38882 85.5521 4.38882 79.3033 4.36093C78.6896 4.36093 78.3828 4.72358 78.0201 5.05833C77.8806 5.16991 77.7969 5.39307 77.6575 5.39307C77.3227 5.44886 76.9601 5.42098 76.6253 5.42098C68.647 5.42098 60.6687 5.42097 52.7183 5.44886C52.1883 5.44886 51.9651 5.39308 52.2162 4.91885C52.3557 4.66778 52.7462 4.4167 53.0252 4.4167C54.5874 4.36091 56.1496 4.41672 57.7117 4.36093C57.9907 4.36093 58.2976 4.02617 58.4928 3.803C58.7439 3.49615 58.995 3.35666 59.3576 3.35666C63.1794 3.35666 66.9732 3.35667 70.795 3.38456C71.4087 3.38456 71.7435 3.10559 72.0782 2.71505C72.1898 2.60346 72.3014 2.3803 72.4409 2.3524C72.7756 2.29661 73.1104 2.29661 73.473 2.29661C78.4943 2.29661 83.5156 2.2687 88.5369 2.3245C89.1786 2.3245 89.4575 1.96185 89.7923 1.5992C90.0433 1.29235 90.2944 1.23656 90.7128 1.23656C92.4424 1.26445 94.172 1.26445 95.9015 1.26445C97.2963 1.26445 98.6632 1.29235 100.058 1.23656C100.7 1.20866 101.425 1.54342 101.983 0.873912C102.29 0.483367 102.652 0.176503 103.266 0.204399C106.558 0.232295 109.85 0.232288 113.141 0.232288C113.309 0.232288 113.476 0.232288 113.671 0.232288C114.285 0.204392 114.48 0.818113 114.899 1.04128C115.931 1.57131 115.317 3.0498 116.349 3.57982C116.768 3.77509 116.712 4.05407 116.266 4.30513C116.126 4.38882 116.015 4.55619 115.903 4.66778C115.401 5.16991 115.875 6.0068 115.178 6.45314C114.759 6.7321 114.425 7.17842 114.062 7.54107C112.472 9.13115 110.826 10.6933 109.292 12.3392C108.538 13.1761 107.144 13.6224 107.311 15.1567C106.614 15.9099 105.916 16.6631 105.219 17.4163C105.47 19.118 103.629 19.4806 103.127 20.708C103.266 21.4891 102.597 21.8797 102.318 22.4655C101.955 23.1629 101.983 24.0835 101.174 24.5856C101.146 25.4783 100.811 26.2036 100.058 26.7336C100.198 27.71 99.6117 28.3237 98.9701 28.8816C99.1096 29.6348 98.8306 30.2206 98.2169 30.667C98.0774 30.7506 97.9379 30.918 97.9379 31.0575C97.8821 31.727 98.0495 32.4802 97.7985 33.0939C97.5753 33.6797 96.7663 33.9587 96.85 34.7956C96.8779 35.0466 96.5989 35.4093 96.3757 35.6046C95.9573 35.9951 95.7899 36.4135 95.8457 36.9436C95.8736 37.1109 95.8178 37.3062 95.8457 37.4736C96.1247 38.5058 94.8415 38.7847 94.7857 39.6495C94.7299 40.4585 95.0646 41.407 94.172 41.9928C93.8372 42.216 93.6977 42.4949 93.7535 42.8576C93.7814 43.0249 93.7256 43.1923 93.7535 43.3876C93.8651 44.1129 93.7256 44.7545 93.0561 45.1729C92.7214 45.3961 92.6656 45.6751 92.6935 46.0656C92.7493 47.2094 92.6935 47.2093 91.9682 48.3531C91.8845 48.4926 91.6892 48.6042 91.6892 48.7436C91.6613 49.6084 91.6892 50.4732 91.6613 51.338C91.6613 51.7006 91.8287 51.9238 92.1076 52.2028C92.6656 52.8165 93.4467 53.2628 93.7814 54.0997C93.9209 54.4623 93.5303 55.3829 93.1956 55.3829C92.4982 55.3829 91.8008 55.3829 91.1034 55.3829C90.0154 55.3829 90.0154 55.3829 89.597 56.7777C89.4854 57.1404 89.2343 57.4193 88.9833 57.3357C88.5927 57.1962 88.5369 56.8614 88.5648 56.4708C88.5927 55.7734 88.5369 55.0761 88.5927 54.4066C88.6206 54.016 88.5369 53.7649 88.258 53.486C87.1421 52.398 86.0263 51.3101 84.9662 50.1663C84.4083 49.5526 83.432 49.1621 83.4041 48.2415C83.3762 47.1814 82.5114 46.8467 81.9814 46.2051C81.4513 45.5356 80.8376 44.9497 80.2518 44.336C80.475 43.0528 79.3033 42.6065 78.6896 41.8812C78.1317 41.2117 77.4901 40.6538 76.8485 40.0401C76.5974 39.789 75.6768 39.7053 75.4537 39.9285C74.5889 40.7932 73.7241 41.6301 72.8872 42.4949C72.1619 43.2202 71.4087 43.9734 70.6834 44.6987C69.8186 45.5635 69.0097 46.4561 68.0891 47.2651C67.3359 47.9346 66.9175 49.0226 65.7737 49.1621C64.4068 49.3295 63.9326 50.6127 63.0399 51.338C62.2309 52.0075 61.5614 52.7886 60.8082 53.5418C59.9434 54.4065 59.1065 55.2434 58.2418 56.1082C57.0143 57.3356 55.7869 58.5352 54.5595 59.7905C54.0016 60.3763 54.3642 61.4364 53.4715 61.9664C52.8857 62.3012 52.4673 62.9149 51.993 63.417C51.3793 64.0307 50.7656 64.6444 50.1519 65.2581C50.3472 66.7366 49.0639 67.2667 48.3107 68.1314C47.6412 68.9125 46.8044 69.582 46.1348 70.3631C45.7164 70.8374 46.0512 71.6742 45.3817 72.1485C44.8237 72.5669 44.3774 73.1248 43.9032 73.5991C44.0984 75.2728 42.4247 75.7471 41.7552 76.8629C42.0062 78.174 40.8625 78.6204 40.193 79.3178C39.4956 80.071 39.7745 81.3263 38.7424 81.8563C38.7424 82.749 38.3797 83.4743 37.6265 84.0043C37.6544 84.7017 37.5428 85.3712 36.9012 85.7897C36.5665 86.0129 36.4549 86.2918 36.5386 86.6824C36.8175 87.8261 36.3154 88.663 35.4227 89.3325C34.6974 89.8904 34.279 90.5878 34.4464 91.5363C34.4743 91.7037 34.5022 91.8989 34.4464 92.0384C34.3069 92.3452 34.1674 92.6521 33.9442 92.8474C33.5258 93.2379 33.4142 93.6564 33.4142 94.1864C33.4142 94.6885 33.6374 95.3301 33.2189 95.637C32.131 96.3902 32.4379 97.4502 32.3821 98.4266C32.3821 98.5661 32.2426 98.7056 32.131 98.845C31.9078 99.124 31.6847 99.0124 31.3778 98.6219C31.0709 98.2314 30.6804 97.8687 30.3177 97.5061C30.5688 97.255 30.792 97.0039 31.043 96.7807C31.4894 96.3623 31.2941 95.8323 31.322 95.3301C31.4057 94.3538 30.9873 93.2379 32.131 92.5405C32.2426 92.4568 32.3263 92.2616 32.3542 92.1221C32.4936 91.3131 31.9915 90.3367 32.8842 89.7509C33.5537 89.2767 33.1353 88.384 33.6374 87.9935C34.3906 87.3518 34.558 86.5987 34.4464 85.706C34.3906 85.3154 34.4464 85.0086 34.7253 84.7854C34.9764 84.5622 35.1996 84.2833 35.4506 84.0601C36.0922 83.4743 36.7618 82.9164 36.5386 81.9121C36.957 81.41 37.6544 81.1031 37.5707 80.2383C37.4871 79.4573 38.575 79.262 38.575 78.5925C38.575 77.7835 39.1887 77.4209 39.4398 76.8629C39.7745 76.1097 39.8024 75.2449 40.5835 74.7428C40.5556 73.8222 41.0299 73.1806 41.6715 72.5948C42.1457 72.1485 42.8152 71.8416 42.7873 70.9768C42.7315 69.9726 43.7637 69.6657 44.2937 69.0241C44.7121 68.4941 45.2701 68.0199 45.7443 67.5456C45.9117 65.6208 47.6412 64.8397 48.7013 63.5844C49.2313 62.9427 48.8966 61.9385 49.7892 61.4085C50.5145 60.9621 51.0446 60.2089 51.6583 59.5952C52.1604 59.0931 52.6346 58.6189 53.1368 58.1167C53.7505 57.503 54.3642 56.8893 54.9779 56.2756C55.5916 55.6619 56.1496 54.9924 56.8191 54.4623C57.4607 53.9602 57.2375 53.2349 57.5444 52.677C57.628 52.5375 57.7954 52.3422 57.907 52.3422C58.9671 52.4538 59.5808 52.1191 59.4413 50.9474C60.6129 49.6921 61.7846 48.4647 62.9841 47.2372C63.0678 47.1535 63.291 47.1535 63.4583 47.1256C63.6257 47.0978 63.821 47.1535 63.9884 47.1256C64.1278 47.0978 64.2952 46.9862 64.4068 46.8746C67.587 43.6945 70.7671 40.5143 73.9752 37.3341C74.5889 36.7204 75.3421 36.2183 75.0631 35.1861C75.7047 34.5166 76.179 34.0424 76.7648 33.4566Z" fill="#343434"/>
<path d="M64.7974 22.5211C64.7974 23.9159 64.7137 24.0275 63.4584 24.0833C63.291 24.0833 63.0957 24.1112 62.9283 24.0833C62.3704 23.9996 61.9241 24.2228 61.6172 24.6691C61.2546 25.1713 60.7524 25.1155 60.2503 25.1434C59.7482 25.1713 59.1903 24.9481 58.7997 25.3944C58.3255 25.9524 57.7954 26.315 57.0422 26.1755C56.3169 26.0639 55.6753 26.2034 55.2569 26.845C54.8942 27.403 54.2805 27.0403 53.8621 27.2356C53.4158 27.4588 53.081 27.9051 52.7183 28.2398C51.6862 27.9609 51.2956 29.1325 50.5425 29.2162C49.7893 29.2999 49.3708 29.802 48.8129 30.081C48.0876 30.4436 47.1949 30.4157 46.6928 31.2247C45.8001 31.2526 45.1027 31.6153 44.5448 32.3127C44.0148 32.9543 43.4568 33.6796 42.4247 33.4285C42.062 33.7633 41.6715 34.1259 41.3088 34.4607C40.2488 34.2375 39.8024 35.0465 39.1887 35.6323C38.7145 36.1065 38.2961 36.6924 37.4871 36.5529C37.3476 36.525 37.1802 36.6366 37.0407 36.7203C36.1202 37.3898 35.6738 38.7846 34.1953 38.6172C33.4421 39.3425 32.661 40.012 31.9915 40.7652C31.4057 41.4347 30.7083 41.8253 29.8435 41.8532C29.1182 42.5785 28.365 43.3316 27.6397 44.0569C27.026 44.6706 26.4123 45.2844 25.7986 45.8981C24.3201 45.6749 23.7901 47.0139 22.9253 47.7392C22.1442 48.4087 21.4468 49.1898 20.7215 49.943C19.1314 49.9151 18.4619 51.2541 17.4856 52.1468C16.3418 53.2069 15.2818 54.3506 14.1659 55.4386C13.1896 56.4149 12.2132 57.4192 11.2368 58.3676C10.5115 59.0651 10.7626 60.2646 9.78623 60.9062C9.08883 61.3804 8.53091 62.1057 7.94509 62.7194C7.21979 63.4447 6.46659 64.17 5.74129 64.9232C5.29496 65.3975 5.6855 66.2344 5.016 66.7086C4.45807 67.0991 3.90015 67.6012 3.5654 68.1871C3.25854 68.745 3.45381 69.5261 2.78431 69.9445C2.22638 70.2793 2.47745 70.8651 2.33797 71.3115C2.25428 71.5625 1.89163 71.7857 1.61267 71.8973C1.08264 72.0646 0.357344 71.7578 0.329447 71.3672C0.301551 70.893 0.134175 70.363 0.692097 69.9445C1.08264 69.6377 1.50108 69.275 1.3616 68.6613C1.33371 68.4939 1.3616 68.3266 1.3616 68.1313C1.3616 67.6292 1.30581 67.127 1.78005 66.7365C2.31007 66.2901 2.8401 65.8159 3.23064 65.258C3.48171 64.8953 3.39802 64.2816 3.64909 63.8911C4.2628 62.9426 5.6855 62.5242 5.51812 61.0178C6.35501 60.153 7.19189 59.2882 8.02878 58.4234C12.1853 54.2669 16.3418 50.1104 20.4983 45.926C21.0005 45.4239 21.4747 44.9496 21.9768 44.4475C22.5905 43.8338 23.2043 43.2201 23.818 42.6063C24.2922 42.1321 24.6828 41.6858 25.4917 41.6021C26.3844 41.5463 26.775 40.5699 27.4166 40.012C27.9466 39.5657 28.3929 39.0356 28.8951 38.5614C29.8993 38.7567 30.4573 38.0872 31.0431 37.4735C31.6289 36.8318 32.2426 36.2181 32.8842 35.6323C33.3863 35.186 34.2232 35.5765 34.6696 34.907C34.9485 34.4886 35.3949 34.1538 35.7575 33.7912C36.2596 33.289 36.7339 32.8148 37.236 32.3127C38.4355 32.7032 38.854 31.1689 39.914 31.2247C40.0814 31.2247 40.3046 31.2805 40.4162 31.1968C40.6951 31.0016 40.8904 30.6947 41.1694 30.4715C41.811 29.9694 42.1736 29.1604 43.2058 29.0767C43.7637 29.0488 44.2937 28.4351 44.8516 28.1004C45.9675 28.3514 46.358 26.6777 47.5297 27.0682C48.1434 26.4824 48.785 25.9245 49.3987 25.3386C49.5103 25.2271 49.6777 24.976 49.7614 25.0039C50.7935 25.255 51.2677 24.3902 51.9373 23.9438C52.0488 23.8601 52.272 23.9438 52.4394 23.9438C52.7741 23.9438 53.1368 23.9159 53.4715 23.9438C53.8342 23.9717 54.1132 23.8323 54.3363 23.4975C54.95 22.6327 56.3169 23.0791 56.847 22.019C57.4886 21.7122 58.186 21.9074 58.8555 21.8516C59.1902 21.8237 59.5808 21.9353 59.8876 21.8237C60.1666 21.74 60.5293 21.5169 60.6408 21.2658C60.7524 20.9869 60.6687 20.5963 60.6129 20.2616C60.5851 20.1221 60.3898 20.0105 60.2503 19.8989C59.8876 19.5363 59.5529 19.1457 59.1345 18.811C58.3255 18.1415 58.6602 16.8861 57.6839 16.2724C56.9865 15.7982 56.4285 15.0729 55.8427 14.4592C55.1174 13.7339 54.3642 12.9807 53.6389 12.2554C53.0252 11.6417 52.4673 10.9722 51.7978 10.4421C51.0446 9.8842 51.5467 8.79626 50.7377 8.26623C50.1798 7.90358 49.7335 7.31776 49.2592 6.81563C49.1755 6.73194 49.2034 6.48088 49.2313 6.3135C49.315 5.92296 49.2034 5.64398 48.8966 5.39292C48.6176 5.19765 48.3945 4.9187 48.1992 4.63974C48.0039 4.38867 48.3108 3.32861 48.5897 3.27282C48.8966 3.18913 49.2592 3.07754 49.5661 3.16123C49.8729 3.24492 50.0961 3.52389 50.3472 3.74706C50.5982 3.97023 50.8214 4.24918 51.1004 4.47235C51.463 4.77921 51.6862 5.36504 52.3557 5.19766C52.2441 5.58821 52.3836 5.83926 52.7183 6.09032C52.9973 6.2856 53.3879 6.59246 53.36 6.84352C53.3042 7.62461 53.6668 8.09884 54.1689 8.60097C56.5122 10.9164 58.8276 13.2317 61.143 15.575C61.7567 16.1887 62.2867 16.914 63.012 17.3882C63.8768 17.9462 63.5978 18.9225 64.1 19.5642C64.4068 19.9547 64.9647 20.15 64.8532 20.8195C64.7416 21.489 64.7974 22.019 64.7974 22.5211Z" fill="#343434"/>
</svg>
