<svg width="18" height="18" viewBox="0 0 18 18" fill="none" xmlns="http://www.w3.org/2000/svg">
<path d="M9.74996 15.4872C11.4181 15.2749 12.9428 14.4354 14.0143 13.1393C15.0857 11.8433 15.6234 10.1878 15.5181 8.50956C15.4128 6.83126 14.6724 5.25604 13.4473 4.10405C12.2223 2.95205 10.6046 2.30974 8.92304 2.30766C7.23939 2.3064 5.61861 2.94715 4.39095 4.09933C3.1633 5.25152 2.42114 6.82844 2.31571 8.50878C2.21028 10.1891 2.74951 11.8464 3.82352 13.143C4.89754 14.4396 6.42552 15.278 8.09612 15.4872V10.5769H6.44227V8.92304H8.09612V7.55531C8.09612 6.44971 8.21189 6.04866 8.42689 5.64429C8.63867 5.24421 8.96601 4.91717 9.36627 4.70573C9.68216 4.53621 10.0749 4.4345 10.7613 4.39067C11.0333 4.37331 11.3856 4.39481 11.8181 4.45683V6.02798H11.4038C10.6455 6.02798 10.3321 6.06354 10.1452 6.1636C10.0337 6.22095 9.94293 6.31174 9.88558 6.42325C9.78635 6.61014 9.74996 6.79537 9.74996 7.55448V8.92304H11.8173L11.4038 10.5769H9.74996V15.4872ZM8.92304 17.1923C4.35594 17.1923 0.653809 13.4901 0.653809 8.92304C0.653809 4.35594 4.35594 0.653809 8.92304 0.653809C13.4901 0.653809 17.1923 4.35594 17.1923 8.92304C17.1923 13.4901 13.4901 17.1923 8.92304 17.1923Z" fill="black"/>
</svg>
