<svg width="17" height="18" viewBox="0 0 17 18" fill="none" xmlns="http://www.w3.org/2000/svg">
<path d="M8.6153 6.44227C7.95736 6.44227 7.32637 6.70364 6.86113 7.16887C6.3959 7.63411 6.13453 8.2651 6.13453 8.92304C6.13453 9.58098 6.3959 10.212 6.86113 10.6772C7.32637 11.1424 7.95736 11.4038 8.6153 11.4038C9.27324 11.4038 9.90424 11.1424 10.3695 10.6772C10.8347 10.212 11.0961 9.58098 11.0961 8.92304C11.0961 8.2651 10.8347 7.63411 10.3695 7.16887C9.90424 6.70364 9.27324 6.44227 8.6153 6.44227ZM8.6153 4.78842C9.71187 4.78842 10.7635 5.22403 11.5389 5.99943C12.3143 6.77482 12.7499 7.82647 12.7499 8.92304C12.7499 10.0196 12.3143 11.0713 11.5389 11.8467C10.7635 12.622 9.71187 13.0577 8.6153 13.0577C7.51873 13.0577 6.46708 12.622 5.69169 11.8467C4.9163 11.0713 4.48069 10.0196 4.48069 8.92304C4.48069 7.82647 4.9163 6.77482 5.69169 5.99943C6.46708 5.22403 7.51873 4.78842 8.6153 4.78842ZM13.9903 4.58169C13.9903 4.85584 13.8814 5.11875 13.6876 5.3126C13.4937 5.50645 13.2308 5.61535 12.9566 5.61535C12.6825 5.61535 12.4196 5.50645 12.2257 5.3126C12.0319 5.11875 11.923 4.85584 11.923 4.58169C11.923 4.30755 12.0319 4.04464 12.2257 3.85079C12.4196 3.65694 12.6825 3.54804 12.9566 3.54804C13.2308 3.54804 13.4937 3.65694 13.6876 3.85079C13.8814 4.04464 13.9903 4.30755 13.9903 4.58169ZM8.6153 2.30766C6.56949 2.30766 6.23542 2.31344 5.28363 2.35562C4.63532 2.38621 4.20036 2.47304 3.79682 2.63016C3.43794 2.76908 3.17911 2.93529 2.90374 3.21148C2.64492 3.46154 2.44592 3.76683 2.32159 4.10456C2.16447 4.50975 2.07765 4.94389 2.04788 5.59137C2.00488 6.50429 1.99992 6.82348 1.99992 8.92304C1.99992 10.9688 2.0057 11.3029 2.04788 12.2547C2.07847 12.9022 2.1653 13.338 2.32159 13.7407C2.46217 14.1004 2.62755 14.3592 2.90209 14.6338C3.18076 14.9116 3.43959 15.0778 3.79517 15.2151C4.20367 15.373 4.63863 15.4607 5.28363 15.4905C6.19655 15.5335 6.51574 15.5384 8.6153 15.5384C10.6611 15.5384 10.9952 15.5326 11.947 15.4905C12.5936 15.4599 13.0294 15.373 13.433 15.2168C13.791 15.077 14.0515 14.9108 14.326 14.6363C14.6047 14.3576 14.7709 14.0988 14.9082 13.7432C15.0653 13.3355 15.153 12.8997 15.1827 12.2547C15.2257 11.3418 15.2307 11.0226 15.2307 8.92304C15.2307 6.87723 15.2249 6.54316 15.1827 5.59137C15.1521 4.94471 15.0653 4.5081 14.9082 4.10456C14.7836 3.76718 14.5849 3.46201 14.3269 3.21148C14.0769 2.95253 13.7716 2.7535 13.4338 2.62933C13.0286 2.47221 12.5936 2.38539 11.947 2.35562C11.0341 2.31262 10.7149 2.30766 8.6153 2.30766ZM8.6153 0.653809C10.8621 0.653809 11.1424 0.662078 12.0239 0.703424C12.9046 0.74477 13.5041 0.882866 14.0316 1.08794C14.5774 1.29798 15.0372 1.58244 15.497 2.04139C15.9174 2.45476 16.2428 2.9548 16.4504 3.50669C16.6546 4.03344 16.7936 4.63379 16.8349 5.51446C16.8738 6.39596 16.8845 6.67629 16.8845 8.92304C16.8845 11.1698 16.8763 11.4501 16.8349 12.3316C16.7936 13.2123 16.6546 13.8118 16.4504 14.3394C16.2434 14.8916 15.918 15.3917 15.497 15.8047C15.0835 16.225 14.5835 16.5504 14.0316 16.7581C13.5049 16.9624 12.9046 17.1013 12.0239 17.1427C11.1424 17.1815 10.8621 17.1923 8.6153 17.1923C6.36855 17.1923 6.08822 17.184 5.20672 17.1427C4.32605 17.1013 3.72653 16.9624 3.19895 16.7581C2.64684 16.551 2.14672 16.2256 1.73365 15.8047C1.31308 15.3914 0.987705 14.8913 0.780204 14.3394C0.575127 13.8126 0.437031 13.2123 0.395685 12.3316C0.356819 11.4501 0.346069 11.1698 0.346069 8.92304C0.346069 6.67629 0.354339 6.39596 0.395685 5.51446C0.437031 4.63296 0.575127 4.03427 0.780204 3.50669C0.98713 2.95446 1.31258 2.45429 1.73365 2.04139C2.14684 1.62067 2.64692 1.29528 3.19895 1.08794C3.72653 0.882866 4.32522 0.74477 5.20672 0.703424C6.08822 0.664559 6.36855 0.653809 8.6153 0.653809Z" fill="black"/>
</svg>
