<svg width="93" height="104" viewBox="0 0 93 104" fill="none" xmlns="http://www.w3.org/2000/svg">
<path d="M90.8376 44.6833C90.8376 46.5213 90.8128 48.2102 90.8625 49.924C90.8873 50.4952 90.4651 50.7188 90.167 51.0168C89.7199 51.4639 90.1422 52.209 89.5212 52.6313C89.1487 52.8796 88.8755 53.3019 88.5277 53.5999C88.2049 53.8483 88.0807 54.0718 88.2794 54.2705C88.9251 54.9411 89.5212 55.6863 90.2664 56.2079C91.086 56.804 90.6141 57.9962 91.5579 58.4681C91.8311 58.6171 91.8063 58.94 91.8063 59.2877C91.7815 60.6786 91.7566 62.0695 91.8063 63.4604C91.8311 64.1558 91.4834 64.5532 91.0612 65.0251C90.6638 65.4474 91.0115 66.2173 90.3906 66.5899C89.9435 66.8631 89.9683 67.3102 89.8938 67.7821C89.869 68.0305 89.5709 68.254 89.3971 68.5024C88.9251 69.1978 88.8258 70.5887 89.248 71.011C90.018 71.7809 90.7631 72.5509 91.5331 73.296C91.7566 73.5195 91.8063 73.7928 91.7814 74.1156C91.6821 74.9104 91.7814 75.6307 92.5266 76.1275C92.8495 77.1706 92.7998 78.189 92.5514 79.2321C91.8311 79.7289 91.6573 80.4243 91.7566 81.2191C91.7814 81.3682 91.7814 81.542 91.7566 81.6911C91.7318 81.8152 91.6573 81.9643 91.5579 82.0636C90.5893 83.0571 89.5958 84.0258 88.6023 84.9945C88.5029 85.069 88.329 85.0938 88.18 85.0938C86.9878 85.0441 87.0872 85.8638 87.112 86.6337C87.112 86.9318 87.0624 87.3788 87.2114 87.503C88.3291 88.273 87.9316 89.3907 88.031 90.4338C88.1055 91.1541 87.5591 91.477 87.2362 91.9738C87.0127 92.3215 87.0872 92.8431 87.0872 93.2901C87.112 94.2091 87.1865 95.1529 86.2179 95.7242C86.2676 96.5687 85.7956 97.0903 85.274 97.6615C85.0257 97.9348 85.4479 98.7544 84.9015 98.8537C83.9577 99.0276 83.2622 99.4995 82.6661 100.195C82.2439 100.717 81.7968 100.94 81.1013 100.915C80.3065 100.866 80.3066 100.915 79.5118 101.511C79.3876 101.611 79.2882 101.785 79.164 101.809C78.866 101.859 78.5431 101.834 78.245 101.834C74.8423 101.834 71.4644 101.834 68.0617 101.834C67.5401 101.834 67.5401 101.834 66.497 102.505C66.3728 102.579 66.2734 102.728 66.1492 102.753C65.8512 102.778 65.5283 102.753 65.2303 102.778C64.3609 102.828 63.3674 102.48 62.7465 103.498C62.672 103.598 62.4981 103.697 62.3739 103.697C55.4443 103.697 48.4898 103.697 41.5602 103.697C41.0386 103.697 40.8647 103.151 40.4921 102.952C39.7967 102.579 39.0019 102.853 38.2568 102.778C37.6607 102.728 36.8907 103.051 36.5182 102.579C35.9717 101.909 35.1521 102.033 34.6057 101.611C34.1089 101.213 33.7115 100.816 33.0161 100.915C32.718 100.965 32.3952 100.915 32.0971 100.915C31.1036 100.94 31.1036 100.94 30.4827 100.319C30.3833 100.22 30.2591 100.096 30.1598 99.9962C29.8369 99.6734 29.4892 99.3753 29.1663 99.0773C28.2473 99.3256 27.8748 98.4812 27.229 98.1583C26.1858 98.4563 25.8629 96.9661 24.8446 97.2393C24.1243 96.9412 23.6772 96.3203 23.2301 95.7242C23.4288 94.7804 22.6589 94.4078 22.1621 93.8614C22.0628 93.7372 21.9386 93.6379 21.8392 93.5385C21.6902 93.7869 21.4419 94.0104 21.3922 94.2836C21.268 94.8549 21.6654 95.6497 21.1438 96.0222C20.2993 96.6183 20.6719 97.736 19.8771 98.3073C19.4052 98.655 19.0823 99.1269 18.362 99.1269C15.2822 99.0773 12.2023 99.0773 9.09765 99.1269C8.27802 99.1518 7.6074 98.9779 7.11066 98.2825C6.19167 98.2576 5.27269 98.1334 4.37854 98.208C3.50923 98.2825 2.91312 97.9347 2.41637 97.3138C1.5719 97.4132 1.00062 96.9413 0.503874 96.3203C0.330012 96.0968 0.0568182 95.8236 0.0568182 95.6C0.0319807 92.0483 0.0319868 88.4965 0.0319868 84.9448C0.305199 84.597 0.603224 84.2493 0.876435 83.9016C0.603224 83.5787 0.156156 83.2807 0.106481 82.9081C-0.0177063 81.9891 -0.0425376 81.0701 0.0816495 80.1512C0.131324 79.7786 0.652911 79.4805 0.95096 79.1577C0.652911 78.8099 0.354867 78.487 0.0568182 78.1393C0.0816556 75.9784 0.0816617 73.8424 0.156174 71.6816C0.181011 71.3587 0.826766 71.1848 0.851604 70.6881C-0.315755 69.9678 0.0816495 68.8004 0.0816495 67.7821C0.0568121 63.7833 0.0816556 59.7596 0.0568182 55.7608C0.0568182 55.264 0.205837 54.8666 0.578398 54.5934C0.85161 54.3947 1.00062 54.1464 1.00062 53.8483C1.00062 48.7566 1.00062 43.665 1.00062 38.5733C1.00062 38.2752 1.00062 37.9523 1.00062 37.6543C1.00062 37.3811 2.31701 36.1392 2.59022 36.1392C2.88827 36.1392 3.21118 36.1392 3.50923 36.1392C7.35903 36.1392 11.2337 36.164 15.0835 36.1144C15.9031 36.1144 16.5737 36.2137 17.0705 36.934C17.6666 36.9837 18.2875 36.9837 18.8587 37.083C19.1071 37.1327 19.43 37.4059 19.4797 37.6046C19.579 38.0517 19.5045 38.5236 19.5045 38.9955C19.5293 39.7655 19.4052 40.5603 19.6039 41.2806C19.7529 41.8022 20.3738 42.0754 20.4732 42.7708C20.5725 43.7146 20.7216 43.6898 21.1935 43.2427C22.5099 41.9263 23.7766 40.5851 25.1426 39.3432C25.7387 38.7968 25.8877 38.1262 26.161 37.4308C26.3597 36.9092 27.0054 36.5614 27.4277 36.1392C28.3715 36.3627 28.7689 35.6176 29.3153 35.1209C29.9859 34.5248 30.433 33.4568 31.352 33.4071C32.3455 33.3574 32.6932 32.0907 33.7364 32.4136C33.8109 32.4384 34.0096 32.2894 34.0841 32.1652C34.4815 31.6188 34.9783 31.3704 35.6737 31.4946C35.9966 31.1966 36.3443 30.8737 36.6672 30.5756C37.7352 30.9482 38.0581 29.5325 39.0516 29.6318C39.8215 29.7063 40.0699 28.4893 40.9889 28.7128C41.1131 28.7376 41.2621 28.6383 41.3863 28.5638C42.1066 28.0422 42.4543 26.9742 43.4726 26.8997C44.5655 26.8003 44.8884 25.8317 45.5838 25.3101C46.0557 24.9375 46.5028 24.5153 46.9499 24.1179C47.6453 24.2421 48.0676 23.8198 48.4898 23.3728C49.1356 22.7021 49.7565 22.0067 50.452 21.4106C51.1723 20.7897 50.8742 19.7217 51.7187 19.1256C52.4638 18.604 53.0599 17.834 53.7057 17.1883C53.5318 15.698 55.0966 15.3254 55.5685 14.2574C55.7423 13.8849 55.5188 13.3136 56.0155 13.0652C56.7855 12.643 56.2888 11.6247 56.9842 11.1279C57.481 10.7802 57.8784 10.2834 58.3006 9.83635C58.3751 9.737 58.4248 9.53831 58.3751 9.41412C58.1516 8.49514 59.4431 8.3461 59.3189 7.47679C59.2941 7.32777 59.2444 7.10425 59.3189 7.02974C59.8405 6.45848 60.4118 5.93687 60.9085 5.36561C61.3804 4.81919 62.0759 4.47148 62.1256 3.5525C62.1752 2.7577 63.0942 2.43481 63.5413 1.83871C64.0132 1.19293 64.7335 1.06875 65.4289 0.820378C65.9257 0.646516 66.2237 -0.0240884 66.9689 0.0504239C67.5898 0.124936 68.2107 0.0752553 68.8068 0.0752553C69.7258 0.0752553 70.7193 -0.123456 71.5638 0.124918C72.5821 0.422967 73.1037 1.54066 73.9482 2.18644C74.892 2.90672 75.1404 3.8257 75.0659 4.96822C75.0162 5.71334 74.6933 6.65718 75.2645 7.15392C76.1587 7.89905 75.9352 8.79319 75.96 9.6625C75.9848 11.3514 75.96 13.0652 75.9848 14.7542C75.9848 15.1019 75.9848 15.4 75.7116 15.5738C74.9168 16.0706 74.9914 16.8405 75.041 17.6105C75.0659 17.9582 75.041 18.2562 74.7181 18.4053C73.824 18.8772 74.3456 20.1936 73.4266 20.6655C73.1534 20.8145 73.1286 21.1374 73.1782 21.4851C73.2279 21.7832 73.1782 22.1061 73.1782 22.4041C73.1782 22.727 73.0292 22.9505 72.7808 23.1741C72.5573 23.3728 72.3089 23.6211 72.2841 23.8695C72.2344 24.3414 72.1847 24.7388 71.8122 25.0617C71.6135 25.2356 71.3402 25.5585 71.3651 25.782C71.5141 26.8003 70.0735 27.1232 70.4212 28.1912C70.1232 28.5389 69.85 28.8867 69.5023 29.2095C68.931 29.7311 68.3846 30.2279 68.5336 31.1221C67.5898 31.5691 67.863 32.7613 67.2172 33.3326C66.5218 33.9535 66.8447 35.1209 65.9257 35.568C65.727 36.1144 65.876 36.785 65.2799 37.1575C64.808 37.4556 65.0067 37.9772 64.8577 38.3746C64.7087 38.772 64.2368 39.0452 63.9884 39.4178C63.6407 39.9393 64.0877 40.8087 64.659 40.8087C65.2799 40.8087 65.9009 40.8583 66.497 40.8087C67.6643 40.7093 68.9807 41.2805 69.8748 40.0138C69.999 39.8648 70.4461 39.8896 70.7441 39.8896C74.594 39.8896 78.4686 39.8897 82.3184 39.8648C82.6661 39.8648 82.989 39.84 83.138 40.0884C83.6348 40.8583 84.4047 40.8335 85.1747 40.7838C85.3237 40.7838 85.5224 40.7093 85.6218 40.7838C86.2179 41.2309 86.6401 41.9512 87.5591 41.7028C88.7264 42.5969 89.8193 43.6898 90.8376 44.6833ZM54.2521 52.6561C53.4076 53.5006 52.588 54.2208 51.8925 55.0405C51.2468 55.8353 50.0049 56.2078 50.0794 57.5242C49.5827 58.4929 48.6637 59.1138 47.9434 59.8838C47.1982 60.6786 46.4035 61.3989 45.6583 62.1937C45.2361 62.6159 45.6583 63.4107 45.0126 63.7833C44.1184 63.5846 43.6465 64.2055 43.1001 64.7519C42.1314 65.7454 41.0386 66.6396 40.1941 67.7324C39.4738 68.6514 38.5797 68.3782 37.6855 68.4279C37.5613 68.4279 37.4123 68.3037 37.3378 68.1795C37.0894 67.8318 37.0149 66.267 37.2384 66.0186C37.6607 65.5716 38.1326 65.1742 38.53 64.7022C39.0268 64.0813 39.6725 63.8578 40.4425 63.6839C41.1628 63.5349 40.5915 62.5911 41.0882 62.1192C43.1994 60.0825 45.2609 57.9961 47.3224 55.9098C47.9682 55.264 48.5395 54.5686 49.1604 53.898C49.0611 52.5567 50.303 52.1842 50.9487 51.4142C51.52 50.6939 52.2651 50.1227 52.8612 49.4024C53.0102 49.2285 52.7867 48.6324 52.9357 48.5331C53.8299 47.9122 53.9044 47.0428 53.805 46.099C53.7802 45.7761 53.9541 45.5774 54.2024 45.3291C54.873 44.7081 55.5188 44.0127 56.1894 43.3669C56.5123 43.044 56.86 42.7956 57.2077 42.4976C58.2509 42.7956 58.5738 41.3551 59.617 41.5538C59.8157 41.5786 60.2876 41.206 60.2628 41.0819C60.0641 40.1629 60.8837 39.7655 61.2066 39.1445C61.3308 38.8961 61.2314 38.5484 61.2314 38.2256C61.2314 37.7785 61.2066 37.3314 61.6537 37.0085C62.3988 36.4621 62.051 35.2451 62.97 34.7731C63.0694 34.7235 63.119 34.4999 63.0942 34.3757C62.8707 33.4568 64.0877 33.2332 64.0132 32.4384C63.9139 31.4698 65.3544 31.122 64.957 30.054C65.5034 29.5324 66.0747 29.0109 65.9257 28.1416C66.5715 27.6696 66.9192 27.0487 66.9192 26.2291C67.6146 25.782 67.7636 25.0617 67.9127 24.3166C68.6826 23.8944 68.5833 23.0499 68.9062 22.4041C69.1049 22.0316 69.6761 21.8577 69.6016 21.3113C69.5023 20.5413 70.3716 20.3426 70.4709 19.821C70.5951 19.2001 70.5951 18.6288 71.1664 18.2562C71.4644 18.0575 71.4893 17.8092 71.4644 17.4366C71.3899 16.6667 71.3651 15.8967 72.135 15.3999C72.3834 15.2261 72.4082 14.928 72.3834 14.5803C72.3586 13.9594 72.3834 13.3385 72.3834 12.7175C72.3834 12.3946 72.5076 12.1463 72.8057 11.9724C73.1286 11.7489 73.2527 11.5253 73.1534 11.3266C73.0789 11.2024 72.9298 11.1031 72.8305 11.0037C72.2592 10.2834 72.1102 9.83635 72.607 9.46379C73.5508 8.76834 73.2527 7.82452 73.3024 6.95521C73.3024 6.83103 73.1534 6.73167 73.054 6.60748C72.4083 5.71334 72.3834 5.71335 72.3834 5.04274C72.3834 4.07408 72.3834 4.09891 71.7376 3.45314C71.2906 3.00607 70.8932 2.63351 70.1977 2.70802C69.5768 2.78253 68.931 2.58382 68.3598 2.75768C67.6891 2.95638 67.3414 3.90023 66.4224 3.65185C65.8512 4.29763 64.9819 4.67018 64.9322 5.78787C64.9073 6.45848 63.7897 6.80618 64.0629 7.72517C63.7648 8.07289 63.442 8.3958 63.1439 8.74353C62.8459 9.09125 62.4981 9.38929 62.2249 9.76186C62.1504 9.86121 62.2001 10.0599 62.2249 10.2089C62.2994 11.0285 61.0576 11.2273 61.2811 12.1462C61.3059 12.2704 61.2562 12.4691 61.1817 12.5685C60.536 13.2391 59.8653 13.8849 59.2196 14.5555C58.9215 14.8783 58.4248 15.1019 58.4993 15.6483C58.5986 16.4183 57.928 16.6418 57.5803 17.1137C57.8287 18.0327 57.0587 18.455 56.6613 19.0511C56.5123 19.2746 56.711 19.7217 56.562 19.9204C56.1894 20.4171 55.7672 20.8642 55.2704 21.2367C54.6992 21.659 54.9724 22.4041 54.5998 22.8263C53.8795 23.646 53.1344 24.4159 52.3148 25.1114C51.5448 25.7571 51.1474 27.0239 49.8062 26.85C49.2598 27.3716 48.6885 27.8932 48.1421 28.4148C47.5957 28.9363 46.7015 28.5886 46.2048 29.3834C45.8074 30.0292 45.1119 30.4763 44.6152 31.0475C44.2675 31.4201 43.8452 31.4201 43.423 31.5194C42.7275 31.6933 42.4046 32.6868 41.4856 32.4136C40.8895 32.8358 40.4673 33.6058 39.5483 33.3326C39.2255 33.6306 38.8777 33.9535 38.5548 34.2516C37.8842 34.1274 37.3875 34.4254 36.9901 34.947C36.7914 35.1954 36.4933 35.1954 36.1705 35.1954C35.4005 35.1954 35.1521 36.3379 34.2331 36.1144C34.1089 36.0895 33.9599 36.1889 33.8357 36.2634C32.9913 36.8346 32.6435 38.1262 31.3023 37.9523C30.7559 38.4739 30.1846 38.9955 29.6382 39.5171C29.1911 39.9393 28.6944 40.3367 28.3467 40.8335C27.8499 41.5041 27.1296 41.5786 26.4342 41.827C25.9126 42.0257 26.31 42.7708 26.0616 43.044C24.7949 44.4101 23.4785 45.7016 22.1373 46.9932C21.6654 47.4403 21.3425 47.8873 21.4667 48.5827C21.1686 48.9056 20.8458 49.2534 20.5477 49.5762C20.5477 51.4142 20.5477 53.277 20.5974 55.115C20.5974 55.2144 20.7961 55.3386 20.9203 55.4379C21.2431 55.7608 21.5164 56.0588 21.5164 56.5804C21.4915 65.2238 21.4915 73.8673 21.5164 82.5107C21.5164 83.2807 21.5412 84.0258 20.7961 84.5225C20.6967 84.597 20.5974 84.7709 20.5974 84.8951C20.5725 85.6651 20.6222 86.435 20.5725 87.205C20.5229 88.0246 20.7961 88.5959 21.3177 89.2168C22.0628 90.111 23.5282 90.5083 23.3543 92.0483C23.6772 92.7189 24.472 92.3712 24.8943 92.7437C25.5897 93.3398 26.2852 93.9856 26.8564 94.7059C27.4277 95.451 28.1728 95.4013 28.9179 95.3268C29.2656 95.302 29.514 95.3516 29.7127 95.6497C30.0853 96.2458 30.6814 96.2458 31.2775 96.3451C31.5258 96.37 31.6997 96.7674 31.9481 96.9661C32.4697 97.4132 33.1154 97.14 33.7115 97.1896C34.4815 97.2641 34.7299 98.357 35.6488 98.1334C35.9469 98.0589 36.2698 98.1086 36.5678 98.1334C36.692 98.1334 36.8907 98.1831 36.9652 98.2825C37.462 99.0028 38.1574 99.1269 38.9771 99.0524C39.4241 99.0028 39.9209 99.0028 40.368 99.0524C41.6595 99.2263 43.1746 98.4812 44.1681 99.8969C45.708 99.9218 47.2479 99.9714 48.763 99.9217C48.9866 99.9217 49.2846 99.5988 49.4336 99.3505C49.7068 98.9531 49.8062 98.9779 50.1042 99.3256C50.8494 100.145 51.3213 100.17 51.9919 99.574C52.3396 99.276 52.6376 98.9779 53.1592 99.0027C53.9292 99.0276 53.9292 99.0028 55.1711 99.7727C55.3946 99.9218 55.7672 99.9963 56.0155 99.9217C56.7855 99.6982 57.6548 98.6053 57.6548 97.9844C57.6548 96.7425 57.6548 95.5255 57.6548 94.2836C57.6548 93.9856 57.6797 93.6627 57.6548 93.3647C57.63 93.0418 57.8287 92.8431 58.0522 92.5947C58.5987 91.9241 59.6418 91.5515 59.5176 90.4338C60.1386 89.3658 61.1818 88.6455 62.0014 87.7762C62.2994 87.4782 62.3491 87.3292 61.9269 87.1056C61.8027 87.056 61.6537 87.0063 61.5046 87.0063C60.9085 86.9318 60.1883 87.2795 59.766 86.7579C59.1948 86.0625 58.4993 86.0128 57.7293 86.0624C57.5803 86.0624 57.3816 86.137 57.2823 86.0624C56.6862 85.6402 56.2639 84.8951 55.3449 85.1435C54.7985 84.597 54.3018 83.9761 53.7057 83.529C52.9606 82.9578 52.9606 82.2375 53.0599 81.4675C53.1344 80.8963 52.6873 80.6727 52.4141 80.3498C51.9919 79.8531 51.967 79.257 52.4886 78.7851C53.0102 78.3132 53.0847 77.7916 53.0599 77.1458C53.0351 76.8477 52.9854 76.4503 53.1592 76.2765C54.2272 75.1836 55.3449 74.1405 56.4875 73.1221C56.6613 72.9483 57.0587 73.0476 57.3568 72.9731C57.481 72.9483 57.6052 72.7744 57.6797 72.6502C57.8287 72.4267 57.6052 71.5077 57.4065 71.4084C56.8849 71.16 56.1894 71.3587 55.8169 70.7626C55.3946 70.0671 54.3763 70.539 53.8795 69.7939C53.5566 69.2723 53.0102 68.9246 52.588 68.4527C52.3893 68.254 52.1409 67.956 52.1657 67.7324C52.2154 66.9873 51.669 66.6644 51.2716 66.2422C51.3213 65.3977 50.899 64.8264 50.2781 64.3297C50.3774 63.6839 50.2036 63.1375 49.6323 62.7401C49.2846 62.5166 49.3095 62.3179 49.7069 62.0695C50.303 61.7218 50.2533 61.0511 50.3526 60.4799C51.669 59.1635 52.9606 57.8471 54.3018 56.5804C54.4756 56.4066 54.8979 56.5307 55.1462 56.4065C55.5188 56.183 55.8665 55.885 56.1894 55.5869C56.7607 55.0405 56.7607 55.0405 56.3136 54.6183C55.5188 53.898 54.8979 53.277 54.2521 52.6561ZM4.70141 84.1996C4.70141 87.6024 4.70141 90.9803 4.70141 94.383C4.70141 94.9542 4.97464 95.2523 5.49622 95.2523C8.12899 95.2523 10.7369 95.302 13.3697 95.2275C14.239 95.2026 14.7606 95.5503 15.3318 96.0968C15.7541 96.4942 16.7476 96.0222 16.7476 95.5255C16.7476 92.5947 16.7476 89.6639 16.7476 86.7331C16.7476 82.5604 16.7724 78.4125 16.7227 74.2398C16.7227 73.5195 17.0953 73.147 17.4927 72.6999C17.7907 72.3522 17.7411 71.8803 17.4927 71.458C17.4182 71.3339 17.294 71.2345 17.1698 71.1351C16.4247 70.5391 16.8221 69.7194 16.7476 68.9991C16.673 68.3782 16.6979 67.7821 17.294 67.3847C17.4182 67.3102 17.592 67.186 17.6169 67.0618C17.6665 66.1428 17.6666 65.2238 17.6666 64.3049C17.6666 64.1807 17.4927 64.0813 17.4182 63.9571C17.145 63.6094 16.7227 63.4355 16.7476 62.8394C16.7972 61.2995 16.7227 59.7596 16.7973 58.2197C16.8221 57.6236 16.3998 57.4497 16.1266 57.102C15.5802 56.3817 16.7972 56.3569 16.6482 55.8105C16.6234 55.6863 16.4495 55.5621 16.3253 55.4876C16.0025 55.264 15.8534 54.9908 16.0024 54.8418C16.4495 54.4196 16.7972 53.9973 16.7724 53.3019C16.7227 50.371 16.7724 47.4403 16.7476 44.5094C16.7476 43.9879 16.9214 43.6153 17.294 43.3421C17.6666 43.0937 17.7411 42.8702 17.4182 42.6715C16.5986 42.1747 16.6979 41.3799 16.7724 40.6348C16.7972 40.287 16.7724 40.0138 16.4495 39.84C16.2508 39.7406 16.0025 39.8648 15.8038 40.1877C15.5802 40.5603 15.3815 40.6099 15.1331 40.3864C14.8102 40.0883 14.6115 39.6413 14.0403 39.6661C13.5932 39.7158 13.1213 39.6661 12.6494 39.6661C12.0284 39.6661 11.3827 39.7655 10.8114 39.6413C10.265 39.5171 10.116 38.6975 9.34602 38.7223C8.10415 38.7968 6.88711 38.772 5.64524 38.7223C5.04914 38.6975 4.87528 39.1197 4.52756 39.3929C4.03081 39.7903 3.7576 40.2374 3.78243 40.9328C3.83211 43.3917 3.80726 45.8755 3.80726 48.3344C3.80726 49.7253 3.8321 51.1162 3.80726 52.5071C3.80726 52.8548 3.80726 53.128 4.05564 53.3267C4.57723 53.7241 4.7511 54.2209 4.7511 54.8915C4.72626 60.2812 4.72624 65.6709 4.72624 71.0855C4.72624 71.2345 4.75107 71.4084 4.72624 71.5325C4.67656 71.6567 4.55238 71.7809 4.45303 71.8803C4.25433 72.1038 3.85693 72.3273 3.85693 72.526C3.85693 72.7496 4.22949 72.9731 4.47786 73.1718C4.72624 73.3953 4.7511 73.6437 4.7511 73.9915C4.70142 77.419 4.70141 80.8217 4.70141 84.1996ZM54.724 78.1145C54.724 78.8844 54.7488 79.6544 54.6992 80.3995C54.6743 80.7472 54.7488 80.9708 55.022 81.1943C55.5933 81.6662 55.9659 82.4362 56.8848 82.2623C57.5306 82.9329 58.2758 83.38 59.2693 83.2061C59.5673 83.1565 59.8902 83.231 60.1882 83.1813C60.536 83.1316 60.7595 83.231 61.0079 83.4545C61.3059 83.7526 61.5295 84.1251 62.1256 84.1251C67.6643 84.1003 73.2279 84.1003 78.7667 84.1251C79.3379 84.1251 79.5615 83.7526 79.8843 83.4545C80.1327 83.2061 80.3562 83.1565 80.704 83.1813C81.3249 83.231 81.9458 83.1813 82.5419 83.2061C82.8897 83.231 83.1132 83.1068 83.3119 82.8336C83.5851 82.461 83.9328 82.2127 84.4544 82.2623C84.9015 82.2872 85.3486 82.2126 85.7956 82.1878C86.2427 81.4675 86.9878 81.3682 87.7081 81.1943C87.8323 81.1695 88.031 80.9459 88.0062 80.8714C87.7826 79.9524 88.7513 79.5799 88.9003 78.9341C89.099 78.0648 88.9252 77.121 88.8755 76.202C88.8755 76.0778 88.6768 75.9784 88.5526 75.8791C88.2049 75.5562 87.9813 75.2333 88.0062 74.7117C88.031 74.066 87.0872 73.8673 87.112 73.2463C87.1617 72.3025 86.3917 71.9796 85.9198 71.4084C85.8205 71.309 85.6714 71.1848 85.5473 71.1848C83.7093 71.2096 81.8713 71.2345 80.0334 71.2842C79.9092 71.2842 79.8098 71.4829 79.7105 71.6071C79.4124 71.9796 79.0399 72.1286 78.5431 72.1286C73.4514 72.1038 68.3598 72.1286 63.2929 72.1286C62.821 72.1286 62.3491 72.079 61.902 72.1535C61.6288 72.2032 61.4053 72.4267 61.1569 72.5757C60.4615 73.0725 60.1137 74.1653 58.9712 73.9666C58.3006 74.5876 57.63 75.2085 56.9842 75.8294C56.2639 76.5746 55.494 77.3445 54.724 78.1145ZM56.0404 68.403C63.3674 68.403 70.5951 68.403 77.8476 68.4279C78.1954 68.4279 78.4189 68.3782 78.6425 68.105C78.9405 67.7821 79.1889 67.4344 79.7601 67.4592C81.4491 67.5089 83.138 67.4841 84.8021 67.4841C85.0505 67.2357 85.2741 67.0121 85.4728 66.8134C85.9198 66.3664 86.3172 65.9193 86.7891 65.5219C87.3604 65.0003 86.8636 63.9571 87.7578 63.6094C87.882 63.5597 88.031 63.3859 88.031 63.2617C88.0558 61.8708 88.031 60.4799 88.0558 59.1138C88.0558 58.7661 87.9565 58.5674 87.6833 58.3439C87.112 57.8223 86.5656 57.2759 86.044 56.7046C85.8205 56.4314 85.5969 56.3569 85.2492 56.3817C84.8021 56.4314 84.3302 56.3817 83.8583 56.4065C83.2126 56.4065 83.1877 56.3817 82.2936 57.0772C81.8713 57.4249 81.4491 57.3007 81.002 57.3255C80.5549 57.3504 80.1079 57.251 79.7601 57.7229C79.4869 58.0955 79.1144 58.2693 78.5928 58.2693C72.905 58.2445 67.1924 58.2445 61.5046 58.2693C60.8092 58.2693 60.4366 57.8968 59.9399 57.5491C59.2941 57.0772 58.0025 57.3256 57.4561 57.7975C56.7855 58.3439 56.4129 59.3871 55.2704 59.1884C54.1776 60.2564 53.0599 61.2995 51.9671 62.3924C51.8925 62.4669 51.9174 62.6656 51.8925 62.8146C51.8925 62.9636 51.818 63.1623 51.8925 63.2617C52.1657 63.6094 52.7122 63.9075 52.7618 64.28C52.8364 64.9258 52.9606 65.3977 53.4573 65.8696C54.4011 66.6396 55.2456 67.5586 56.0404 68.403ZM69.85 54.4941C72.7808 54.4941 75.7116 54.4941 78.6425 54.4941C78.9902 54.4941 79.3131 54.5189 79.4621 54.2705C79.9588 53.5006 80.7288 53.5006 81.4988 53.5751C81.8465 53.6248 82.1197 53.5751 82.3184 53.3019C82.7158 52.7306 83.2374 52.5319 83.908 52.6561C84.4047 52.06 84.976 51.6874 85.8205 51.6378C86.2924 51.5881 86.0688 50.8181 86.2675 50.4953C86.6649 49.8743 87.261 49.3527 87.7826 48.8063C88.2297 48.3344 88.18 46.7696 87.733 46.2977C87.4101 45.9748 87.0872 45.6519 86.7395 45.3042C86.4166 44.9813 86.0937 44.6584 85.746 44.3356C85.0754 44.4597 84.5538 44.2362 84.1564 43.665C83.9577 43.3917 83.6844 43.3918 83.3367 43.3918C80.1078 43.4166 76.8542 43.3917 73.6253 43.4166C73.3272 43.4166 73.0292 43.4166 72.7311 43.4911C72.607 43.5159 72.4828 43.6898 72.4082 43.814C71.986 44.4101 71.3899 44.4101 70.769 44.3604C70.0487 44.2859 69.2291 44.6584 68.633 43.9382C68.4591 43.7146 68.161 43.4662 67.9127 43.4662C66.8447 43.4166 65.7518 43.4414 64.6838 43.4414C63.9387 43.9133 63.3178 44.6088 62.2746 44.3852C61.8275 44.2859 61.3556 44.4349 60.8837 44.3604C60.0144 44.2362 59.4183 44.6088 58.9215 45.2546C58.0522 45.1552 57.5058 45.6271 57.009 46.2481C56.8352 46.4716 56.5868 46.72 56.562 46.9932C56.5123 47.7631 56.6116 48.5331 56.5123 49.303C56.4378 50.1475 56.711 50.7685 57.3816 51.2652C57.2326 52.3581 58.0274 52.9045 58.698 53.4757C58.996 53.7241 59.5921 53.5999 59.915 53.8483C60.3869 54.2209 60.7595 54.6183 61.4798 54.5934C64.3112 54.4692 67.0931 54.4941 69.85 54.4941ZM69.0552 98.0092C69.0552 98.0092 69.0552 98.0341 69.0552 98.0092C69.9742 98.0341 70.918 98.0341 71.837 98.0341C73.5259 98.0341 75.2397 98.0093 76.9287 98.0589C77.2764 98.0589 77.4751 97.9596 77.7483 97.7609C78.5928 97.1151 78.6176 97.1399 79.3379 97.1151C79.9837 97.0903 80.0085 97.1151 80.9027 96.4197C81.151 96.221 81.3994 96.1465 81.7223 96.1713C82.2439 96.1961 82.5668 95.8732 82.5171 95.3268C82.4923 94.9791 82.5668 94.7555 82.7903 94.5072C83.4609 93.7124 83.4609 93.7124 83.4609 92.9424C83.4609 92.4457 83.4361 92.4208 84.1315 91.3777C84.3054 91.1044 84.4047 90.9057 84.4047 90.558C84.3799 89.639 84.4047 88.6952 84.3799 87.7762C84.3799 87.1801 84.1564 86.9069 83.5603 86.9318C82.9642 86.9566 82.3681 86.7331 81.7968 87.1553C80.8281 87.8756 80.8033 87.8508 80.232 87.8508C76.0593 87.8508 71.9115 87.8508 67.7388 87.8508C66.9689 87.8508 66.9689 87.8507 65.3544 88.7697C64.6838 88.6455 64.2119 88.9436 63.7648 89.4403C63.0446 90.2351 62.2249 90.9554 61.4798 91.7502C60.983 92.2718 61.3307 93.2653 60.4863 93.6627C60.3869 93.7124 60.2628 93.9111 60.2876 94.0353C60.3124 95.2523 60.3373 96.4693 60.4118 97.6864C60.4118 97.8106 60.6105 98.0092 60.7347 98.0092C63.4916 98.0092 66.2734 98.0092 69.0552 98.0092Z" fill="#343434"/>
<path d="M13.0468 86.7332C13.0468 86.8822 13.0219 87.0312 13.0468 87.1802C13.1958 88.2731 12.8481 88.9437 11.6062 88.7947C10.4637 89.4156 10.4637 89.4156 9.9918 88.9437C9.34602 88.2979 8.74992 87.5776 8.02963 87.0064C7.30935 86.4103 7.48321 85.6403 7.50805 84.92C7.50805 84.3239 8.74993 83.2062 9.34603 83.1814C9.96696 83.1814 10.563 83.1814 11.184 83.1814C11.7552 83.1814 13.0468 84.3488 13.0716 84.8704C13.0468 85.5161 13.0468 86.1371 13.0468 86.7332Z" fill="#343434"/>
</svg>
