<svg width="172" height="196" viewBox="0 0 172 196" fill="none" xmlns="http://www.w3.org/2000/svg">
<mask id="path-1-inside-1" fill="white">
<path d="M169.024 134.322C166.473 134.322 164.02 134.322 161.6 134.322C160.488 136.042 158.754 135.425 157.217 135.49C155.582 135.555 153.979 135.49 152.344 135.49C150.708 135.49 149.106 135.49 147.471 135.49C147.274 135.49 147.013 135.49 146.915 135.587C145.541 137.372 143.579 136.528 141.878 136.658C140.275 136.788 138.64 136.691 137.005 136.691C136.383 136.691 135.795 136.691 135.173 136.691C134.585 136.691 134.192 137.177 134.192 137.891C134.192 138.508 134.192 139.092 134.192 139.708C134.192 140.519 134.192 140.519 135.042 141.784C135.141 141.947 135.369 142.076 135.402 142.239C135.435 143.244 135.435 144.25 135.402 145.256C135.369 146.197 136.481 146.392 136.612 147.17C136.71 147.754 136.645 148.371 136.645 148.987C136.645 149.377 136.841 149.701 137.201 149.961C137.365 150.09 137.528 150.22 137.626 150.382C137.724 150.545 137.822 150.707 137.855 150.902C138.051 152.394 137.234 154.146 138.934 155.282C138.967 156.482 139.131 157.683 139.033 158.851C138.934 159.986 139.392 160.732 140.21 161.414C140.472 161.641 140.243 162.679 139.916 163.036C139.556 163.49 138.869 163.717 139.065 164.496C139.098 164.691 139.163 165.015 139.065 165.08C138.182 165.794 137.692 167.124 136.154 166.929C135.893 166.897 135.5 167.351 135.271 167.643C134.977 168.032 134.683 168.097 134.225 168.097C132.688 168.097 132.688 168.13 131.51 168.908C131.347 169.006 131.216 169.265 131.052 169.265C129.842 169.298 128.599 169.363 127.389 169.265C126.473 169.2 125.852 169.525 125.329 170.174C125.067 170.498 124.707 170.531 124.249 170.498C123.661 170.466 123.072 170.563 122.483 170.596C121.535 172.121 120.03 171.634 118.657 171.666C118.035 171.666 117.479 171.764 117.087 172.315C116.694 172.867 116.106 172.932 115.484 172.899C114.667 172.867 113.849 172.802 113.326 173.613C113.064 174.002 112.737 174.132 112.312 174.132C111.494 174.1 110.677 174.197 109.859 174.1C109.139 174.035 108.78 174.489 108.354 174.878C108.224 175.008 108.06 175.268 107.929 175.3C107.112 175.333 106.294 175.333 105.509 175.333C104.659 175.333 104.659 175.333 103.416 176.176C103.252 176.273 103.121 176.533 102.958 176.533C101.944 176.565 100.93 176.598 99.9163 176.533C98.9679 176.501 98.7389 177.604 97.9867 177.733C97.398 177.831 96.7766 177.766 96.1552 177.766C95.73 177.766 95.4683 177.993 95.1413 178.317C94.8796 178.577 94.5526 178.902 94.1928 178.934C93.3752 179.031 92.5575 178.966 91.7726 178.966C90.5625 178.966 89.3196 178.772 88.5674 180.037C87.9787 180.07 87.39 180.199 86.8013 180.167C86.1145 180.102 85.6893 180.459 85.2641 180.881C85.1333 181.043 85.0025 181.27 84.8389 181.302C83.1709 181.659 81.1432 180.654 79.9004 182.6C79.0827 182.6 78.2651 182.6 77.4474 182.6C76.6625 182.6 76.6625 182.6 75.3542 183.444C75.1907 183.541 75.0599 183.768 74.8964 183.768C74.275 183.801 73.6862 183.801 73.0648 183.768C72.051 183.703 71.0698 183.703 70.383 184.677C70.2194 184.904 69.6961 184.936 69.3037 184.969C67.9627 185.131 66.4256 184.417 65.4444 185.975C64.4959 186.396 63.482 186.137 62.4682 186.169C61.814 186.169 61.2907 186.331 60.8983 186.851C60.6366 187.207 60.3096 187.402 59.9171 187.402C59.0994 187.402 58.2818 187.435 57.4642 187.402C57.0063 187.37 56.5811 187.37 56.3849 187.727C55.7307 188.732 54.7169 188.732 53.703 188.635C53.2451 188.603 52.9508 188.7 52.6237 188.992C52.2312 189.381 51.9369 189.933 51.1519 189.868C50.1381 189.771 49.1242 189.868 48.1103 189.835C47.4235 189.835 47.3908 189.771 46.0498 190.744C45.4611 191.166 44.9051 191.003 44.3491 191.068C43.2044 191.166 41.9289 190.711 41.0458 192.009C40.6861 192.528 39.9338 192.269 39.3451 192.301C38.7237 192.301 38.1677 192.334 37.7425 192.885C37.6117 193.048 37.4809 193.21 37.3174 193.307C37.1538 193.404 36.9903 193.469 36.7941 193.502C35.2896 193.696 33.4908 192.885 32.3788 194.605C30.9724 194.637 29.5661 194.735 28.1597 194.702C27.4729 194.702 27.0477 195.027 26.6226 195.448C26.4917 195.578 26.3282 195.87 26.1974 195.87C24.5948 195.903 22.9595 195.935 21.3242 195.935C21.1607 195.935 20.899 195.708 20.899 195.578C20.7682 194.345 20.1141 193.404 19.1656 192.658C18.5115 192.139 18.2172 191.523 18.1844 190.614C18.0863 188.927 18.9694 186.948 17.007 185.65C17.007 184.839 17.007 184.028 17.007 183.249C17.007 182.535 17.007 182.535 16.1567 181.173C16.0586 181.01 15.8296 180.881 15.7969 180.718C15.7642 179.518 15.6988 178.285 15.7969 177.085C15.8623 176.176 15.5026 175.56 14.8485 175.041C14.5214 174.781 14.5541 174.392 14.5214 173.97C14.4233 172.64 15.0774 171.115 13.5729 170.109C13.344 169.947 13.344 169.395 13.344 169.006C13.3113 168.195 13.5729 167.319 13.2786 166.605C12.8534 165.567 11.8395 164.82 12.0685 163.458C12.232 162.484 12.1666 161.446 12.0685 160.44C12.0358 160.116 11.676 159.759 11.3816 159.532C11.0219 159.24 10.8583 158.948 10.891 158.526C10.9238 157.715 10.8583 156.904 10.9238 156.093C10.9565 155.638 10.8256 155.346 10.564 155.022C9.68093 153.822 9.61552 153.789 9.71364 152.978C9.81176 152.102 9.55011 151.421 8.83058 150.902C8.66705 150.804 8.50352 150.61 8.50352 150.447C8.47082 149.441 8.47082 148.436 8.50352 147.43C8.53623 146.424 8.53623 145.451 7.58776 144.769C7.35882 144.607 7.32611 144.088 7.29341 143.699C7.12988 142.368 7.8167 140.844 6.27952 139.87C5.85435 138.929 6.116 137.924 6.08329 136.918C6.08329 136.269 5.88705 135.782 5.39647 135.36C5.23294 135.231 5.0367 135.101 4.97129 134.939C4.87317 134.582 4.87317 134.16 4.80776 133.803C4.51341 132.116 5.5927 130.169 3.66306 128.806C3.46682 128.677 3.59765 128.06 3.59765 127.638C3.56494 126.568 3.56494 126.568 2.78 125.562C2.64918 125.4 2.38753 125.27 2.38753 125.14C2.35482 123.94 2.15859 122.674 2.42024 121.506C2.74729 120.046 1.04659 119.657 1.14471 118.359C1.24283 117.159 1.17741 115.926 1.14471 114.725C1.14471 114.531 1.14471 114.336 1.04659 114.174C0.948474 114.012 0.752239 113.882 0.621415 113.752C-0.35976 112.552 -0.327054 112.13 0.523298 111.254C1.21012 110.508 1.86424 109.826 3.07435 110.021C3.85929 110.151 4.70964 109.988 5.49458 110.053C6.41035 110.151 6.99905 109.761 7.55505 109.145C8.01293 108.626 8.66705 108.885 9.25576 108.853C10.4332 108.788 11.676 109.145 12.5263 107.879C12.8534 107.393 13.6383 107.62 14.227 107.652C14.8812 107.685 15.4045 107.523 15.7969 107.003C15.9277 106.841 16.0586 106.679 16.2221 106.582C16.3856 106.484 16.5819 106.452 16.7781 106.419C18.3153 106.225 20.0814 107.036 21.1934 105.284C22.2073 105.251 23.2211 105.154 24.2023 105.219C24.9219 105.251 25.2816 104.83 25.7068 104.408C25.8703 104.278 26.0011 104.019 26.132 103.986C26.9496 103.954 27.7673 103.954 28.5849 103.954C29.5007 103.954 29.5334 103.986 30.6454 103.078C31.2014 102.623 31.7574 102.786 32.3461 102.753C32.9348 102.721 33.5235 102.851 33.9814 102.267C34.2103 101.975 34.5701 101.618 34.8971 101.585C35.911 101.488 36.9249 101.488 37.9388 101.553C38.9854 101.618 39.9338 101.488 40.5879 100.547C40.6861 100.417 40.915 100.352 41.1112 100.352C42.3214 100.352 43.5642 100.547 44.3164 99.2816C45.3303 99.2491 46.3115 99.1194 47.2926 99.1518C47.9795 99.1842 48.4373 98.8922 48.7971 98.4056C49.0915 98.0487 49.3858 97.8864 49.811 97.9189C50.8249 97.9513 51.8388 97.9189 52.8526 97.9189C54.4879 97.9189 54.7823 97.7242 54.7823 96.4264C54.7823 93.993 54.9458 91.5597 54.7169 89.1587C54.5206 87.0823 55.7635 84.7462 53.7357 82.8969C53.5068 82.7022 53.5395 82.1506 53.5395 81.7937C53.5395 77.9652 53.5068 74.1367 53.5395 70.3082C53.5395 69.6269 53.3105 69.1727 52.8199 68.7833C52.4602 68.4913 52.2966 68.1993 52.2966 67.7775C52.2966 64.5655 52.2639 61.321 52.3293 58.1089C52.3293 57.3951 51.9696 57.0382 51.5444 56.6165C51.4136 56.4867 51.1519 56.3569 51.1192 56.1947C51.0538 55.8053 51.0865 55.3835 51.0865 54.9942C51.0865 51.1657 51.0865 47.3372 51.1192 43.5087C51.1192 43.0545 51.0865 42.73 50.694 42.4705C50.3997 42.2433 49.9418 41.854 49.9745 41.6269C50.0399 41.3024 50.4978 41.0429 50.7595 40.7509C50.8576 40.6535 50.9557 40.3615 50.923 40.3291C49.1569 38.9664 50.0399 37.0197 49.8764 35.3326C49.7456 34.1321 49.8437 32.8992 49.8437 31.6987C49.8437 30.4983 50.0726 29.2654 48.7971 28.4867C48.6663 28.4218 48.6336 28.1298 48.6336 27.9676C48.6336 22.5168 48.6336 17.066 48.6663 11.6477C48.6663 11.3882 49.0915 11.1611 49.3531 10.9015C49.4839 11.0313 49.7456 11.1935 49.7783 11.3233C49.8437 12.7184 49.7783 14.1136 49.9091 15.5087C50.0399 16.8389 49.3204 18.2665 50.6286 19.4345C51.6752 20.3754 50.9557 21.7057 51.0538 22.8737C51.1519 24.2688 51.0865 25.6964 51.0865 27.0915C51.0865 27.8053 51.0538 27.8378 51.9696 29.1356C52.1985 29.4925 52.3293 29.752 52.3293 30.2063C52.2966 33.4183 52.3293 36.6628 52.2966 39.8749C52.2966 40.2966 52.4275 40.6211 52.7872 40.8806C53.2778 41.2375 53.5395 41.6918 53.5395 42.3731C53.474 44.5794 53.4413 46.8181 53.5395 49.0243C53.6049 50.5492 52.8199 52.2688 54.4879 53.4693C54.7169 53.6315 54.7169 54.1831 54.7169 54.5724C54.7496 55.7729 54.7169 57.0058 54.7169 58.2063C54.7169 59.6338 54.7169 61.029 54.7169 62.4565C54.7169 63.657 54.5206 64.8899 55.7962 65.6686C55.927 65.7335 55.927 66.0255 55.9597 66.1877C55.9924 66.3824 55.9597 66.5771 55.9597 66.8042C55.9597 68.8158 55.8616 70.8598 55.9924 72.8389C56.1232 74.5261 55.2075 76.5052 57.1044 77.803C57.1371 80.3986 57.2025 83.0266 57.1371 85.6222C57.1371 86.336 57.4969 86.7254 57.9547 87.0823C58.3145 87.3743 58.4126 87.6663 58.3799 88.1205C58.3472 90.1321 58.3472 92.1437 58.3472 94.1553C58.3472 94.8691 58.7397 95.4206 59.3284 95.3557C60.8656 95.226 62.6317 96.0046 63.7437 94.2526C64.7576 94.2202 65.7387 94.1228 66.7526 94.1877C67.4721 94.2202 67.8319 93.8308 68.2571 93.409C68.3879 93.2793 68.5187 93.0197 68.6823 92.9873C70.383 92.7277 72.378 93.6362 73.6535 91.7219C74.4712 91.7219 75.2888 91.657 76.1065 91.7543C77.0222 91.8517 77.6437 91.5272 78.167 90.8459C78.4286 90.5214 78.7884 90.5214 79.2462 90.5214C80.2601 90.5214 81.2413 90.4566 82.2552 90.4241C83.0074 89.1588 84.2502 89.2236 85.4604 89.3534C86.5396 89.4508 87.4227 89.1912 88.0768 88.2827C88.6655 88.2178 89.2542 88.0881 89.8429 88.1205C90.5298 88.153 90.9876 87.8934 91.3801 87.4067C91.6745 87.0498 91.9688 86.8876 92.394 86.8876C93.6041 86.92 94.8469 86.8552 96.057 86.92C96.5149 86.9525 96.8747 86.92 97.1363 86.5631C97.6596 85.8494 98.3137 85.5898 99.2295 85.6871C100.145 85.752 100.178 85.7196 101.29 84.8436C101.617 84.584 101.911 84.4218 102.369 84.4867C102.958 84.5516 103.579 84.4542 104.201 84.5191C105.117 84.6489 105.738 84.2596 106.261 83.6107C106.523 83.2862 106.915 83.3187 107.341 83.2862C108.681 83.1564 110.219 83.8702 111.2 82.3453C111.298 82.2155 111.527 82.1182 111.69 82.1182C112.312 82.0857 112.901 82.1182 113.522 82.1182C114.372 82.1182 114.34 82.0857 116.138 81.08C116.662 80.7879 117.316 80.7231 117.774 81.2097C118.362 81.8262 118.918 82.2804 119.834 82.1506C119.965 82.1182 120.161 82.3453 120.292 82.4751C120.717 82.9942 120.521 83.6107 120.554 84.1947C120.586 85.3627 120.292 86.5956 121.568 87.4392C121.797 87.5689 121.797 88.1854 121.764 88.5423C121.6 89.6454 122.025 90.4565 122.876 91.1379C122.974 91.2352 123.007 91.4948 122.974 91.6895C122.876 92.3708 123.203 93.0197 123.792 93.0197C128.043 93.0846 132.328 93.0846 136.612 93.0521C137.626 93.0521 137.953 91.6246 139.163 91.8192C140.145 91.9815 141.191 91.8517 142.205 91.8517C142.401 91.8517 142.597 91.8517 142.826 91.8517C143.35 91.8517 143.775 92.4032 143.742 93.117C143.709 95.3882 144.167 95.5504 141.518 95.4855C140.308 95.4531 139.065 95.4855 137.855 95.4855C135.631 95.4855 133.374 95.4855 131.15 95.4855C129.94 95.4855 128.697 95.3233 127.487 95.5504C126.604 95.7126 126.146 97.0104 124.936 96.7509C124.773 96.7184 124.282 97.27 124.282 97.562C124.184 98.5678 124.249 99.5736 124.249 100.579C124.249 100.742 124.315 101.034 124.446 101.098C125.983 102.072 125.46 103.597 125.427 104.927C125.427 105.9 126.31 106.257 126.506 106.906C126.801 107.815 126.702 108.885 126.637 109.859C126.604 110.572 126.964 110.994 127.422 111.351C127.782 111.643 127.913 111.935 127.88 112.389C127.814 112.973 127.88 113.59 127.88 114.206C127.88 115.147 127.847 115.18 128.73 116.283C128.992 116.607 129.09 116.899 129.123 117.353C129.221 118.684 128.534 120.209 130.006 121.214C130.137 121.312 130.3 121.506 130.3 121.669C130.333 122.48 130.3 123.291 130.333 124.102C130.365 125.27 130.071 126.438 131.281 127.379C131.935 127.866 131.576 128.904 131.51 129.65C131.445 130.721 131.706 131.564 132.557 132.278C132.786 132.473 132.622 133.057 132.753 133.381C132.884 133.706 133.211 134.192 133.473 134.192C136.318 134.225 139.131 134.16 141.976 134.127C143.546 132.213 145.704 133.284 147.601 132.992C149.302 132.732 151.232 133.673 152.704 131.986C152.9 131.759 153.423 131.791 153.816 131.791C155.026 131.759 156.268 131.694 157.479 131.791C158.591 131.889 159.31 131.402 160.128 130.721C160.782 130.169 161.665 130.559 162.156 131.305C162.483 131.824 162.744 131.856 163.039 131.402C163.856 130.072 165.23 130.786 166.342 130.526C166.505 130.494 166.669 130.267 166.767 130.104C166.8 130.007 166.734 129.812 166.636 129.683C166.276 129.228 165.622 128.969 165.688 128.255C165.72 128.06 165.688 127.866 165.688 127.638C165.688 125.432 165.819 123.194 165.655 120.987C165.524 119.105 166.604 116.932 164.478 115.407C164.38 115.342 164.478 115.017 164.478 114.823C164.478 113.622 164.478 112.389 164.478 111.189C164.478 109.988 164.478 108.756 164.478 107.555C164.478 106.355 164.38 105.122 164.51 103.921C164.641 102.623 164.314 101.585 163.268 100.806C163.268 99.9954 163.268 99.1842 163.268 98.3731C163.268 94.3499 163.268 90.2943 163.268 86.2711C163.268 85.8818 163.398 85.3302 163.169 85.1356C162.384 84.3893 161.763 83.7729 163.039 82.9618C163.104 82.9293 163.104 82.6373 163.039 82.5724C162.45 82.0209 161.992 81.4693 162.025 80.5608C162.09 76.7323 162.025 72.9038 162.057 69.0753C162.057 68.394 161.796 67.9398 161.305 67.5829C160.945 67.2908 160.815 66.9988 160.815 66.5771C160.847 62.1321 160.815 57.7196 160.847 53.2746C160.847 52.5608 160.455 52.1715 160.03 51.8146C159.67 51.5226 159.604 51.2306 159.604 50.7764C159.637 46.9479 159.637 43.1194 159.637 39.2908C159.637 38.9015 159.801 38.2526 159.604 38.1228C157.936 36.9873 158.46 35.2677 158.427 33.7428C158.394 31.9258 158.427 30.1089 158.427 28.292C158.427 26.6698 158.427 25.08 158.427 23.4577C158.427 23.263 158.427 23.0684 158.427 22.8413C158.492 21.8355 158.46 20.8621 157.511 20.1808C157.282 20.0185 157.217 19.467 157.217 19.1101C157.184 14.2758 157.217 9.44148 157.217 4.60718C157.217 3.99073 156.759 3.60139 156.04 3.60139C151.559 3.60139 147.111 3.60139 142.63 3.60139C142.172 3.60139 141.878 3.66628 141.551 4.02317C141.158 4.44496 140.831 4.86674 140.079 4.86674C136.612 4.80185 133.178 4.8343 129.711 4.8343C129.319 4.8343 128.697 4.70452 128.534 4.89919C127.357 6.58633 125.623 5.93743 124.119 6.03476C122.483 6.09965 120.881 6.06721 119.245 6.06721C117.61 6.06721 116.008 6.06721 114.372 6.06721C113.98 6.06721 113.555 6.06721 113.162 6.06721C112.966 6.06721 112.704 6.06721 112.606 6.19699C111.461 7.91657 109.695 7.17034 108.158 7.26767C106.752 7.36501 105.313 7.30012 103.906 7.30012C101.879 7.30012 99.8509 7.30012 97.8232 7.30012C97.4307 7.30012 96.9074 7.26767 96.7112 7.49479C95.2394 9.14948 93.3425 8.33836 91.6091 8.46813C89.7775 8.59791 87.946 8.40324 86.1145 8.53302C84.4138 8.6628 82.4514 7.78679 81.0778 9.60371C80.9797 9.70104 80.718 9.70104 80.5218 9.70104C79.0827 9.70104 77.6764 9.70104 76.2373 9.70104C74.602 9.70104 72.9994 9.70104 71.3641 9.70104C69.9905 9.70104 68.5187 9.40904 67.5703 10.9015C67.5049 10.9988 67.1778 10.934 66.9816 10.934C61.9122 10.934 56.81 10.934 51.7406 10.9015C51.6098 10.9015 51.4136 10.6744 51.3155 10.5122C51.1519 10.2202 51.3482 9.86327 51.806 9.73349C52.362 9.60371 52.9835 9.83082 53.4413 9.24681C53.6703 8.95481 54.03 8.56547 54.3571 8.53302C56.1886 8.46813 58.0202 8.56547 59.8517 8.46813C61.1926 8.40324 62.7298 9.05214 63.7437 7.52723C63.9072 7.30012 64.4632 7.30012 64.823 7.30012C65.8369 7.26767 66.8507 7.30012 67.8646 7.30012C69.0747 7.30012 70.3176 7.30012 71.5277 7.30012C72.7378 7.30012 73.9806 7.49479 74.7655 6.26188C74.831 6.1321 75.1253 6.1321 75.2888 6.09965C75.6813 6.06721 76.1065 6.09965 76.499 6.09965C78.5267 6.09965 80.5872 6.19699 82.5822 6.06721C84.4792 5.93743 86.6378 6.87833 88.2403 4.99652C88.4039 4.80185 88.9926 4.89919 89.385 4.89919C93.2443 4.89919 97.1036 4.86674 100.963 4.93163C101.682 4.93163 102.042 4.54229 102.467 4.12051C102.631 3.99073 102.729 3.79606 102.893 3.69873C103.056 3.63384 103.285 3.66628 103.481 3.66628C105.705 3.66628 107.962 3.66628 110.186 3.66628C111.396 3.66628 112.672 3.47161 113.849 3.73117C115.321 4.05562 115.746 2.36848 117.021 2.46582C118.035 2.53071 119.049 2.46582 120.063 2.46582C121.273 2.46582 122.516 2.46582 123.726 2.46582C124.936 2.46582 126.146 2.43337 127.357 2.36848C127.52 2.36848 127.651 2.10892 127.782 1.9467C128.207 1.49247 128.632 1.20046 129.319 1.20046C133.374 1.23291 137.463 1.23291 141.518 1.23291C141.911 1.23291 142.205 1.00579 142.499 0.681344C142.761 0.421784 143.121 0.0648899 143.448 0.0648899C147.928 0 152.18 0 156.465 0C156.628 0 156.89 0.0973349 156.988 0.227115C157.577 0.973349 158.689 1.36269 158.623 2.5956C158.558 3.63384 160.095 3.92584 159.866 5.1263C159.735 5.90498 159.768 6.74855 159.866 7.52723C159.899 7.85168 160.259 8.17613 160.455 8.50058C160.651 8.82503 161.044 9.14948 161.044 9.47393C161.076 13.1078 161.076 16.7416 161.076 20.3754C161.076 20.7323 161.109 21.2839 161.338 21.4461C162.646 22.2897 162.254 23.555 162.254 24.7231C162.286 27.7404 162.286 30.7578 162.254 33.8076C162.254 34.5214 162.581 34.9432 163.039 35.3001C163.398 35.5921 163.496 35.8841 163.496 36.3384C163.464 39.5504 163.496 42.7949 163.496 46.007C163.496 46.2016 163.431 46.5261 163.496 46.591C164.936 47.5319 164.739 48.927 164.707 50.3546C164.674 51.9768 164.707 53.5666 164.707 55.1889C164.707 56.6165 164.707 58.0116 164.707 59.4392C164.707 59.6338 164.674 59.9583 164.772 60.0232C166.505 61.1263 165.851 62.8783 165.917 64.4032C165.982 66.0255 165.851 67.6477 165.949 69.2375C166.015 70.5678 165.361 72.0927 166.898 73.0985C167.127 73.2607 167.127 73.8123 167.16 74.1692C167.192 76.1808 166.996 78.2248 167.225 80.2039C167.454 82.2804 166.146 84.6489 168.239 86.4334C168.37 86.5307 168.402 86.7903 168.402 86.9525C168.435 87.5689 168.402 88.153 168.402 88.7694C168.402 90.781 168.304 92.825 168.435 94.8042C168.533 96.4913 167.683 98.438 169.514 99.8007C169.612 99.898 169.612 100.158 169.612 100.352C169.612 101.78 169.612 103.175 169.612 104.603C169.612 106.225 169.612 107.815 169.612 109.437C169.612 110.8 169.318 112.26 170.823 113.2C170.921 113.265 170.855 113.59 170.855 113.784C170.855 114.596 170.855 115.407 170.855 116.218C170.855 119.657 170.823 123.064 170.888 126.503C170.888 126.795 171.411 127.087 171.706 127.379C171.836 127.509 172.065 127.671 172.065 127.833C172.098 128.839 172.065 129.845 172.098 130.851C172.098 131.305 171.935 131.564 171.608 131.889C170.659 132.603 169.841 133.511 169.024 134.322ZM27.6364 192.464C28.5195 192.366 29.3044 192.301 30.0894 192.236C30.8416 190.971 32.1171 191.198 33.2945 191.198C33.4581 191.198 33.687 191.101 33.7851 190.971C34.4393 189.998 35.3877 189.933 36.4343 189.998C37.0557 190.03 37.6444 190.03 38.2658 189.998C38.4294 189.998 38.6583 189.835 38.7237 189.706C39.3778 188.667 40.3917 188.732 41.4056 188.83C41.8635 188.862 42.1578 188.732 42.4849 188.473C43.5315 187.597 43.5642 187.629 44.5454 187.629C45.3957 187.629 45.4284 187.662 46.6058 186.753C47.1618 186.331 47.7178 186.461 48.3065 186.429C48.8952 186.396 49.4839 186.494 49.9418 185.91C50.3016 185.423 50.7922 185.131 51.479 185.196C52.2966 185.261 53.1143 185.261 53.8992 185.196C54.2263 185.163 54.6187 184.904 54.8477 184.644C55.3056 184.158 55.7962 183.995 56.4176 184.028C57.0063 184.06 57.7912 184.287 58.1183 183.801C59.0013 182.568 60.2114 182.892 61.3889 182.827C61.9776 182.795 62.6971 183.054 63.0896 182.535C63.8091 181.562 64.7576 181.562 65.7714 181.627C66.3929 181.659 66.9816 181.659 67.603 181.627C67.7665 181.627 67.8973 181.4 68.0609 181.302C69.3037 180.459 69.3037 180.426 70.7427 180.459C71.2006 180.459 71.5277 180.426 71.7893 180.005C72.2799 179.226 73.0321 179.129 73.8825 179.194C74.275 179.226 74.8964 179.323 75.0272 179.129C76.0084 177.669 77.4801 178.058 78.8538 178.025C79.4752 177.993 80.0639 178.025 80.6853 178.025C81.1105 178.025 81.4048 177.831 81.6665 177.474C82.0589 176.955 82.5495 176.793 83.2037 176.793C84.1848 176.793 85.1987 177.02 86.1799 176.63C86.9321 175.333 88.2403 175.657 89.4178 175.592C89.5813 175.592 89.8429 175.462 89.9083 175.333C90.4316 174.262 91.6745 174.619 92.4267 174.067C92.8846 173.743 93.1135 173.126 93.8985 173.159C95.1086 173.224 96.3514 173.126 97.5615 173.191C98.3137 173.256 98.6408 172.737 99.0333 172.315C99.3276 171.991 99.622 171.893 100.113 171.926C101.126 172.023 102.14 172.088 102.794 171.05C103.023 170.693 103.416 170.693 103.874 170.725C105.084 170.758 106.294 170.725 107.537 170.758C107.962 170.758 108.289 170.596 108.518 170.206C109.041 169.428 109.859 169.492 110.677 169.525C111.298 169.557 111.821 169.428 112.279 168.941C112.508 168.681 112.901 168.389 113.228 168.357C114.241 168.292 115.288 168.454 116.269 168.292C116.76 168.195 117.152 167.416 117.643 167.286C118.395 167.092 119.213 167.189 120.03 167.124C120.194 167.124 120.423 166.962 120.488 166.832C121.306 165.502 122.647 166.053 123.792 165.924C124.348 165.859 124.904 166.053 125.492 165.567C126.572 164.658 126.604 164.723 127.553 164.723C128.37 164.723 129.188 164.723 129.973 164.691C130.137 164.691 130.3 164.431 130.398 164.269C131.085 163.231 132.164 163.555 133.113 163.523C133.832 163.49 134.552 162.419 134.192 161.835C133.996 161.543 133.603 161.089 133.374 161.122C132.001 161.446 131.576 159.532 130.202 159.856C129.744 159.499 129.253 159.175 128.828 158.786C128.076 158.104 127.389 157.358 126.67 156.644C125.819 155.833 125.165 154.73 123.726 154.925C123.137 154.341 122.483 153.854 122.025 153.205C121.469 152.459 120.521 152.816 119.932 152.362C119.147 151.713 118.461 150.966 117.774 150.253C117.087 149.539 116.465 148.695 115.255 148.987C114.405 148.144 113.391 147.365 112.704 146.392C111.952 145.289 110.513 145.613 109.728 144.705C108.91 143.796 107.995 143.017 107.177 142.141C106.49 141.395 105.28 141.914 104.626 140.908C103.972 139.903 102.958 139.156 102.075 138.313C101.944 138.183 101.715 138.086 101.552 138.118C99.4585 138.378 99.2295 135.263 97.0709 135.685C96.1879 134.841 95.1086 134.16 94.5199 133.154C93.7022 131.791 92.0015 132.311 91.053 131.078C89.2542 128.742 88.6328 129.326 86.8667 131.207C86.2126 131.889 85.166 132.408 85.3949 133.608C84.8717 134.192 84.4792 134.971 83.8251 135.36C82.7785 135.977 83.2037 137.145 82.5822 137.891C81.3394 139.351 79.3117 140.26 79.1154 142.498C78.1015 143.439 77.055 144.38 76.0411 145.353C74.831 145.353 73.6208 145.353 72.378 145.353C71.9855 145.353 71.5931 145.321 71.2333 145.191C71.0698 145.159 70.939 144.932 70.8081 144.769C70.0232 143.829 68.4533 144.283 67.8646 143.05C67.2759 142.985 66.6872 142.985 66.0985 142.888C65.7387 142.823 65.2481 142.823 65.0192 142.596C64.4305 142.012 63.8745 141.492 62.9587 141.687C62.5009 141.298 62.1411 140.779 61.6178 140.519C61.1272 140.292 60.4077 140.714 59.9825 140.065C59.4919 139.286 58.7397 139.189 57.8893 139.254C57.039 139.319 57.039 139.254 55.8289 138.345C55.5018 138.086 55.3056 138.183 54.9458 138.605C54.259 139.319 53.4086 139.935 53.6703 141.103C53.2124 141.687 52.362 142.044 52.4602 143.017C52.5583 143.926 51.2173 144.185 51.3155 144.932C51.4463 146.132 50.0399 146.554 50.1053 147.462C50.2035 148.793 48.4046 149.214 48.8298 150.577C48.3719 151.388 47.2599 151.907 47.6197 153.108C47.2272 153.53 46.8021 153.984 46.4096 154.406C46.7039 155.606 45.8536 156.255 45.1013 156.871C44.2837 157.553 43.8912 158.364 43.8258 159.37C42.8774 159.921 42.9428 161.024 42.4849 161.835C42.0924 162.484 41.6018 163.003 41.471 163.847C41.3402 164.723 39.9665 165.177 40.3263 166.378C39.9338 166.8 39.5087 167.254 39.1162 167.676C39.4759 168.876 38.4621 169.428 37.9061 170.206C38.3967 171.601 36.467 172.023 36.6632 173.321C36.6959 173.613 36.3689 174.002 36.1072 174.294C35.5512 174.878 34.7009 175.365 34.472 176.046C34.1449 176.987 33.9814 177.896 33.0983 178.512C33.0983 179.323 33.0002 180.102 32.248 180.556C31.5611 180.978 32.019 181.692 31.7901 182.178C31.463 182.86 30.4491 183.119 30.58 184.125C30.6127 184.32 30.6127 184.579 30.5145 184.677C29.9585 185.261 29.4353 185.91 28.7811 186.364C27.8654 187.013 28.4214 188.246 27.5383 188.895C26.6226 189.608 27.015 191.166 25.8049 191.782C25.903 191.912 25.9684 192.172 26.0993 192.204C26.5571 192.269 27.1458 192.366 27.6364 192.464ZM73.0975 141.557C73.2938 141.557 73.5881 141.655 73.6863 141.557C74.3077 141.038 74.8964 140.519 75.4524 139.935C76.1392 139.254 77.1204 138.735 76.8587 137.502C77.5455 136.139 79.5733 135.62 79.3444 133.673C79.9331 133.089 80.4237 132.44 81.0778 131.986C82.0262 131.37 81.4375 130.104 82.3533 129.455C83.0074 129.001 83.5307 128.352 84.0867 127.768C84.7735 127.087 85.722 126.503 85.4277 125.302C86.3434 124.07 88.0768 123.388 87.9787 121.506C88.5674 120.922 89.058 120.273 89.7121 119.819C90.497 119.268 90.0392 118.294 90.5625 117.743C91.2493 116.997 91.9688 116.283 92.721 115.601C93.4733 114.92 94.1928 114.239 93.9966 113.103C95.0432 111.968 96.5149 111.124 96.5803 109.34C97.169 108.756 97.725 108.204 98.3138 107.62C98.7389 107.198 99.0987 106.679 99.622 106.355C100.472 105.835 99.7855 104.895 100.44 104.246C101.781 102.883 103.743 101.91 103.939 99.6385C104.724 98.5678 106.359 98.0811 106.229 96.3291C106.196 96.0695 106.719 95.7451 106.981 95.4531C108.06 94.0904 109.924 93.3117 109.99 91.2677C110.709 90.5539 111.429 89.8401 112.148 89.1263C112.41 88.8343 112.345 87.861 112.017 87.5041C111.723 87.1796 110.742 87.0498 110.382 87.3094C110.219 87.4067 110.088 87.6014 109.957 87.7312C109.826 87.8609 109.695 88.0556 109.532 88.153C108.583 88.6721 107.537 88.4774 106.588 88.3476C105.215 88.153 104.79 89.9374 103.416 89.613C102.827 89.4832 102.206 89.5481 101.584 89.613C101.225 89.6454 100.669 89.6454 100.505 89.8725C99.4584 91.3975 97.9213 90.6512 96.613 90.781C96.1879 90.8134 95.7954 90.781 95.5338 91.1379C95.0105 91.8192 94.3563 92.1437 93.4733 92.0464C92.8846 91.9815 92.2632 92.0788 91.6418 92.0139C91.1839 91.949 90.9222 92.1112 90.5625 92.4032C89.5159 93.2793 89.4832 93.2468 88.4693 93.2468C87.6516 93.2468 86.8667 93.2793 86.0491 93.2793C85.1333 94.7717 83.6615 94.4473 82.2879 94.4473C81.6665 94.4473 81.0778 94.4473 80.4564 94.4473C80.0312 94.4473 79.7368 94.6095 79.4425 94.9664C79.05 95.4531 78.5594 95.7126 77.9053 95.6802C77.3166 95.6477 76.7279 95.7775 76.1392 95.8424C75.3542 97.1402 74.1114 96.8482 72.9013 96.8807C72.3126 96.8807 71.5931 96.6535 71.2006 97.1402C70.4811 98.0487 69.5653 98.146 68.5187 98.0811C67.5049 98.0487 66.491 98.0487 65.4771 98.0811C65.3136 98.0811 65.1173 98.2433 65.0192 98.4056C64.3651 99.4438 63.3512 99.3789 62.3373 99.2816C61.8794 99.2491 61.5851 99.3465 61.258 99.6709C60.8656 100.093 60.5385 100.612 59.7863 100.514C58.9686 100.417 58.151 100.514 57.366 100.482C56.9082 100.45 56.6138 100.579 56.3195 100.936C55.9597 101.391 55.5345 101.78 54.815 101.715C53.9973 101.65 53.1797 101.747 52.3948 101.683C51.3482 101.618 50.5305 101.812 49.7129 102.623C48.9606 103.337 47.7505 102.98 46.8021 102.883C45.4284 102.688 45.0032 104.473 43.6296 104.148C43.0409 104.019 42.4195 104.083 41.7981 104.148C41.4383 104.181 40.8823 104.181 40.7188 104.408C39.6722 105.933 38.135 105.187 36.8268 105.316C36.4016 105.349 36.0091 105.316 35.7475 105.673C35.2242 106.387 34.5701 106.647 33.687 106.582C32.4769 106.484 31.2341 106.549 30.024 106.582C29.8604 106.582 29.7296 106.841 29.5661 106.971C28.4214 107.782 28.4214 107.782 27.4729 107.782C27.0804 107.782 26.6553 107.847 26.2628 107.782C25.347 107.652 24.791 108.074 24.1696 108.658C23.352 109.404 22.2073 109.08 21.2915 108.95C19.8852 108.723 19.46 110.475 18.119 110.248C17.5303 110.151 16.9089 110.216 16.2875 110.248C15.5026 110.28 14.7176 110.378 13.9327 110.41C12.9842 111.935 11.447 111.319 10.1061 111.448C9.90987 111.481 9.68093 111.416 9.4847 111.448C9.32117 111.481 9.05952 111.578 8.99411 111.708C8.17646 113.038 6.86823 112.552 5.72353 112.681C5.26564 112.746 5.0367 113.103 5.13482 113.395C5.16753 113.557 5.39647 113.752 5.56 113.817C6.116 113.979 6.77011 113.622 7.19529 114.271C7.71858 115.017 8.43811 115.18 9.28846 115.115C10.0407 115.05 10.0734 115.082 11.3489 116.023C11.8722 116.413 12.559 116.121 12.9842 116.445C13.6056 116.899 13.9981 117.613 14.9793 117.548C15.6334 117.516 15.895 118.262 16.3856 118.554C17.0397 118.911 17.9882 118.619 18.4461 119.43C18.675 119.819 19.0348 119.981 19.46 119.949C19.8524 119.917 20.2776 119.949 20.6701 119.949C20.8663 119.949 21.128 119.852 21.2588 119.949C21.7167 120.306 22.1091 120.825 22.6324 121.085C23.123 121.344 23.8426 120.922 24.2677 121.539C24.7583 122.285 25.5106 122.447 26.3609 122.35C27.0804 122.285 27.0804 122.35 28.4214 123.226C28.5849 123.323 28.7484 123.518 28.912 123.518C29.5007 123.55 30.1221 123.486 30.5145 124.07C31.0051 124.881 31.9536 124.556 32.575 124.946C32.9021 125.14 33.131 125.692 33.4581 125.757C34.2103 125.919 35.028 125.854 35.8129 125.984C36.5978 126.114 36.8268 127.249 37.7425 127.152C38.2004 127.119 38.4948 127.217 38.8218 127.476C39.9665 128.352 39.9665 128.352 40.8823 128.352C41.8962 128.352 41.9289 128.352 42.9428 129.196C43.2698 129.488 43.5642 129.618 44.0221 129.553C45.0359 129.455 46.0498 129.423 46.7039 130.429C46.8021 130.559 46.9983 130.721 47.1618 130.721C47.7505 130.753 48.3719 130.688 48.7644 131.305C49.255 132.116 50.2035 131.791 50.8249 132.181C51.1519 132.375 51.3809 132.927 51.7079 132.992C52.4602 133.154 53.2778 133.089 54.0628 133.187C54.8477 133.316 55.0766 134.452 55.9924 134.355C56.4503 134.322 56.7446 134.419 57.0717 134.711C58.1837 135.587 58.2164 135.587 59.1322 135.587C60.1787 135.587 60.2114 135.555 61.1926 136.431C61.7159 136.918 62.4682 136.528 62.8279 136.885C63.5474 137.632 64.3324 138.118 65.379 138.118C65.9677 139.059 66.9489 139.189 67.8973 139.416C68.6823 140.714 69.9578 140.357 71.1352 140.454C71.4623 140.487 71.822 140.844 72.051 141.136C72.378 141.428 72.6724 141.622 73.0975 141.557ZM5.72353 116.153C5.42917 116.153 5.23294 116.185 5.0367 116.153C4.57882 116.056 4.21906 116.153 3.95741 116.51C3.72847 116.802 3.82659 117.061 4.28447 117.386C4.84047 117.743 4.93859 118.294 4.93859 118.943C4.93859 119.527 4.70964 120.241 5.16753 120.63C6.08329 121.344 6.21411 122.22 6.1487 123.258C6.116 123.842 6.116 124.459 6.1487 125.075C6.1487 125.238 6.27952 125.465 6.44305 125.562C7.91482 126.568 7.22799 128.093 7.32611 129.423C7.35882 129.877 7.45693 130.169 7.68588 130.494C8.56893 131.694 8.56893 131.727 8.56893 132.538C8.56893 132.927 8.56893 133.349 8.56893 133.738C8.56893 134.647 8.53623 134.647 9.45199 135.782C9.71364 136.107 9.84446 136.399 9.81176 136.853C9.71364 137.859 9.71364 138.832 10.7275 139.513C11.0546 139.74 11.0546 140.162 11.0219 140.584C10.9892 141.395 11.0219 142.206 11.0219 142.985C11.0219 143.374 11.2181 143.699 11.5779 143.958C12.1012 144.348 12.232 144.867 12.2647 145.483C12.2974 146.457 11.8395 147.625 12.4936 148.371C13.2132 149.182 13.5729 149.961 13.4748 151.031C13.3767 152.232 13.344 153.432 14.5868 154.178C14.6195 155.184 14.6849 156.158 14.6522 157.163C14.6522 157.618 14.7503 157.91 14.9793 158.234C15.9277 159.629 15.895 159.662 15.895 160.278C15.895 161.154 15.8623 161.154 16.7454 162.322C17.007 162.647 17.1379 162.939 17.1379 163.393C17.0725 164.593 17.1379 165.794 17.1052 167.027C17.1052 167.481 17.2033 167.773 17.5957 168.032C18.3807 168.552 18.4134 169.33 18.348 170.141C18.3153 170.531 18.2499 171.147 18.4788 171.277C19.9833 172.25 19.4927 173.743 19.5581 175.073C19.5908 175.689 19.4927 176.306 19.5908 176.89C19.6562 177.247 19.9179 177.604 20.1795 177.831C20.6701 178.285 20.8009 178.772 20.8009 179.388C20.8009 179.972 20.5393 180.686 21.0626 181.075C21.9783 181.789 22.1091 182.698 22.011 183.703C21.9783 184.32 21.9783 184.904 22.011 185.52C22.011 185.682 22.1746 185.91 22.3054 185.975C23.352 186.623 23.2866 187.629 23.1884 188.635C23.1557 189.089 23.1884 189.446 23.5809 189.673C23.8753 189.868 24.1369 189.706 24.464 189.284C24.8237 188.83 25.2489 188.408 25.6414 187.954C25.3143 186.753 26.4917 186.299 26.8515 185.423C26.5244 184.222 28.0943 183.833 28.0289 182.925C27.9308 181.594 29.7296 181.173 29.3044 179.81C29.7623 178.999 30.8743 178.48 30.5145 177.279C31.136 176.533 32.0517 175.949 31.7574 174.781C32.1498 174.327 32.7058 173.97 32.9348 173.451C33.131 172.932 32.8694 172.283 33.4908 171.861C33.9814 171.504 34.3084 171.017 34.2103 170.336C34.0468 169.298 34.243 168.357 35.2242 167.74C35.4531 166.8 35.584 165.826 36.4997 165.242C36.5324 164.204 36.9903 163.425 37.7425 162.711C38.1023 162.387 37.6117 161.543 38.2004 161.122C38.9199 160.603 39.2143 159.921 39.0508 159.045C39.4432 158.623 39.9992 158.234 40.2282 157.715C40.4571 157.228 40.1301 156.514 40.7842 156.125C41.5691 155.638 41.471 154.795 41.6345 154.049C42.583 153.465 42.5503 152.394 42.9755 151.583C43.3352 150.934 43.8912 150.447 43.9894 149.571C44.0875 148.695 45.4284 148.241 45.1995 147.041C45.1668 146.813 45.6246 146.392 45.9517 146.165C46.6058 145.71 46.1806 145.029 46.4096 144.542C46.7039 143.861 47.7505 143.601 47.6197 142.628C47.4889 141.557 49.1242 141.298 48.8298 140.097C48.7317 139.708 49.0261 139.416 49.3531 139.124C49.9745 138.605 50.5305 138.021 51.0865 137.437C51.5771 136.918 51.2173 135.652 50.4978 135.49C49.9418 135.36 49.3204 135.555 48.8952 134.971C48.5355 134.484 48.0449 134.16 47.3581 134.257C46.3115 134.419 45.4284 134.16 44.7089 133.251C43.9566 132.278 43.0736 131.499 41.6672 131.824C41.2094 131.921 40.8169 131.856 40.5879 131.532C40.0647 130.851 39.4432 130.461 38.5275 130.623C37.7752 130.007 37.1865 129.098 35.9764 129.391C35.5512 129.001 35.1588 128.45 34.6355 128.222C34.1449 128.028 33.4581 128.287 33.0329 127.671C32.6731 127.184 32.1825 126.86 31.4957 126.957C30.4491 127.119 29.5007 126.925 28.8793 125.951C27.9308 125.724 26.9496 125.627 26.3609 124.686C25.3143 124.621 24.5294 124.199 23.8099 123.453C23.4828 123.096 22.6979 123.486 22.1746 122.999C21.128 122.09 21.0953 122.123 20.1141 122.123C19.1002 122.123 19.0675 122.155 18.0536 121.247C17.5303 120.76 16.7781 121.149 16.4183 120.793C15.6988 120.046 14.9139 119.592 13.8673 119.56C13.2786 118.619 12.2974 118.489 11.3489 118.294C10.564 116.997 9.28846 117.321 8.11105 117.289C7.94752 117.289 7.75129 117.159 7.62046 117.029C7.16258 116.445 6.57388 115.958 5.72353 116.153ZM134.061 156.579C132.72 155.866 132.982 154.6 132.949 153.4C132.917 152.816 132.818 152.232 132.786 151.648C131.477 150.869 131.772 149.636 131.739 148.436C131.706 147.105 132.164 145.581 130.627 144.672C130.594 143.277 130.529 141.882 130.529 140.487C130.529 140.032 130.529 139.676 130.202 139.416C129.515 138.897 129.221 138.248 129.286 137.372C129.352 135.75 129.319 134.16 129.286 132.538C129.286 132.375 129.025 132.246 128.926 132.083C128.076 130.883 128.109 130.883 128.076 130.007C128.076 129.196 128.076 128.417 128.043 127.606C126.081 126.373 127.193 124.329 126.735 122.707C126.702 122.545 126.473 122.415 126.31 122.285C125.852 121.863 125.59 121.441 125.59 120.76C125.623 119.787 125.492 118.781 125.46 117.808C123.759 116.672 124.544 114.92 124.413 113.395C124.348 112.584 124.413 111.773 124.38 110.994C124.38 110.832 124.282 110.572 124.151 110.508C122.581 109.534 123.301 108.009 123.17 106.679C123.137 106.257 123.17 105.835 122.843 105.608C121.829 104.959 121.862 103.986 121.927 102.948C121.96 102.331 121.96 101.747 121.927 101.131C121.927 100.969 121.698 100.839 121.6 100.677C120.75 99.4114 120.75 99.4114 120.75 98.6002C120.75 97.3998 120.75 96.1993 120.75 94.9664C118.624 93.5064 119.834 91.3001 119.54 89.4183C119.376 88.2827 118.297 87.9258 117.741 87.1472C117.61 87.2445 117.381 87.3418 117.316 87.5041C117.021 88.4125 116.891 89.3534 116.04 90.0023C115.288 90.5863 114.372 91.2028 114.634 92.4357C113.882 93.7335 111.919 94.2851 112.148 96.2318C111.102 97.3673 109.63 98.2109 109.565 99.9954C108.78 101.066 107.112 101.553 107.341 103.305C106.523 104.181 105.803 105.251 104.822 105.835C103.449 106.647 104.037 108.431 102.729 109.275C101.944 109.761 101.028 110.443 101.257 111.643C100.701 113.071 98.51 113.492 98.8043 115.472C97.6269 116.834 96.0897 117.84 95.1413 119.397C94.9123 121.409 92.9827 122.123 91.9361 123.518C91.8053 123.68 91.609 123.778 91.5109 123.94C91.4455 124.102 91.4455 124.329 91.4782 124.524C91.5763 124.978 91.4128 125.27 91.053 125.562C90.6279 125.919 90.17 126.308 90.2027 127.022C90.2354 127.768 90.726 128.093 91.1512 128.45C92.1651 129.293 92.7865 130.851 94.5199 130.591C95.6973 131.597 96.4822 133.122 98.3138 133.154C98.9025 133.738 99.5239 134.257 100.014 134.874C100.669 135.717 102.042 135.068 102.533 136.139C103.939 137.112 104.593 139.221 106.752 139.124C107.341 139.708 107.995 140.195 108.453 140.844C109.009 141.59 109.957 141.2 110.546 141.687C111.331 142.336 112.017 143.082 112.704 143.796C113.391 144.51 114.013 145.353 115.223 145.061C115.942 145.775 116.629 146.489 117.381 147.203C117.97 147.754 118.918 147.268 119.474 148.046C119.932 148.695 120.586 149.214 121.175 149.766C123.072 149.701 123.792 151.356 124.969 152.329C126.702 152.102 127.291 153.659 128.338 154.47C128.959 154.957 129.875 154.535 130.431 155.314C130.889 155.963 131.543 156.482 132.132 157.034C132.393 157.293 133.44 157.228 133.767 156.871C133.963 156.871 133.996 156.709 134.061 156.579Z"/>
</mask>
<path d="M169.024 134.322C166.473 134.322 164.02 134.322 161.6 134.322C160.488 136.042 158.754 135.425 157.217 135.49C155.582 135.555 153.979 135.49 152.344 135.49C150.708 135.49 149.106 135.49 147.471 135.49C147.274 135.49 147.013 135.49 146.915 135.587C145.541 137.372 143.579 136.528 141.878 136.658C140.275 136.788 138.64 136.691 137.005 136.691C136.383 136.691 135.795 136.691 135.173 136.691C134.585 136.691 134.192 137.177 134.192 137.891C134.192 138.508 134.192 139.092 134.192 139.708C134.192 140.519 134.192 140.519 135.042 141.784C135.141 141.947 135.369 142.076 135.402 142.239C135.435 143.244 135.435 144.25 135.402 145.256C135.369 146.197 136.481 146.392 136.612 147.17C136.71 147.754 136.645 148.371 136.645 148.987C136.645 149.377 136.841 149.701 137.201 149.961C137.365 150.09 137.528 150.22 137.626 150.382C137.724 150.545 137.822 150.707 137.855 150.902C138.051 152.394 137.234 154.146 138.934 155.282C138.967 156.482 139.131 157.683 139.033 158.851C138.934 159.986 139.392 160.732 140.21 161.414C140.472 161.641 140.243 162.679 139.916 163.036C139.556 163.49 138.869 163.717 139.065 164.496C139.098 164.691 139.163 165.015 139.065 165.08C138.182 165.794 137.692 167.124 136.154 166.929C135.893 166.897 135.5 167.351 135.271 167.643C134.977 168.032 134.683 168.097 134.225 168.097C132.688 168.097 132.688 168.13 131.51 168.908C131.347 169.006 131.216 169.265 131.052 169.265C129.842 169.298 128.599 169.363 127.389 169.265C126.473 169.2 125.852 169.525 125.329 170.174C125.067 170.498 124.707 170.531 124.249 170.498C123.661 170.466 123.072 170.563 122.483 170.596C121.535 172.121 120.03 171.634 118.657 171.666C118.035 171.666 117.479 171.764 117.087 172.315C116.694 172.867 116.106 172.932 115.484 172.899C114.667 172.867 113.849 172.802 113.326 173.613C113.064 174.002 112.737 174.132 112.312 174.132C111.494 174.1 110.677 174.197 109.859 174.1C109.139 174.035 108.78 174.489 108.354 174.878C108.224 175.008 108.06 175.268 107.929 175.3C107.112 175.333 106.294 175.333 105.509 175.333C104.659 175.333 104.659 175.333 103.416 176.176C103.252 176.273 103.121 176.533 102.958 176.533C101.944 176.565 100.93 176.598 99.9163 176.533C98.9679 176.501 98.7389 177.604 97.9867 177.733C97.398 177.831 96.7766 177.766 96.1552 177.766C95.73 177.766 95.4683 177.993 95.1413 178.317C94.8796 178.577 94.5526 178.902 94.1928 178.934C93.3752 179.031 92.5575 178.966 91.7726 178.966C90.5625 178.966 89.3196 178.772 88.5674 180.037C87.9787 180.07 87.39 180.199 86.8013 180.167C86.1145 180.102 85.6893 180.459 85.2641 180.881C85.1333 181.043 85.0025 181.27 84.8389 181.302C83.1709 181.659 81.1432 180.654 79.9004 182.6C79.0827 182.6 78.2651 182.6 77.4474 182.6C76.6625 182.6 76.6625 182.6 75.3542 183.444C75.1907 183.541 75.0599 183.768 74.8964 183.768C74.275 183.801 73.6862 183.801 73.0648 183.768C72.051 183.703 71.0698 183.703 70.383 184.677C70.2194 184.904 69.6961 184.936 69.3037 184.969C67.9627 185.131 66.4256 184.417 65.4444 185.975C64.4959 186.396 63.482 186.137 62.4682 186.169C61.814 186.169 61.2907 186.331 60.8983 186.851C60.6366 187.207 60.3096 187.402 59.9171 187.402C59.0994 187.402 58.2818 187.435 57.4642 187.402C57.0063 187.37 56.5811 187.37 56.3849 187.727C55.7307 188.732 54.7169 188.732 53.703 188.635C53.2451 188.603 52.9508 188.7 52.6237 188.992C52.2312 189.381 51.9369 189.933 51.1519 189.868C50.1381 189.771 49.1242 189.868 48.1103 189.835C47.4235 189.835 47.3908 189.771 46.0498 190.744C45.4611 191.166 44.9051 191.003 44.3491 191.068C43.2044 191.166 41.9289 190.711 41.0458 192.009C40.6861 192.528 39.9338 192.269 39.3451 192.301C38.7237 192.301 38.1677 192.334 37.7425 192.885C37.6117 193.048 37.4809 193.21 37.3174 193.307C37.1538 193.404 36.9903 193.469 36.7941 193.502C35.2896 193.696 33.4908 192.885 32.3788 194.605C30.9724 194.637 29.5661 194.735 28.1597 194.702C27.4729 194.702 27.0477 195.027 26.6226 195.448C26.4917 195.578 26.3282 195.87 26.1974 195.87C24.5948 195.903 22.9595 195.935 21.3242 195.935C21.1607 195.935 20.899 195.708 20.899 195.578C20.7682 194.345 20.1141 193.404 19.1656 192.658C18.5115 192.139 18.2172 191.523 18.1844 190.614C18.0863 188.927 18.9694 186.948 17.007 185.65C17.007 184.839 17.007 184.028 17.007 183.249C17.007 182.535 17.007 182.535 16.1567 181.173C16.0586 181.01 15.8296 180.881 15.7969 180.718C15.7642 179.518 15.6988 178.285 15.7969 177.085C15.8623 176.176 15.5026 175.56 14.8485 175.041C14.5214 174.781 14.5541 174.392 14.5214 173.97C14.4233 172.64 15.0774 171.115 13.5729 170.109C13.344 169.947 13.344 169.395 13.344 169.006C13.3113 168.195 13.5729 167.319 13.2786 166.605C12.8534 165.567 11.8395 164.82 12.0685 163.458C12.232 162.484 12.1666 161.446 12.0685 160.44C12.0358 160.116 11.676 159.759 11.3816 159.532C11.0219 159.24 10.8583 158.948 10.891 158.526C10.9238 157.715 10.8583 156.904 10.9238 156.093C10.9565 155.638 10.8256 155.346 10.564 155.022C9.68093 153.822 9.61552 153.789 9.71364 152.978C9.81176 152.102 9.55011 151.421 8.83058 150.902C8.66705 150.804 8.50352 150.61 8.50352 150.447C8.47082 149.441 8.47082 148.436 8.50352 147.43C8.53623 146.424 8.53623 145.451 7.58776 144.769C7.35882 144.607 7.32611 144.088 7.29341 143.699C7.12988 142.368 7.8167 140.844 6.27952 139.87C5.85435 138.929 6.116 137.924 6.08329 136.918C6.08329 136.269 5.88705 135.782 5.39647 135.36C5.23294 135.231 5.0367 135.101 4.97129 134.939C4.87317 134.582 4.87317 134.16 4.80776 133.803C4.51341 132.116 5.5927 130.169 3.66306 128.806C3.46682 128.677 3.59765 128.06 3.59765 127.638C3.56494 126.568 3.56494 126.568 2.78 125.562C2.64918 125.4 2.38753 125.27 2.38753 125.14C2.35482 123.94 2.15859 122.674 2.42024 121.506C2.74729 120.046 1.04659 119.657 1.14471 118.359C1.24283 117.159 1.17741 115.926 1.14471 114.725C1.14471 114.531 1.14471 114.336 1.04659 114.174C0.948474 114.012 0.752239 113.882 0.621415 113.752C-0.35976 112.552 -0.327054 112.13 0.523298 111.254C1.21012 110.508 1.86424 109.826 3.07435 110.021C3.85929 110.151 4.70964 109.988 5.49458 110.053C6.41035 110.151 6.99905 109.761 7.55505 109.145C8.01293 108.626 8.66705 108.885 9.25576 108.853C10.4332 108.788 11.676 109.145 12.5263 107.879C12.8534 107.393 13.6383 107.62 14.227 107.652C14.8812 107.685 15.4045 107.523 15.7969 107.003C15.9277 106.841 16.0586 106.679 16.2221 106.582C16.3856 106.484 16.5819 106.452 16.7781 106.419C18.3153 106.225 20.0814 107.036 21.1934 105.284C22.2073 105.251 23.2211 105.154 24.2023 105.219C24.9219 105.251 25.2816 104.83 25.7068 104.408C25.8703 104.278 26.0011 104.019 26.132 103.986C26.9496 103.954 27.7673 103.954 28.5849 103.954C29.5007 103.954 29.5334 103.986 30.6454 103.078C31.2014 102.623 31.7574 102.786 32.3461 102.753C32.9348 102.721 33.5235 102.851 33.9814 102.267C34.2103 101.975 34.5701 101.618 34.8971 101.585C35.911 101.488 36.9249 101.488 37.9388 101.553C38.9854 101.618 39.9338 101.488 40.5879 100.547C40.6861 100.417 40.915 100.352 41.1112 100.352C42.3214 100.352 43.5642 100.547 44.3164 99.2816C45.3303 99.2491 46.3115 99.1194 47.2926 99.1518C47.9795 99.1842 48.4373 98.8922 48.7971 98.4056C49.0915 98.0487 49.3858 97.8864 49.811 97.9189C50.8249 97.9513 51.8388 97.9189 52.8526 97.9189C54.4879 97.9189 54.7823 97.7242 54.7823 96.4264C54.7823 93.993 54.9458 91.5597 54.7169 89.1587C54.5206 87.0823 55.7635 84.7462 53.7357 82.8969C53.5068 82.7022 53.5395 82.1506 53.5395 81.7937C53.5395 77.9652 53.5068 74.1367 53.5395 70.3082C53.5395 69.6269 53.3105 69.1727 52.8199 68.7833C52.4602 68.4913 52.2966 68.1993 52.2966 67.7775C52.2966 64.5655 52.2639 61.321 52.3293 58.1089C52.3293 57.3951 51.9696 57.0382 51.5444 56.6165C51.4136 56.4867 51.1519 56.3569 51.1192 56.1947C51.0538 55.8053 51.0865 55.3835 51.0865 54.9942C51.0865 51.1657 51.0865 47.3372 51.1192 43.5087C51.1192 43.0545 51.0865 42.73 50.694 42.4705C50.3997 42.2433 49.9418 41.854 49.9745 41.6269C50.0399 41.3024 50.4978 41.0429 50.7595 40.7509C50.8576 40.6535 50.9557 40.3615 50.923 40.3291C49.1569 38.9664 50.0399 37.0197 49.8764 35.3326C49.7456 34.1321 49.8437 32.8992 49.8437 31.6987C49.8437 30.4983 50.0726 29.2654 48.7971 28.4867C48.6663 28.4218 48.6336 28.1298 48.6336 27.9676C48.6336 22.5168 48.6336 17.066 48.6663 11.6477C48.6663 11.3882 49.0915 11.1611 49.3531 10.9015C49.4839 11.0313 49.7456 11.1935 49.7783 11.3233C49.8437 12.7184 49.7783 14.1136 49.9091 15.5087C50.0399 16.8389 49.3204 18.2665 50.6286 19.4345C51.6752 20.3754 50.9557 21.7057 51.0538 22.8737C51.1519 24.2688 51.0865 25.6964 51.0865 27.0915C51.0865 27.8053 51.0538 27.8378 51.9696 29.1356C52.1985 29.4925 52.3293 29.752 52.3293 30.2063C52.2966 33.4183 52.3293 36.6628 52.2966 39.8749C52.2966 40.2966 52.4275 40.6211 52.7872 40.8806C53.2778 41.2375 53.5395 41.6918 53.5395 42.3731C53.474 44.5794 53.4413 46.8181 53.5395 49.0243C53.6049 50.5492 52.8199 52.2688 54.4879 53.4693C54.7169 53.6315 54.7169 54.1831 54.7169 54.5724C54.7496 55.7729 54.7169 57.0058 54.7169 58.2063C54.7169 59.6338 54.7169 61.029 54.7169 62.4565C54.7169 63.657 54.5206 64.8899 55.7962 65.6686C55.927 65.7335 55.927 66.0255 55.9597 66.1877C55.9924 66.3824 55.9597 66.5771 55.9597 66.8042C55.9597 68.8158 55.8616 70.8598 55.9924 72.8389C56.1232 74.5261 55.2075 76.5052 57.1044 77.803C57.1371 80.3986 57.2025 83.0266 57.1371 85.6222C57.1371 86.336 57.4969 86.7254 57.9547 87.0823C58.3145 87.3743 58.4126 87.6663 58.3799 88.1205C58.3472 90.1321 58.3472 92.1437 58.3472 94.1553C58.3472 94.8691 58.7397 95.4206 59.3284 95.3557C60.8656 95.226 62.6317 96.0046 63.7437 94.2526C64.7576 94.2202 65.7387 94.1228 66.7526 94.1877C67.4721 94.2202 67.8319 93.8308 68.2571 93.409C68.3879 93.2793 68.5187 93.0197 68.6823 92.9873C70.383 92.7277 72.378 93.6362 73.6535 91.7219C74.4712 91.7219 75.2888 91.657 76.1065 91.7543C77.0222 91.8517 77.6437 91.5272 78.167 90.8459C78.4286 90.5214 78.7884 90.5214 79.2462 90.5214C80.2601 90.5214 81.2413 90.4566 82.2552 90.4241C83.0074 89.1588 84.2502 89.2236 85.4604 89.3534C86.5396 89.4508 87.4227 89.1912 88.0768 88.2827C88.6655 88.2178 89.2542 88.0881 89.8429 88.1205C90.5298 88.153 90.9876 87.8934 91.3801 87.4067C91.6745 87.0498 91.9688 86.8876 92.394 86.8876C93.6041 86.92 94.8469 86.8552 96.057 86.92C96.5149 86.9525 96.8747 86.92 97.1363 86.5631C97.6596 85.8494 98.3137 85.5898 99.2295 85.6871C100.145 85.752 100.178 85.7196 101.29 84.8436C101.617 84.584 101.911 84.4218 102.369 84.4867C102.958 84.5516 103.579 84.4542 104.201 84.5191C105.117 84.6489 105.738 84.2596 106.261 83.6107C106.523 83.2862 106.915 83.3187 107.341 83.2862C108.681 83.1564 110.219 83.8702 111.2 82.3453C111.298 82.2155 111.527 82.1182 111.69 82.1182C112.312 82.0857 112.901 82.1182 113.522 82.1182C114.372 82.1182 114.34 82.0857 116.138 81.08C116.662 80.7879 117.316 80.7231 117.774 81.2097C118.362 81.8262 118.918 82.2804 119.834 82.1506C119.965 82.1182 120.161 82.3453 120.292 82.4751C120.717 82.9942 120.521 83.6107 120.554 84.1947C120.586 85.3627 120.292 86.5956 121.568 87.4392C121.797 87.5689 121.797 88.1854 121.764 88.5423C121.6 89.6454 122.025 90.4565 122.876 91.1379C122.974 91.2352 123.007 91.4948 122.974 91.6895C122.876 92.3708 123.203 93.0197 123.792 93.0197C128.043 93.0846 132.328 93.0846 136.612 93.0521C137.626 93.0521 137.953 91.6246 139.163 91.8192C140.145 91.9815 141.191 91.8517 142.205 91.8517C142.401 91.8517 142.597 91.8517 142.826 91.8517C143.35 91.8517 143.775 92.4032 143.742 93.117C143.709 95.3882 144.167 95.5504 141.518 95.4855C140.308 95.4531 139.065 95.4855 137.855 95.4855C135.631 95.4855 133.374 95.4855 131.15 95.4855C129.94 95.4855 128.697 95.3233 127.487 95.5504C126.604 95.7126 126.146 97.0104 124.936 96.7509C124.773 96.7184 124.282 97.27 124.282 97.562C124.184 98.5678 124.249 99.5736 124.249 100.579C124.249 100.742 124.315 101.034 124.446 101.098C125.983 102.072 125.46 103.597 125.427 104.927C125.427 105.9 126.31 106.257 126.506 106.906C126.801 107.815 126.702 108.885 126.637 109.859C126.604 110.572 126.964 110.994 127.422 111.351C127.782 111.643 127.913 111.935 127.88 112.389C127.814 112.973 127.88 113.59 127.88 114.206C127.88 115.147 127.847 115.18 128.73 116.283C128.992 116.607 129.09 116.899 129.123 117.353C129.221 118.684 128.534 120.209 130.006 121.214C130.137 121.312 130.3 121.506 130.3 121.669C130.333 122.48 130.3 123.291 130.333 124.102C130.365 125.27 130.071 126.438 131.281 127.379C131.935 127.866 131.576 128.904 131.51 129.65C131.445 130.721 131.706 131.564 132.557 132.278C132.786 132.473 132.622 133.057 132.753 133.381C132.884 133.706 133.211 134.192 133.473 134.192C136.318 134.225 139.131 134.16 141.976 134.127C143.546 132.213 145.704 133.284 147.601 132.992C149.302 132.732 151.232 133.673 152.704 131.986C152.9 131.759 153.423 131.791 153.816 131.791C155.026 131.759 156.268 131.694 157.479 131.791C158.591 131.889 159.31 131.402 160.128 130.721C160.782 130.169 161.665 130.559 162.156 131.305C162.483 131.824 162.744 131.856 163.039 131.402C163.856 130.072 165.23 130.786 166.342 130.526C166.505 130.494 166.669 130.267 166.767 130.104C166.8 130.007 166.734 129.812 166.636 129.683C166.276 129.228 165.622 128.969 165.688 128.255C165.72 128.06 165.688 127.866 165.688 127.638C165.688 125.432 165.819 123.194 165.655 120.987C165.524 119.105 166.604 116.932 164.478 115.407C164.38 115.342 164.478 115.017 164.478 114.823C164.478 113.622 164.478 112.389 164.478 111.189C164.478 109.988 164.478 108.756 164.478 107.555C164.478 106.355 164.38 105.122 164.51 103.921C164.641 102.623 164.314 101.585 163.268 100.806C163.268 99.9954 163.268 99.1842 163.268 98.3731C163.268 94.3499 163.268 90.2943 163.268 86.2711C163.268 85.8818 163.398 85.3302 163.169 85.1356C162.384 84.3893 161.763 83.7729 163.039 82.9618C163.104 82.9293 163.104 82.6373 163.039 82.5724C162.45 82.0209 161.992 81.4693 162.025 80.5608C162.09 76.7323 162.025 72.9038 162.057 69.0753C162.057 68.394 161.796 67.9398 161.305 67.5829C160.945 67.2908 160.815 66.9988 160.815 66.5771C160.847 62.1321 160.815 57.7196 160.847 53.2746C160.847 52.5608 160.455 52.1715 160.03 51.8146C159.67 51.5226 159.604 51.2306 159.604 50.7764C159.637 46.9479 159.637 43.1194 159.637 39.2908C159.637 38.9015 159.801 38.2526 159.604 38.1228C157.936 36.9873 158.46 35.2677 158.427 33.7428C158.394 31.9258 158.427 30.1089 158.427 28.292C158.427 26.6698 158.427 25.08 158.427 23.4577C158.427 23.263 158.427 23.0684 158.427 22.8413C158.492 21.8355 158.46 20.8621 157.511 20.1808C157.282 20.0185 157.217 19.467 157.217 19.1101C157.184 14.2758 157.217 9.44148 157.217 4.60718C157.217 3.99073 156.759 3.60139 156.04 3.60139C151.559 3.60139 147.111 3.60139 142.63 3.60139C142.172 3.60139 141.878 3.66628 141.551 4.02317C141.158 4.44496 140.831 4.86674 140.079 4.86674C136.612 4.80185 133.178 4.8343 129.711 4.8343C129.319 4.8343 128.697 4.70452 128.534 4.89919C127.357 6.58633 125.623 5.93743 124.119 6.03476C122.483 6.09965 120.881 6.06721 119.245 6.06721C117.61 6.06721 116.008 6.06721 114.372 6.06721C113.98 6.06721 113.555 6.06721 113.162 6.06721C112.966 6.06721 112.704 6.06721 112.606 6.19699C111.461 7.91657 109.695 7.17034 108.158 7.26767C106.752 7.36501 105.313 7.30012 103.906 7.30012C101.879 7.30012 99.8509 7.30012 97.8232 7.30012C97.4307 7.30012 96.9074 7.26767 96.7112 7.49479C95.2394 9.14948 93.3425 8.33836 91.6091 8.46813C89.7775 8.59791 87.946 8.40324 86.1145 8.53302C84.4138 8.6628 82.4514 7.78679 81.0778 9.60371C80.9797 9.70104 80.718 9.70104 80.5218 9.70104C79.0827 9.70104 77.6764 9.70104 76.2373 9.70104C74.602 9.70104 72.9994 9.70104 71.3641 9.70104C69.9905 9.70104 68.5187 9.40904 67.5703 10.9015C67.5049 10.9988 67.1778 10.934 66.9816 10.934C61.9122 10.934 56.81 10.934 51.7406 10.9015C51.6098 10.9015 51.4136 10.6744 51.3155 10.5122C51.1519 10.2202 51.3482 9.86327 51.806 9.73349C52.362 9.60371 52.9835 9.83082 53.4413 9.24681C53.6703 8.95481 54.03 8.56547 54.3571 8.53302C56.1886 8.46813 58.0202 8.56547 59.8517 8.46813C61.1926 8.40324 62.7298 9.05214 63.7437 7.52723C63.9072 7.30012 64.4632 7.30012 64.823 7.30012C65.8369 7.26767 66.8507 7.30012 67.8646 7.30012C69.0747 7.30012 70.3176 7.30012 71.5277 7.30012C72.7378 7.30012 73.9806 7.49479 74.7655 6.26188C74.831 6.1321 75.1253 6.1321 75.2888 6.09965C75.6813 6.06721 76.1065 6.09965 76.499 6.09965C78.5267 6.09965 80.5872 6.19699 82.5822 6.06721C84.4792 5.93743 86.6378 6.87833 88.2403 4.99652C88.4039 4.80185 88.9926 4.89919 89.385 4.89919C93.2443 4.89919 97.1036 4.86674 100.963 4.93163C101.682 4.93163 102.042 4.54229 102.467 4.12051C102.631 3.99073 102.729 3.79606 102.893 3.69873C103.056 3.63384 103.285 3.66628 103.481 3.66628C105.705 3.66628 107.962 3.66628 110.186 3.66628C111.396 3.66628 112.672 3.47161 113.849 3.73117C115.321 4.05562 115.746 2.36848 117.021 2.46582C118.035 2.53071 119.049 2.46582 120.063 2.46582C121.273 2.46582 122.516 2.46582 123.726 2.46582C124.936 2.46582 126.146 2.43337 127.357 2.36848C127.52 2.36848 127.651 2.10892 127.782 1.9467C128.207 1.49247 128.632 1.20046 129.319 1.20046C133.374 1.23291 137.463 1.23291 141.518 1.23291C141.911 1.23291 142.205 1.00579 142.499 0.681344C142.761 0.421784 143.121 0.0648899 143.448 0.0648899C147.928 0 152.18 0 156.465 0C156.628 0 156.89 0.0973349 156.988 0.227115C157.577 0.973349 158.689 1.36269 158.623 2.5956C158.558 3.63384 160.095 3.92584 159.866 5.1263C159.735 5.90498 159.768 6.74855 159.866 7.52723C159.899 7.85168 160.259 8.17613 160.455 8.50058C160.651 8.82503 161.044 9.14948 161.044 9.47393C161.076 13.1078 161.076 16.7416 161.076 20.3754C161.076 20.7323 161.109 21.2839 161.338 21.4461C162.646 22.2897 162.254 23.555 162.254 24.7231C162.286 27.7404 162.286 30.7578 162.254 33.8076C162.254 34.5214 162.581 34.9432 163.039 35.3001C163.398 35.5921 163.496 35.8841 163.496 36.3384C163.464 39.5504 163.496 42.7949 163.496 46.007C163.496 46.2016 163.431 46.5261 163.496 46.591C164.936 47.5319 164.739 48.927 164.707 50.3546C164.674 51.9768 164.707 53.5666 164.707 55.1889C164.707 56.6165 164.707 58.0116 164.707 59.4392C164.707 59.6338 164.674 59.9583 164.772 60.0232C166.505 61.1263 165.851 62.8783 165.917 64.4032C165.982 66.0255 165.851 67.6477 165.949 69.2375C166.015 70.5678 165.361 72.0927 166.898 73.0985C167.127 73.2607 167.127 73.8123 167.16 74.1692C167.192 76.1808 166.996 78.2248 167.225 80.2039C167.454 82.2804 166.146 84.6489 168.239 86.4334C168.37 86.5307 168.402 86.7903 168.402 86.9525C168.435 87.5689 168.402 88.153 168.402 88.7694C168.402 90.781 168.304 92.825 168.435 94.8042C168.533 96.4913 167.683 98.438 169.514 99.8007C169.612 99.898 169.612 100.158 169.612 100.352C169.612 101.78 169.612 103.175 169.612 104.603C169.612 106.225 169.612 107.815 169.612 109.437C169.612 110.8 169.318 112.26 170.823 113.2C170.921 113.265 170.855 113.59 170.855 113.784C170.855 114.596 170.855 115.407 170.855 116.218C170.855 119.657 170.823 123.064 170.888 126.503C170.888 126.795 171.411 127.087 171.706 127.379C171.836 127.509 172.065 127.671 172.065 127.833C172.098 128.839 172.065 129.845 172.098 130.851C172.098 131.305 171.935 131.564 171.608 131.889C170.659 132.603 169.841 133.511 169.024 134.322ZM27.6364 192.464C28.5195 192.366 29.3044 192.301 30.0894 192.236C30.8416 190.971 32.1171 191.198 33.2945 191.198C33.4581 191.198 33.687 191.101 33.7851 190.971C34.4393 189.998 35.3877 189.933 36.4343 189.998C37.0557 190.03 37.6444 190.03 38.2658 189.998C38.4294 189.998 38.6583 189.835 38.7237 189.706C39.3778 188.667 40.3917 188.732 41.4056 188.83C41.8635 188.862 42.1578 188.732 42.4849 188.473C43.5315 187.597 43.5642 187.629 44.5454 187.629C45.3957 187.629 45.4284 187.662 46.6058 186.753C47.1618 186.331 47.7178 186.461 48.3065 186.429C48.8952 186.396 49.4839 186.494 49.9418 185.91C50.3016 185.423 50.7922 185.131 51.479 185.196C52.2966 185.261 53.1143 185.261 53.8992 185.196C54.2263 185.163 54.6187 184.904 54.8477 184.644C55.3056 184.158 55.7962 183.995 56.4176 184.028C57.0063 184.06 57.7912 184.287 58.1183 183.801C59.0013 182.568 60.2114 182.892 61.3889 182.827C61.9776 182.795 62.6971 183.054 63.0896 182.535C63.8091 181.562 64.7576 181.562 65.7714 181.627C66.3929 181.659 66.9816 181.659 67.603 181.627C67.7665 181.627 67.8973 181.4 68.0609 181.302C69.3037 180.459 69.3037 180.426 70.7427 180.459C71.2006 180.459 71.5277 180.426 71.7893 180.005C72.2799 179.226 73.0321 179.129 73.8825 179.194C74.275 179.226 74.8964 179.323 75.0272 179.129C76.0084 177.669 77.4801 178.058 78.8538 178.025C79.4752 177.993 80.0639 178.025 80.6853 178.025C81.1105 178.025 81.4048 177.831 81.6665 177.474C82.0589 176.955 82.5495 176.793 83.2037 176.793C84.1848 176.793 85.1987 177.02 86.1799 176.63C86.9321 175.333 88.2403 175.657 89.4178 175.592C89.5813 175.592 89.8429 175.462 89.9083 175.333C90.4316 174.262 91.6745 174.619 92.4267 174.067C92.8846 173.743 93.1135 173.126 93.8985 173.159C95.1086 173.224 96.3514 173.126 97.5615 173.191C98.3137 173.256 98.6408 172.737 99.0333 172.315C99.3276 171.991 99.622 171.893 100.113 171.926C101.126 172.023 102.14 172.088 102.794 171.05C103.023 170.693 103.416 170.693 103.874 170.725C105.084 170.758 106.294 170.725 107.537 170.758C107.962 170.758 108.289 170.596 108.518 170.206C109.041 169.428 109.859 169.492 110.677 169.525C111.298 169.557 111.821 169.428 112.279 168.941C112.508 168.681 112.901 168.389 113.228 168.357C114.241 168.292 115.288 168.454 116.269 168.292C116.76 168.195 117.152 167.416 117.643 167.286C118.395 167.092 119.213 167.189 120.03 167.124C120.194 167.124 120.423 166.962 120.488 166.832C121.306 165.502 122.647 166.053 123.792 165.924C124.348 165.859 124.904 166.053 125.492 165.567C126.572 164.658 126.604 164.723 127.553 164.723C128.37 164.723 129.188 164.723 129.973 164.691C130.137 164.691 130.3 164.431 130.398 164.269C131.085 163.231 132.164 163.555 133.113 163.523C133.832 163.49 134.552 162.419 134.192 161.835C133.996 161.543 133.603 161.089 133.374 161.122C132.001 161.446 131.576 159.532 130.202 159.856C129.744 159.499 129.253 159.175 128.828 158.786C128.076 158.104 127.389 157.358 126.67 156.644C125.819 155.833 125.165 154.73 123.726 154.925C123.137 154.341 122.483 153.854 122.025 153.205C121.469 152.459 120.521 152.816 119.932 152.362C119.147 151.713 118.461 150.966 117.774 150.253C117.087 149.539 116.465 148.695 115.255 148.987C114.405 148.144 113.391 147.365 112.704 146.392C111.952 145.289 110.513 145.613 109.728 144.705C108.91 143.796 107.995 143.017 107.177 142.141C106.49 141.395 105.28 141.914 104.626 140.908C103.972 139.903 102.958 139.156 102.075 138.313C101.944 138.183 101.715 138.086 101.552 138.118C99.4585 138.378 99.2295 135.263 97.0709 135.685C96.1879 134.841 95.1086 134.16 94.5199 133.154C93.7022 131.791 92.0015 132.311 91.053 131.078C89.2542 128.742 88.6328 129.326 86.8667 131.207C86.2126 131.889 85.166 132.408 85.3949 133.608C84.8717 134.192 84.4792 134.971 83.8251 135.36C82.7785 135.977 83.2037 137.145 82.5822 137.891C81.3394 139.351 79.3117 140.26 79.1154 142.498C78.1015 143.439 77.055 144.38 76.0411 145.353C74.831 145.353 73.6208 145.353 72.378 145.353C71.9855 145.353 71.5931 145.321 71.2333 145.191C71.0698 145.159 70.939 144.932 70.8081 144.769C70.0232 143.829 68.4533 144.283 67.8646 143.05C67.2759 142.985 66.6872 142.985 66.0985 142.888C65.7387 142.823 65.2481 142.823 65.0192 142.596C64.4305 142.012 63.8745 141.492 62.9587 141.687C62.5009 141.298 62.1411 140.779 61.6178 140.519C61.1272 140.292 60.4077 140.714 59.9825 140.065C59.4919 139.286 58.7397 139.189 57.8893 139.254C57.039 139.319 57.039 139.254 55.8289 138.345C55.5018 138.086 55.3056 138.183 54.9458 138.605C54.259 139.319 53.4086 139.935 53.6703 141.103C53.2124 141.687 52.362 142.044 52.4602 143.017C52.5583 143.926 51.2173 144.185 51.3155 144.932C51.4463 146.132 50.0399 146.554 50.1053 147.462C50.2035 148.793 48.4046 149.214 48.8298 150.577C48.3719 151.388 47.2599 151.907 47.6197 153.108C47.2272 153.53 46.8021 153.984 46.4096 154.406C46.7039 155.606 45.8536 156.255 45.1013 156.871C44.2837 157.553 43.8912 158.364 43.8258 159.37C42.8774 159.921 42.9428 161.024 42.4849 161.835C42.0924 162.484 41.6018 163.003 41.471 163.847C41.3402 164.723 39.9665 165.177 40.3263 166.378C39.9338 166.8 39.5087 167.254 39.1162 167.676C39.4759 168.876 38.4621 169.428 37.9061 170.206C38.3967 171.601 36.467 172.023 36.6632 173.321C36.6959 173.613 36.3689 174.002 36.1072 174.294C35.5512 174.878 34.7009 175.365 34.472 176.046C34.1449 176.987 33.9814 177.896 33.0983 178.512C33.0983 179.323 33.0002 180.102 32.248 180.556C31.5611 180.978 32.019 181.692 31.7901 182.178C31.463 182.86 30.4491 183.119 30.58 184.125C30.6127 184.32 30.6127 184.579 30.5145 184.677C29.9585 185.261 29.4353 185.91 28.7811 186.364C27.8654 187.013 28.4214 188.246 27.5383 188.895C26.6226 189.608 27.015 191.166 25.8049 191.782C25.903 191.912 25.9684 192.172 26.0993 192.204C26.5571 192.269 27.1458 192.366 27.6364 192.464ZM73.0975 141.557C73.2938 141.557 73.5881 141.655 73.6863 141.557C74.3077 141.038 74.8964 140.519 75.4524 139.935C76.1392 139.254 77.1204 138.735 76.8587 137.502C77.5455 136.139 79.5733 135.62 79.3444 133.673C79.9331 133.089 80.4237 132.44 81.0778 131.986C82.0262 131.37 81.4375 130.104 82.3533 129.455C83.0074 129.001 83.5307 128.352 84.0867 127.768C84.7735 127.087 85.722 126.503 85.4277 125.302C86.3434 124.07 88.0768 123.388 87.9787 121.506C88.5674 120.922 89.058 120.273 89.7121 119.819C90.497 119.268 90.0392 118.294 90.5625 117.743C91.2493 116.997 91.9688 116.283 92.721 115.601C93.4733 114.92 94.1928 114.239 93.9966 113.103C95.0432 111.968 96.5149 111.124 96.5803 109.34C97.169 108.756 97.725 108.204 98.3138 107.62C98.7389 107.198 99.0987 106.679 99.622 106.355C100.472 105.835 99.7855 104.895 100.44 104.246C101.781 102.883 103.743 101.91 103.939 99.6385C104.724 98.5678 106.359 98.0811 106.229 96.3291C106.196 96.0695 106.719 95.7451 106.981 95.4531C108.06 94.0904 109.924 93.3117 109.99 91.2677C110.709 90.5539 111.429 89.8401 112.148 89.1263C112.41 88.8343 112.345 87.861 112.017 87.5041C111.723 87.1796 110.742 87.0498 110.382 87.3094C110.219 87.4067 110.088 87.6014 109.957 87.7312C109.826 87.8609 109.695 88.0556 109.532 88.153C108.583 88.6721 107.537 88.4774 106.588 88.3476C105.215 88.153 104.79 89.9374 103.416 89.613C102.827 89.4832 102.206 89.5481 101.584 89.613C101.225 89.6454 100.669 89.6454 100.505 89.8725C99.4584 91.3975 97.9213 90.6512 96.613 90.781C96.1879 90.8134 95.7954 90.781 95.5338 91.1379C95.0105 91.8192 94.3563 92.1437 93.4733 92.0464C92.8846 91.9815 92.2632 92.0788 91.6418 92.0139C91.1839 91.949 90.9222 92.1112 90.5625 92.4032C89.5159 93.2793 89.4832 93.2468 88.4693 93.2468C87.6516 93.2468 86.8667 93.2793 86.0491 93.2793C85.1333 94.7717 83.6615 94.4473 82.2879 94.4473C81.6665 94.4473 81.0778 94.4473 80.4564 94.4473C80.0312 94.4473 79.7368 94.6095 79.4425 94.9664C79.05 95.4531 78.5594 95.7126 77.9053 95.6802C77.3166 95.6477 76.7279 95.7775 76.1392 95.8424C75.3542 97.1402 74.1114 96.8482 72.9013 96.8807C72.3126 96.8807 71.5931 96.6535 71.2006 97.1402C70.4811 98.0487 69.5653 98.146 68.5187 98.0811C67.5049 98.0487 66.491 98.0487 65.4771 98.0811C65.3136 98.0811 65.1173 98.2433 65.0192 98.4056C64.3651 99.4438 63.3512 99.3789 62.3373 99.2816C61.8794 99.2491 61.5851 99.3465 61.258 99.6709C60.8656 100.093 60.5385 100.612 59.7863 100.514C58.9686 100.417 58.151 100.514 57.366 100.482C56.9082 100.45 56.6138 100.579 56.3195 100.936C55.9597 101.391 55.5345 101.78 54.815 101.715C53.9973 101.65 53.1797 101.747 52.3948 101.683C51.3482 101.618 50.5305 101.812 49.7129 102.623C48.9606 103.337 47.7505 102.98 46.8021 102.883C45.4284 102.688 45.0032 104.473 43.6296 104.148C43.0409 104.019 42.4195 104.083 41.7981 104.148C41.4383 104.181 40.8823 104.181 40.7188 104.408C39.6722 105.933 38.135 105.187 36.8268 105.316C36.4016 105.349 36.0091 105.316 35.7475 105.673C35.2242 106.387 34.5701 106.647 33.687 106.582C32.4769 106.484 31.2341 106.549 30.024 106.582C29.8604 106.582 29.7296 106.841 29.5661 106.971C28.4214 107.782 28.4214 107.782 27.4729 107.782C27.0804 107.782 26.6553 107.847 26.2628 107.782C25.347 107.652 24.791 108.074 24.1696 108.658C23.352 109.404 22.2073 109.08 21.2915 108.95C19.8852 108.723 19.46 110.475 18.119 110.248C17.5303 110.151 16.9089 110.216 16.2875 110.248C15.5026 110.28 14.7176 110.378 13.9327 110.41C12.9842 111.935 11.447 111.319 10.1061 111.448C9.90987 111.481 9.68093 111.416 9.4847 111.448C9.32117 111.481 9.05952 111.578 8.99411 111.708C8.17646 113.038 6.86823 112.552 5.72353 112.681C5.26564 112.746 5.0367 113.103 5.13482 113.395C5.16753 113.557 5.39647 113.752 5.56 113.817C6.116 113.979 6.77011 113.622 7.19529 114.271C7.71858 115.017 8.43811 115.18 9.28846 115.115C10.0407 115.05 10.0734 115.082 11.3489 116.023C11.8722 116.413 12.559 116.121 12.9842 116.445C13.6056 116.899 13.9981 117.613 14.9793 117.548C15.6334 117.516 15.895 118.262 16.3856 118.554C17.0397 118.911 17.9882 118.619 18.4461 119.43C18.675 119.819 19.0348 119.981 19.46 119.949C19.8524 119.917 20.2776 119.949 20.6701 119.949C20.8663 119.949 21.128 119.852 21.2588 119.949C21.7167 120.306 22.1091 120.825 22.6324 121.085C23.123 121.344 23.8426 120.922 24.2677 121.539C24.7583 122.285 25.5106 122.447 26.3609 122.35C27.0804 122.285 27.0804 122.35 28.4214 123.226C28.5849 123.323 28.7484 123.518 28.912 123.518C29.5007 123.55 30.1221 123.486 30.5145 124.07C31.0051 124.881 31.9536 124.556 32.575 124.946C32.9021 125.14 33.131 125.692 33.4581 125.757C34.2103 125.919 35.028 125.854 35.8129 125.984C36.5978 126.114 36.8268 127.249 37.7425 127.152C38.2004 127.119 38.4948 127.217 38.8218 127.476C39.9665 128.352 39.9665 128.352 40.8823 128.352C41.8962 128.352 41.9289 128.352 42.9428 129.196C43.2698 129.488 43.5642 129.618 44.0221 129.553C45.0359 129.455 46.0498 129.423 46.7039 130.429C46.8021 130.559 46.9983 130.721 47.1618 130.721C47.7505 130.753 48.3719 130.688 48.7644 131.305C49.255 132.116 50.2035 131.791 50.8249 132.181C51.1519 132.375 51.3809 132.927 51.7079 132.992C52.4602 133.154 53.2778 133.089 54.0628 133.187C54.8477 133.316 55.0766 134.452 55.9924 134.355C56.4503 134.322 56.7446 134.419 57.0717 134.711C58.1837 135.587 58.2164 135.587 59.1322 135.587C60.1787 135.587 60.2114 135.555 61.1926 136.431C61.7159 136.918 62.4682 136.528 62.8279 136.885C63.5474 137.632 64.3324 138.118 65.379 138.118C65.9677 139.059 66.9489 139.189 67.8973 139.416C68.6823 140.714 69.9578 140.357 71.1352 140.454C71.4623 140.487 71.822 140.844 72.051 141.136C72.378 141.428 72.6724 141.622 73.0975 141.557ZM5.72353 116.153C5.42917 116.153 5.23294 116.185 5.0367 116.153C4.57882 116.056 4.21906 116.153 3.95741 116.51C3.72847 116.802 3.82659 117.061 4.28447 117.386C4.84047 117.743 4.93859 118.294 4.93859 118.943C4.93859 119.527 4.70964 120.241 5.16753 120.63C6.08329 121.344 6.21411 122.22 6.1487 123.258C6.116 123.842 6.116 124.459 6.1487 125.075C6.1487 125.238 6.27952 125.465 6.44305 125.562C7.91482 126.568 7.22799 128.093 7.32611 129.423C7.35882 129.877 7.45693 130.169 7.68588 130.494C8.56893 131.694 8.56893 131.727 8.56893 132.538C8.56893 132.927 8.56893 133.349 8.56893 133.738C8.56893 134.647 8.53623 134.647 9.45199 135.782C9.71364 136.107 9.84446 136.399 9.81176 136.853C9.71364 137.859 9.71364 138.832 10.7275 139.513C11.0546 139.74 11.0546 140.162 11.0219 140.584C10.9892 141.395 11.0219 142.206 11.0219 142.985C11.0219 143.374 11.2181 143.699 11.5779 143.958C12.1012 144.348 12.232 144.867 12.2647 145.483C12.2974 146.457 11.8395 147.625 12.4936 148.371C13.2132 149.182 13.5729 149.961 13.4748 151.031C13.3767 152.232 13.344 153.432 14.5868 154.178C14.6195 155.184 14.6849 156.158 14.6522 157.163C14.6522 157.618 14.7503 157.91 14.9793 158.234C15.9277 159.629 15.895 159.662 15.895 160.278C15.895 161.154 15.8623 161.154 16.7454 162.322C17.007 162.647 17.1379 162.939 17.1379 163.393C17.0725 164.593 17.1379 165.794 17.1052 167.027C17.1052 167.481 17.2033 167.773 17.5957 168.032C18.3807 168.552 18.4134 169.33 18.348 170.141C18.3153 170.531 18.2499 171.147 18.4788 171.277C19.9833 172.25 19.4927 173.743 19.5581 175.073C19.5908 175.689 19.4927 176.306 19.5908 176.89C19.6562 177.247 19.9179 177.604 20.1795 177.831C20.6701 178.285 20.8009 178.772 20.8009 179.388C20.8009 179.972 20.5393 180.686 21.0626 181.075C21.9783 181.789 22.1091 182.698 22.011 183.703C21.9783 184.32 21.9783 184.904 22.011 185.52C22.011 185.682 22.1746 185.91 22.3054 185.975C23.352 186.623 23.2866 187.629 23.1884 188.635C23.1557 189.089 23.1884 189.446 23.5809 189.673C23.8753 189.868 24.1369 189.706 24.464 189.284C24.8237 188.83 25.2489 188.408 25.6414 187.954C25.3143 186.753 26.4917 186.299 26.8515 185.423C26.5244 184.222 28.0943 183.833 28.0289 182.925C27.9308 181.594 29.7296 181.173 29.3044 179.81C29.7623 178.999 30.8743 178.48 30.5145 177.279C31.136 176.533 32.0517 175.949 31.7574 174.781C32.1498 174.327 32.7058 173.97 32.9348 173.451C33.131 172.932 32.8694 172.283 33.4908 171.861C33.9814 171.504 34.3084 171.017 34.2103 170.336C34.0468 169.298 34.243 168.357 35.2242 167.74C35.4531 166.8 35.584 165.826 36.4997 165.242C36.5324 164.204 36.9903 163.425 37.7425 162.711C38.1023 162.387 37.6117 161.543 38.2004 161.122C38.9199 160.603 39.2143 159.921 39.0508 159.045C39.4432 158.623 39.9992 158.234 40.2282 157.715C40.4571 157.228 40.1301 156.514 40.7842 156.125C41.5691 155.638 41.471 154.795 41.6345 154.049C42.583 153.465 42.5503 152.394 42.9755 151.583C43.3352 150.934 43.8912 150.447 43.9894 149.571C44.0875 148.695 45.4284 148.241 45.1995 147.041C45.1668 146.813 45.6246 146.392 45.9517 146.165C46.6058 145.71 46.1806 145.029 46.4096 144.542C46.7039 143.861 47.7505 143.601 47.6197 142.628C47.4889 141.557 49.1242 141.298 48.8298 140.097C48.7317 139.708 49.0261 139.416 49.3531 139.124C49.9745 138.605 50.5305 138.021 51.0865 137.437C51.5771 136.918 51.2173 135.652 50.4978 135.49C49.9418 135.36 49.3204 135.555 48.8952 134.971C48.5355 134.484 48.0449 134.16 47.3581 134.257C46.3115 134.419 45.4284 134.16 44.7089 133.251C43.9566 132.278 43.0736 131.499 41.6672 131.824C41.2094 131.921 40.8169 131.856 40.5879 131.532C40.0647 130.851 39.4432 130.461 38.5275 130.623C37.7752 130.007 37.1865 129.098 35.9764 129.391C35.5512 129.001 35.1588 128.45 34.6355 128.222C34.1449 128.028 33.4581 128.287 33.0329 127.671C32.6731 127.184 32.1825 126.86 31.4957 126.957C30.4491 127.119 29.5007 126.925 28.8793 125.951C27.9308 125.724 26.9496 125.627 26.3609 124.686C25.3143 124.621 24.5294 124.199 23.8099 123.453C23.4828 123.096 22.6979 123.486 22.1746 122.999C21.128 122.09 21.0953 122.123 20.1141 122.123C19.1002 122.123 19.0675 122.155 18.0536 121.247C17.5303 120.76 16.7781 121.149 16.4183 120.793C15.6988 120.046 14.9139 119.592 13.8673 119.56C13.2786 118.619 12.2974 118.489 11.3489 118.294C10.564 116.997 9.28846 117.321 8.11105 117.289C7.94752 117.289 7.75129 117.159 7.62046 117.029C7.16258 116.445 6.57388 115.958 5.72353 116.153ZM134.061 156.579C132.72 155.866 132.982 154.6 132.949 153.4C132.917 152.816 132.818 152.232 132.786 151.648C131.477 150.869 131.772 149.636 131.739 148.436C131.706 147.105 132.164 145.581 130.627 144.672C130.594 143.277 130.529 141.882 130.529 140.487C130.529 140.032 130.529 139.676 130.202 139.416C129.515 138.897 129.221 138.248 129.286 137.372C129.352 135.75 129.319 134.16 129.286 132.538C129.286 132.375 129.025 132.246 128.926 132.083C128.076 130.883 128.109 130.883 128.076 130.007C128.076 129.196 128.076 128.417 128.043 127.606C126.081 126.373 127.193 124.329 126.735 122.707C126.702 122.545 126.473 122.415 126.31 122.285C125.852 121.863 125.59 121.441 125.59 120.76C125.623 119.787 125.492 118.781 125.46 117.808C123.759 116.672 124.544 114.92 124.413 113.395C124.348 112.584 124.413 111.773 124.38 110.994C124.38 110.832 124.282 110.572 124.151 110.508C122.581 109.534 123.301 108.009 123.17 106.679C123.137 106.257 123.17 105.835 122.843 105.608C121.829 104.959 121.862 103.986 121.927 102.948C121.96 102.331 121.96 101.747 121.927 101.131C121.927 100.969 121.698 100.839 121.6 100.677C120.75 99.4114 120.75 99.4114 120.75 98.6002C120.75 97.3998 120.75 96.1993 120.75 94.9664C118.624 93.5064 119.834 91.3001 119.54 89.4183C119.376 88.2827 118.297 87.9258 117.741 87.1472C117.61 87.2445 117.381 87.3418 117.316 87.5041C117.021 88.4125 116.891 89.3534 116.04 90.0023C115.288 90.5863 114.372 91.2028 114.634 92.4357C113.882 93.7335 111.919 94.2851 112.148 96.2318C111.102 97.3673 109.63 98.2109 109.565 99.9954C108.78 101.066 107.112 101.553 107.341 103.305C106.523 104.181 105.803 105.251 104.822 105.835C103.449 106.647 104.037 108.431 102.729 109.275C101.944 109.761 101.028 110.443 101.257 111.643C100.701 113.071 98.51 113.492 98.8043 115.472C97.6269 116.834 96.0897 117.84 95.1413 119.397C94.9123 121.409 92.9827 122.123 91.9361 123.518C91.8053 123.68 91.609 123.778 91.5109 123.94C91.4455 124.102 91.4455 124.329 91.4782 124.524C91.5763 124.978 91.4128 125.27 91.053 125.562C90.6279 125.919 90.17 126.308 90.2027 127.022C90.2354 127.768 90.726 128.093 91.1512 128.45C92.1651 129.293 92.7865 130.851 94.5199 130.591C95.6973 131.597 96.4822 133.122 98.3138 133.154C98.9025 133.738 99.5239 134.257 100.014 134.874C100.669 135.717 102.042 135.068 102.533 136.139C103.939 137.112 104.593 139.221 106.752 139.124C107.341 139.708 107.995 140.195 108.453 140.844C109.009 141.59 109.957 141.2 110.546 141.687C111.331 142.336 112.017 143.082 112.704 143.796C113.391 144.51 114.013 145.353 115.223 145.061C115.942 145.775 116.629 146.489 117.381 147.203C117.97 147.754 118.918 147.268 119.474 148.046C119.932 148.695 120.586 149.214 121.175 149.766C123.072 149.701 123.792 151.356 124.969 152.329C126.702 152.102 127.291 153.659 128.338 154.47C128.959 154.957 129.875 154.535 130.431 155.314C130.889 155.963 131.543 156.482 132.132 157.034C132.393 157.293 133.44 157.228 133.767 156.871C133.963 156.871 133.996 156.709 134.061 156.579Z" fill="black" stroke="white" stroke-width="0.8" mask="url(#path-1-inside-1)"/>
</svg>
