<svg width="142" height="142" viewBox="0 0 142 142" fill="none" xmlns="http://www.w3.org/2000/svg">
<g filter="url(#filter0_dd)">
<circle cx="71" cy="64" r="46" fill="#EB9700"/>
<path d="M83.649 65.9241L65.4726 78.0416C65.3435 78.1276 65.1935 78.1769 65.0386 78.1843C64.8836 78.1917 64.7296 78.1569 64.5929 78.0837C64.4561 78.0105 64.3418 77.9016 64.2621 77.7686C64.1824 77.6355 64.1402 77.4833 64.1401 77.3282V53.0931C64.1402 52.938 64.1824 52.7858 64.2621 52.6528C64.3418 52.5197 64.4561 52.4108 64.5929 52.3376C64.7296 52.2644 64.8836 52.2297 65.0386 52.2371C65.1935 52.2445 65.3435 52.2938 65.4726 52.3797L83.649 64.4973C83.7664 64.5756 83.8627 64.6817 83.9293 64.8061C83.9959 64.9306 84.0307 65.0695 84.0307 65.2107C84.0307 65.3518 83.9959 65.4908 83.9293 65.6152C83.8627 65.7397 83.7664 65.8458 83.649 65.9241Z" fill="white"/>
</g>
<defs>
<filter id="filter0_dd" x="0" y="0" width="142" height="142" filterUnits="userSpaceOnUse" color-interpolation-filters="sRGB">
<feFlood flood-opacity="0" result="BackgroundImageFix"/>
<feColorMatrix in="SourceAlpha" type="matrix" values="0 0 0 0 0 0 0 0 0 0 0 0 0 0 0 0 0 0 127 0"/>
<feOffset dy="4"/>
<feGaussianBlur stdDeviation="6"/>
<feColorMatrix type="matrix" values="0 0 0 0 0 0 0 0 0 0 0 0 0 0 0 0 0 0 0.03 0"/>
<feBlend mode="normal" in2="BackgroundImageFix" result="effect1_dropShadow"/>
<feColorMatrix in="SourceAlpha" type="matrix" values="0 0 0 0 0 0 0 0 0 0 0 0 0 0 0 0 0 0 127 0"/>
<feOffset dy="7"/>
<feGaussianBlur stdDeviation="12.5"/>
<feColorMatrix type="matrix" values="0 0 0 0 0 0 0 0 0 0 0 0 0 0 0 0 0 0 0.13 0"/>
<feBlend mode="normal" in2="effect1_dropShadow" result="effect2_dropShadow"/>
<feBlend mode="normal" in="SourceGraphic" in2="effect2_dropShadow" result="shape"/>
</filter>
</defs>
</svg>
