<svg width="59" height="51" viewBox="0 0 59 51" fill="none" xmlns="http://www.w3.org/2000/svg">
<path d="M38.38 17.3569C38.982 17.9589 39.5839 18.5608 40.1859 19.1628C40.0879 20.0027 40.9278 20.2407 41.2498 20.8007C41.1238 21.4586 41.7398 21.6546 42.0198 22.0466C42.2717 22.3825 42.7897 22.5505 42.7897 23.0265C42.8037 23.5585 43.2237 23.7265 43.4897 24.0484C43.7696 24.3704 44.1056 24.6644 44.3996 24.9724C44.6236 25.1964 44.8056 25.1544 44.8616 24.8184C44.9036 24.5664 44.9036 24.3284 45.1275 24.1324C45.2395 24.0344 45.3515 23.8804 45.3935 23.7264C45.4355 23.5585 45.4075 23.3765 45.4075 23.2085C45.3935 22.6905 45.3375 22.1586 45.8835 21.8366C45.8975 21.5846 45.9395 21.3326 45.9255 21.0806C45.9115 20.8847 45.9255 20.7167 46.0655 20.6187C46.5135 20.3387 46.4855 19.9047 46.4435 19.4708C46.4295 19.2748 46.4855 19.1488 46.6114 19.0088C46.9754 18.5888 46.9614 18.5748 46.9754 18.1128C46.9894 17.7489 46.9894 17.7489 47.3534 17.2309C47.3954 17.1609 47.4934 17.0909 47.4794 17.0349C47.4234 16.643 47.6614 16.419 47.8854 16.153C48.1373 15.873 47.9413 15.495 48.0113 15.1591C48.0393 15.0051 48.1373 14.8371 48.2633 14.7531C48.5993 14.5291 48.4313 14.1231 48.6273 13.8572C48.7813 13.6612 49.0613 13.5492 49.0333 13.2412C49.0193 13.0452 49.0333 12.8912 49.1733 12.7792C49.4672 12.5552 49.6352 12.2753 49.5512 11.8973C49.7192 11.7153 49.9012 11.5193 50.0692 11.3373C49.8452 10.7354 50.6572 10.5394 50.6012 9.99342C50.5592 9.54545 51.2311 9.41946 51.1331 8.90149C51.1051 8.7895 51.2871 8.62152 51.3851 8.49553C51.6791 8.10356 52.281 7.90757 52.1691 7.24961C52.1551 7.19362 52.2531 7.10962 52.295 7.05362C52.575 6.64765 53.149 6.46566 53.205 5.86371C53.261 5.27575 53.8349 5.07977 54.1429 4.68779C54.4229 4.35182 54.7449 4.07183 55.0528 3.76385C55.4168 3.39988 55.7948 3.02191 56.1588 2.65794C56.2148 2.60194 56.2988 2.50395 56.2848 2.47595C56.2008 2.29396 56.0468 2.23797 55.8648 2.23797C53.9469 2.23797 52.0431 2.25196 50.1252 2.23797C49.8312 2.23797 49.6352 2.36395 49.4812 2.55994C49.3553 2.71393 49.2293 2.76993 49.0473 2.76993C45.9115 2.76993 42.7897 2.76993 39.6539 2.75593C39.346 2.75593 39.192 2.93792 39.01 3.10591C38.94 3.1619 38.898 3.27389 38.828 3.27389C38.66 3.30189 38.478 3.28789 38.31 3.28789C34.3063 3.28789 30.3026 3.28789 26.3129 3.30189C26.0469 3.30189 25.9349 3.27389 26.0609 3.03591C26.1309 2.90992 26.3269 2.78392 26.4669 2.78392C27.2508 2.75592 28.0347 2.78393 28.8187 2.75593C28.9587 2.75593 29.1127 2.58794 29.2107 2.47595C29.3367 2.32196 29.4626 2.25196 29.6446 2.25196C31.5625 2.25196 33.4664 2.25197 35.3842 2.26597C35.6922 2.26597 35.8602 2.12597 36.0282 1.92999C36.0842 1.87399 36.1402 1.762 36.2102 1.748C36.3782 1.72 36.5461 1.72 36.7281 1.72C39.248 1.72 41.7678 1.706 44.2876 1.734C44.6096 1.734 44.7496 1.55201 44.9176 1.37002C45.0436 1.21604 45.1695 1.18804 45.3795 1.18804C46.2475 1.20204 47.1154 1.20203 47.9833 1.20203C48.6833 1.20203 49.3693 1.21604 50.0692 1.18804C50.3912 1.17404 50.7552 1.34203 51.0351 1.00605C51.1891 0.810067 51.3711 0.656075 51.6791 0.670074C53.331 0.684073 54.9829 0.684069 56.6347 0.684069C56.7187 0.684069 56.8027 0.684069 56.9007 0.684069C57.2087 0.67007 57.3067 0.978052 57.5167 1.09004C58.0346 1.35603 57.7267 2.09797 58.2446 2.36395C58.4546 2.46194 58.4266 2.60194 58.2026 2.72793C58.1326 2.76993 58.0766 2.85392 58.0206 2.90992C57.7687 3.1619 58.0066 3.58187 57.6567 3.80586C57.4467 3.94585 57.2787 4.16983 57.0967 4.35181C56.2988 5.14976 55.4728 5.9337 54.7029 6.75965C54.3249 7.17962 53.625 7.4036 53.7089 8.17354C53.359 8.55152 53.009 8.9295 52.659 9.30747C52.785 10.1614 51.8611 10.3434 51.6091 10.9594C51.6791 11.3513 51.3431 11.5473 51.2031 11.8413C51.0211 12.1913 51.0351 12.6532 50.6292 12.9052C50.6152 13.3532 50.4472 13.7172 50.0692 13.9831C50.1392 14.4731 49.8452 14.7811 49.5232 15.0611C49.5932 15.439 49.4532 15.733 49.1453 15.957C49.0753 15.999 49.0053 16.083 49.0053 16.153C48.9773 16.489 49.0613 16.8669 48.9353 17.1749C48.8233 17.4689 48.4173 17.6089 48.4593 18.0289C48.4733 18.1548 48.3333 18.3368 48.2213 18.4348C48.0113 18.6308 47.9274 18.8408 47.9553 19.1068C47.9693 19.1908 47.9414 19.2888 47.9553 19.3728C48.0953 19.8907 47.4514 20.0307 47.4234 20.4647C47.3954 20.8707 47.5634 21.3466 47.1154 21.6406C46.9474 21.7526 46.8774 21.8926 46.9054 22.0746C46.9194 22.1586 46.8914 22.2426 46.9054 22.3406C46.9614 22.7045 46.8914 23.0265 46.5554 23.2365C46.3875 23.3485 46.3595 23.4885 46.3735 23.6845C46.4015 24.2584 46.3735 24.2584 46.0095 24.8324C45.9675 24.9024 45.8695 24.9584 45.8695 25.0284C45.8555 25.4623 45.8695 25.8963 45.8555 26.3303C45.8555 26.5123 45.9395 26.6243 46.0795 26.7642C46.3595 27.0722 46.7514 27.2962 46.9194 27.7162C46.9894 27.8982 46.7934 28.3601 46.6254 28.3601C46.2755 28.3601 45.9255 28.3601 45.5755 28.3601C45.0296 28.3601 45.0296 28.3601 44.8196 29.0601C44.7636 29.2421 44.6376 29.3821 44.5116 29.3401C44.3156 29.2701 44.2876 29.1021 44.3016 28.9061C44.3156 28.5561 44.2876 28.2062 44.3156 27.8702C44.3296 27.6742 44.2876 27.5482 44.1476 27.4082C43.5877 26.8622 43.0277 26.3163 42.4957 25.7423C42.2158 25.4343 41.7258 25.2383 41.7118 24.7764C41.6978 24.2444 41.2638 24.0764 40.9978 23.7545C40.7319 23.4185 40.4239 23.1245 40.1299 22.8165C40.2419 22.1726 39.6539 21.9486 39.346 21.5846C39.066 21.2486 38.744 20.9687 38.422 20.6607C38.296 20.5347 37.8341 20.4927 37.7221 20.6047C37.2881 21.0386 36.8541 21.4586 36.4342 21.8926C36.0702 22.2566 35.6922 22.6345 35.3282 22.9985C34.8943 23.4325 34.4883 23.8804 34.0263 24.2864C33.6484 24.6224 33.4384 25.1684 32.8644 25.2383C32.1785 25.3223 31.9405 25.9663 31.4925 26.3303C31.0865 26.6663 30.7506 27.0582 30.3726 27.4362C29.9386 27.8702 29.5186 28.2901 29.0847 28.7241C28.4687 29.3401 27.8528 29.942 27.2368 30.572C26.9568 30.866 27.1388 31.3979 26.6908 31.6639C26.3969 31.8319 26.1869 32.1399 25.9489 32.3918C25.6409 32.6998 25.3329 33.0078 25.025 33.3158C25.123 34.0577 24.479 34.3237 24.101 34.7577C23.765 35.1497 23.3451 35.4856 23.0091 35.8776C22.7991 36.1156 22.9671 36.5356 22.6311 36.7735C22.3511 36.9835 22.1272 37.2635 21.8892 37.5015C21.9872 38.3414 21.1472 38.5794 20.8113 39.1394C20.9372 39.7973 20.3633 40.0213 20.0273 40.3713C19.6773 40.7493 19.8173 41.3792 19.2994 41.6452C19.2994 42.0932 19.1174 42.4571 18.7394 42.7231C18.7534 43.0731 18.6974 43.4091 18.3754 43.6191C18.2074 43.7311 18.1514 43.871 18.1934 44.067C18.3334 44.641 18.0814 45.061 17.6335 45.3969C17.2695 45.6769 17.0595 46.0269 17.1435 46.5029C17.1575 46.5869 17.1715 46.6848 17.1435 46.7548C17.0735 46.9088 17.0035 47.0628 16.8915 47.1608C16.6815 47.3568 16.6255 47.5668 16.6255 47.8328C16.6255 48.0848 16.7375 48.4067 16.5276 48.5607C15.9816 48.9387 16.1356 49.4706 16.1076 49.9606C16.1076 50.0306 16.0376 50.1006 15.9816 50.1706C15.8696 50.3106 15.7576 50.2546 15.6036 50.0586C15.4496 49.8626 15.2536 49.6806 15.0717 49.4987C15.1976 49.3727 15.3096 49.2467 15.4356 49.1347C15.6596 48.9247 15.5616 48.6587 15.5756 48.4067C15.6176 47.9168 15.4076 47.3568 15.9816 47.0068C16.0376 46.9648 16.0796 46.8668 16.0936 46.7968C16.1636 46.3909 15.9116 45.9009 16.3596 45.6069C16.6955 45.3689 16.4856 44.921 16.7375 44.725C17.1155 44.403 17.1995 44.025 17.1435 43.5771C17.1155 43.3811 17.1435 43.2271 17.2835 43.1151C17.4095 43.0031 17.5215 42.8631 17.6475 42.7511C17.9695 42.4571 18.3054 42.1772 18.1934 41.6732C18.4034 41.4212 18.7534 41.2672 18.7114 40.8333C18.6694 40.4413 19.2154 40.3433 19.2154 40.0073C19.2154 39.6013 19.5233 39.4194 19.6493 39.1394C19.8173 38.7614 19.8313 38.3274 20.2233 38.0754C20.2093 37.6135 20.4473 37.2915 20.7693 36.9975C21.0072 36.7735 21.3432 36.6195 21.3292 36.1856C21.3012 35.6816 21.8192 35.5276 22.0852 35.2056C22.2951 34.9397 22.5751 34.7017 22.8131 34.4637C22.8971 33.4978 23.765 33.1058 24.297 32.4758C24.563 32.1539 24.395 31.6499 24.843 31.3839C25.2069 31.1599 25.4729 30.782 25.7809 30.474C26.0329 30.222 26.2709 29.984 26.5229 29.732C26.8308 29.4241 27.1388 29.1161 27.4468 28.8081C27.7548 28.5001 28.0347 28.1641 28.3707 27.8982C28.6927 27.6462 28.5807 27.2822 28.7347 27.0022C28.7767 26.9322 28.8607 26.8342 28.9167 26.8342C29.4486 26.8902 29.7566 26.7222 29.6866 26.1343C30.2746 25.5043 30.8625 24.8884 31.4645 24.2724C31.5065 24.2304 31.6185 24.2304 31.7025 24.2164C31.7865 24.2024 31.8845 24.2304 31.9685 24.2164C32.0385 24.2024 32.1225 24.1464 32.1785 24.0904C33.7743 22.4946 35.3702 20.8987 36.9801 19.3028C37.2881 18.9948 37.6661 18.7428 37.5261 18.2248C37.8481 17.8889 38.086 17.6509 38.38 17.3569Z" fill="#343434"/>
<path d="M32.3744 11.8691C32.3744 12.5691 32.3324 12.6251 31.7024 12.6531C31.6184 12.6531 31.5204 12.6671 31.4364 12.6531C31.1564 12.6111 30.9325 12.7231 30.7785 12.947C30.5965 13.199 30.3445 13.171 30.0925 13.185C29.8405 13.199 29.5606 13.087 29.3646 13.311C29.1266 13.591 28.8606 13.773 28.4826 13.703C28.1187 13.647 27.7967 13.717 27.5867 14.039C27.4047 14.3189 27.0967 14.137 26.8867 14.2349C26.6628 14.3469 26.4948 14.5709 26.3128 14.7389C25.7948 14.5989 25.5988 15.1869 25.2209 15.2289C24.8429 15.2709 24.6329 15.5229 24.3529 15.6628C23.9889 15.8448 23.541 15.8308 23.289 16.2368C22.841 16.2508 22.491 16.4328 22.2111 16.7828C21.9451 17.1047 21.6651 17.4687 21.1471 17.3427C20.9652 17.5107 20.7692 17.6927 20.5872 17.8607C20.0552 17.7487 19.8312 18.1547 19.5233 18.4487C19.2853 18.6866 19.0753 18.9806 18.6693 18.9106C18.5993 18.8966 18.5153 18.9526 18.4453 18.9946C17.9834 19.3306 17.7594 20.0305 17.0174 19.9465C16.6395 20.3105 16.2475 20.6465 15.9115 21.0245C15.6175 21.3604 15.2676 21.5564 14.8336 21.5704C14.4696 21.9344 14.0916 22.3124 13.7277 22.6763C13.4197 22.9843 13.1117 23.2923 12.8037 23.6003C12.0618 23.4883 11.7958 24.1603 11.3618 24.5242C10.9699 24.8602 10.6199 25.2522 10.2559 25.6302C9.45796 25.6162 9.12199 26.2881 8.63202 26.7361C8.05806 27.268 7.5261 27.842 6.96614 28.388C6.47617 28.8779 5.98621 29.3819 5.49624 29.8578C5.13227 30.2078 5.25826 30.8098 4.76829 31.1318C4.41832 31.3697 4.13834 31.7337 3.84436 32.0417C3.48038 32.4057 3.10241 32.7696 2.73843 33.1476C2.51445 33.3856 2.71044 33.8056 2.37446 34.0436C2.09448 34.2395 1.8145 34.4915 1.64651 34.7855C1.49252 35.0655 1.59051 35.4575 1.25454 35.6674C0.974558 35.8354 1.10055 36.1294 1.03055 36.3534C0.988557 36.4794 0.80657 36.5914 0.66658 36.6474C0.400598 36.7314 0.0366237 36.5774 0.0226247 36.3814C0.00862566 36.1434 -0.0753684 35.8774 0.204612 35.6674C0.400598 35.5135 0.610583 35.3315 0.540588 35.0235C0.526589 34.9395 0.540588 34.8555 0.540588 34.7575C0.540588 34.5055 0.51259 34.2535 0.750574 34.0576C1.01655 33.8336 1.28254 33.5956 1.47852 33.3156C1.60451 33.1336 1.56252 32.8256 1.68851 32.6297C1.99649 32.1537 2.71044 31.9437 2.62644 31.1878C3.04641 30.7538 3.46638 30.3198 3.88635 29.8858C5.97221 27.8 8.05806 25.7141 10.1439 23.6143C10.3959 23.3623 10.6339 23.1243 10.8859 22.8723C11.1938 22.5644 11.5018 22.2564 11.8098 21.9484C12.0478 21.7104 12.2438 21.4864 12.6497 21.4444C13.0977 21.4164 13.2937 20.9265 13.6157 20.6465C13.8817 20.4225 14.1056 20.1565 14.3576 19.9185C14.8616 20.0165 15.1416 19.6806 15.4355 19.3726C15.7295 19.0506 16.0375 18.7426 16.3595 18.4487C16.6115 18.2247 17.0314 18.4207 17.2554 18.0847C17.3954 17.8747 17.6194 17.7067 17.8014 17.5247C18.0534 17.2727 18.2913 17.0347 18.5433 16.7828C19.1453 16.9787 19.3553 16.2088 19.8872 16.2368C19.9712 16.2368 20.0832 16.2648 20.1392 16.2228C20.2792 16.1248 20.3772 15.9708 20.5172 15.8588C20.8392 15.6068 21.0212 15.2009 21.5391 15.1589C21.8191 15.1449 22.0851 14.8369 22.3651 14.6689C22.925 14.7949 23.121 13.955 23.709 14.1509C24.0169 13.857 24.3389 13.577 24.6469 13.283C24.7029 13.227 24.7869 13.101 24.8289 13.115C25.3468 13.241 25.5848 12.807 25.9208 12.5831C25.9768 12.5411 26.0888 12.5831 26.1728 12.5831C26.3408 12.5831 26.5228 12.5691 26.6908 12.5831C26.8727 12.5971 27.0127 12.5271 27.1247 12.3591C27.4327 11.9251 28.1187 12.1491 28.3846 11.6171C28.7066 11.4631 29.0566 11.5611 29.3926 11.5331C29.5606 11.5191 29.7565 11.5751 29.9105 11.5191C30.0505 11.4771 30.2325 11.3651 30.2885 11.2392C30.3445 11.0992 30.3025 10.9032 30.2745 10.7352C30.2605 10.6652 30.1625 10.6092 30.0925 10.5532C29.9105 10.3712 29.7425 10.1752 29.5326 10.0072C29.1266 9.67127 29.2946 9.04131 28.8046 8.73333C28.4546 8.49534 28.1746 8.13137 27.8807 7.82339C27.5167 7.45942 27.1387 7.08145 26.7747 6.71747C26.4668 6.4095 26.1868 6.07352 25.8508 5.80754C25.4728 5.52756 25.7248 4.9816 25.3188 4.71562C25.0389 4.53363 24.8149 4.23965 24.5769 3.98767C24.5349 3.94567 24.5489 3.81968 24.5629 3.73569C24.6049 3.5397 24.5489 3.3997 24.3949 3.27371C24.2549 3.17572 24.1429 3.03573 24.0449 2.89574C23.9469 2.76975 24.1009 2.23779 24.2409 2.20979C24.3949 2.16779 24.5769 2.11179 24.7309 2.15379C24.8849 2.19579 24.9969 2.33578 25.1229 2.44777C25.2489 2.55977 25.3608 2.69975 25.5008 2.81174C25.6828 2.96573 25.7948 3.25972 26.1308 3.17572C26.0748 3.37171 26.1448 3.4977 26.3128 3.62369C26.4528 3.72168 26.6488 3.87567 26.6348 4.00166C26.6068 4.39363 26.7887 4.63162 27.0407 4.8836C28.2166 6.04552 29.3786 7.20744 30.5405 8.38335C30.8485 8.69133 31.1144 9.05531 31.4784 9.29329C31.9124 9.57327 31.7724 10.0632 32.0244 10.3852C32.1784 10.5812 32.4583 10.6792 32.4024 11.0152C32.3464 11.3512 32.3744 11.6171 32.3744 11.8691Z" fill="#343434"/>
</svg>
