<svg width="48" height="53" viewBox="0 0 48 53" fill="none" xmlns="http://www.w3.org/2000/svg">
<path d="M46.465 23.1686C46.465 24.091 46.4525 24.9385 46.4775 25.7986C46.4899 26.0852 46.278 26.1974 46.1285 26.347C45.9041 26.5713 46.116 26.9453 45.8044 27.1571C45.6175 27.2818 45.4803 27.4937 45.3058 27.6432C45.1438 27.7679 45.0815 27.8801 45.1812 27.9798C45.5053 28.3163 45.8044 28.6902 46.1783 28.952C46.5896 29.2511 46.3528 29.8494 46.8265 30.0862C46.9636 30.161 46.9511 30.323 46.9511 30.4975C46.9387 31.1955 46.9262 31.8935 46.9511 32.5915C46.9636 32.9405 46.7891 33.1399 46.5772 33.3767C46.3778 33.5886 46.5523 33.975 46.2407 34.162C46.0163 34.2991 46.0288 34.5234 45.9914 34.7602C45.9789 34.8849 45.8293 34.9971 45.7421 35.1217C45.5053 35.4707 45.4554 36.1687 45.6673 36.3806C46.0537 36.767 46.4276 37.1533 46.814 37.5273C46.9262 37.6394 46.9511 37.7765 46.9386 37.9386C46.8888 38.3374 46.9386 38.6989 47.3126 38.9482C47.4746 39.4717 47.4497 39.9827 47.325 40.5062C46.9636 40.7555 46.8763 41.1045 46.9262 41.5033C46.9386 41.5781 46.9386 41.6653 46.9262 41.7401C46.9137 41.8024 46.8763 41.8772 46.8265 41.9271C46.3404 42.4257 45.8418 42.9118 45.3432 43.3979C45.2934 43.4352 45.2061 43.4477 45.1313 43.4477C44.5331 43.4228 44.5829 43.8341 44.5954 44.2205C44.5954 44.3701 44.5705 44.5944 44.6453 44.6567C45.2061 45.0431 45.0067 45.604 45.0566 46.1275C45.094 46.4889 44.8198 46.651 44.6577 46.9003C44.5455 47.0748 44.5829 47.3365 44.5829 47.5608C44.5954 48.022 44.6328 48.4957 44.1467 48.7823C44.1716 49.2061 43.9348 49.4679 43.6731 49.7545C43.5484 49.8916 43.7603 50.303 43.4861 50.3528C43.0125 50.4401 42.6635 50.6769 42.3643 51.0259C42.1524 51.2876 41.9281 51.3998 41.5791 51.3873C41.1802 51.3624 41.1802 51.3873 40.7814 51.6865C40.7191 51.7363 40.6692 51.8236 40.6069 51.836C40.4573 51.861 40.2953 51.8485 40.1457 51.8485C38.4381 51.8485 36.743 51.8485 35.0354 51.8485C34.7737 51.8485 34.7737 51.8485 34.2502 52.185C34.1879 52.2224 34.138 52.2972 34.0757 52.3097C33.9261 52.3221 33.7641 52.3097 33.6145 52.3221C33.1783 52.3471 32.6797 52.1726 32.3681 52.6836C32.3307 52.7335 32.2435 52.7833 32.1812 52.7833C28.7037 52.7833 25.2137 52.7833 21.7363 52.7833C21.4745 52.7833 21.3873 52.5091 21.2003 52.4094C20.8513 52.2224 20.4524 52.3595 20.0785 52.3221C19.7794 52.2972 19.393 52.4592 19.206 52.2224C18.9318 51.8859 18.5205 51.9482 18.2463 51.7363C17.997 51.5369 17.7976 51.3375 17.4486 51.3873C17.299 51.4123 17.137 51.3873 16.9874 51.3873C16.4889 51.3998 16.4889 51.3998 16.1773 51.0882C16.1274 51.0383 16.0651 50.976 16.0152 50.9262C15.8532 50.7641 15.6787 50.6146 15.5167 50.465C15.0555 50.5896 14.8685 50.1659 14.5445 50.0038C14.021 50.1534 13.8589 49.4055 13.3479 49.5426C12.9865 49.3931 12.7621 49.0815 12.5378 48.7823C12.6375 48.3087 12.2511 48.1217 12.0018 47.8475C11.9519 47.7852 11.8896 47.7353 11.8398 47.6855C11.765 47.8101 11.6403 47.9223 11.6154 48.0594C11.5531 48.3461 11.7525 48.7449 11.4908 48.9319C11.067 49.231 11.2539 49.7919 10.8551 50.0786C10.6183 50.2531 10.4562 50.4899 10.0948 50.4899C8.54924 50.465 7.00371 50.465 5.44569 50.4899C5.03438 50.5024 4.69785 50.4151 4.44857 50.0661C3.9874 50.0537 3.52622 49.9914 3.07752 50.0287C2.64127 50.0661 2.34213 49.8916 2.09285 49.58C1.66907 49.6299 1.38239 49.3931 1.13311 49.0815C1.04586 48.9693 0.908762 48.8322 0.908762 48.72C0.896298 46.9377 0.896301 45.1553 0.896301 43.3729C1.03341 43.1984 1.18296 43.0239 1.32007 42.8494C1.18296 42.6874 0.958612 42.5378 0.933684 42.3509C0.871364 41.8897 0.858902 41.4285 0.921223 40.9674C0.946151 40.7804 1.2079 40.6308 1.35747 40.4688C1.2079 40.2943 1.05833 40.1323 0.908762 39.9578C0.921226 38.8734 0.921229 37.8015 0.958621 36.7171C0.971085 36.5551 1.29514 36.4678 1.30761 36.2185C0.721794 35.8571 0.921223 35.2713 0.921223 34.7602C0.908759 32.7535 0.921226 30.7343 0.908762 28.7276C0.908762 28.4783 0.983543 28.2789 1.1705 28.1418C1.30761 28.0421 1.38239 27.9175 1.38239 27.7679C1.38239 25.2127 1.38239 22.6576 1.38239 20.1025C1.38239 19.9529 1.38239 19.7909 1.38239 19.6413C1.38239 19.5042 2.04299 18.881 2.18009 18.881C2.32966 18.881 2.4917 18.881 2.64127 18.881C4.57321 18.881 6.5176 18.8934 8.44954 18.8685C8.86085 18.8685 9.19738 18.9184 9.44666 19.2798C9.7458 19.3048 10.0574 19.3048 10.3441 19.3546C10.4687 19.3796 10.6307 19.5167 10.6557 19.6164C10.7055 19.8407 10.6681 20.0775 10.6681 20.3144C10.6806 20.7007 10.6183 21.0996 10.718 21.4611C10.7928 21.7228 11.1044 21.8599 11.1542 22.2089C11.2041 22.6825 11.2789 22.6701 11.5157 22.4457C12.1763 21.7851 12.812 21.1121 13.4975 20.4889C13.7966 20.2146 13.8714 19.8781 14.0085 19.5291C14.1082 19.2674 14.4323 19.0929 14.6442 18.881C15.1178 18.9932 15.3172 18.6192 15.5915 18.37C15.928 18.0708 16.1523 17.5349 16.6135 17.5099C17.1121 17.485 17.2866 16.8493 17.8101 17.0114C17.8475 17.0238 17.9472 16.949 17.9846 16.8867C18.184 16.6125 18.4333 16.4879 18.7823 16.5502C18.9443 16.4006 19.1188 16.2386 19.2808 16.089C19.8168 16.276 19.9788 15.5655 20.4774 15.6154C20.8638 15.6528 20.9884 15.042 21.4496 15.1542C21.5119 15.1667 21.5867 15.1168 21.649 15.0794C22.0105 14.8177 22.185 14.2817 22.696 14.2443C23.2444 14.1945 23.4064 13.7084 23.7554 13.4466C23.9923 13.2597 24.2166 13.0478 24.441 12.8484C24.79 12.9107 25.0019 12.6988 25.2137 12.4744C25.5378 12.1379 25.8494 11.7889 26.1984 11.4898C26.5599 11.1782 26.4103 10.6422 26.8341 10.3431C27.208 10.0813 27.5071 9.69495 27.8312 9.37089C27.7439 8.62304 28.5292 8.43608 28.766 7.90012C28.8533 7.71316 28.7411 7.42648 28.9904 7.30184C29.3767 7.08995 29.1275 6.57893 29.4765 6.32965C29.7257 6.15515 29.9252 5.90586 30.1371 5.68151C30.1744 5.63165 30.1994 5.53194 30.1744 5.46962C30.0623 5.00845 30.7104 4.93366 30.6481 4.49742C30.6356 4.42263 30.6107 4.31046 30.6481 4.27307C30.9098 3.9864 31.1965 3.72464 31.4458 3.43797C31.6826 3.16376 32.0316 2.98927 32.0565 2.5281C32.0815 2.12925 32.5426 1.96721 32.767 1.66807C33.0038 1.34401 33.3652 1.28169 33.7142 1.15705C33.9635 1.0698 34.1131 0.733273 34.487 0.770665C34.7986 0.808058 35.1102 0.783126 35.4094 0.783126C35.8705 0.783126 36.3691 0.683408 36.7929 0.808049C37.3039 0.957618 37.5657 1.51851 37.9894 1.84257C38.4631 2.20403 38.5877 2.6652 38.5503 3.23855C38.5254 3.61247 38.3633 4.08611 38.65 4.33539C39.0987 4.70932 38.9866 5.15802 38.999 5.59426C39.0115 6.44182 38.999 7.30184 39.0115 8.1494C39.0115 8.3239 39.0115 8.47347 38.8744 8.56072C38.4755 8.81 38.5129 9.19639 38.5379 9.58277C38.5503 9.75727 38.5378 9.90683 38.3758 9.98162C37.9271 10.2184 38.1889 10.879 37.7277 11.1159C37.5906 11.1906 37.5781 11.3527 37.6031 11.5272C37.628 11.6767 37.6031 11.8388 37.6031 11.9883C37.6031 12.1504 37.5283 12.2626 37.4036 12.3747C37.2914 12.4744 37.1668 12.5991 37.1543 12.7237C37.1294 12.9605 37.1045 13.16 36.9175 13.322C36.8178 13.4092 36.6807 13.5713 36.6932 13.6835C36.7679 14.1945 36.045 14.3565 36.2195 14.8925C36.07 15.067 35.9329 15.2415 35.7584 15.4035C35.4717 15.6652 35.1975 15.9145 35.2723 16.3632C34.7986 16.5876 34.9357 17.1859 34.6117 17.4725C34.2627 17.7842 34.4247 18.37 33.9635 18.5943C33.8638 18.8685 33.9386 19.205 33.6395 19.392C33.4026 19.5416 33.5024 19.8033 33.4276 20.0027C33.3528 20.2022 33.116 20.3393 32.9913 20.5263C32.8168 20.788 33.0412 21.2242 33.3279 21.2242C33.6395 21.2242 33.9511 21.2492 34.2502 21.2242C34.836 21.1744 35.4966 21.461 35.9453 20.8254C36.0076 20.7506 36.232 20.7631 36.3816 20.7631C38.3135 20.7631 40.2579 20.7631 42.1898 20.7506C42.3643 20.7506 42.5264 20.7381 42.6011 20.8628C42.8504 21.2492 43.2368 21.2367 43.6232 21.2118C43.698 21.2118 43.7977 21.1744 43.8476 21.2118C44.1467 21.4361 44.3586 21.7976 44.8197 21.6729C45.4056 22.1216 45.954 22.6701 46.465 23.1686ZM28.1054 27.1696C27.6816 27.5934 27.2703 27.9548 26.9213 28.3662C26.5972 28.765 25.9741 28.952 26.0114 29.6126C25.7622 30.0987 25.301 30.4103 24.9395 30.7966C24.5656 31.1955 24.1668 31.557 23.7928 31.9558C23.5809 32.1677 23.7928 32.5666 23.4688 32.7535C23.0201 32.6538 22.7832 32.9654 22.509 33.2396C22.0229 33.7382 21.4745 34.1869 21.0507 34.7353C20.6893 35.1965 20.2406 35.0594 19.7919 35.0843C19.7295 35.0843 19.6548 35.022 19.6174 34.9597C19.4927 34.7852 19.4553 33.9999 19.5675 33.8753C19.7794 33.6509 20.0162 33.4515 20.2156 33.2147C20.4649 32.9031 20.789 32.7909 21.1754 32.7037C21.5368 32.6289 21.2502 32.1552 21.4994 31.9184C22.5589 30.8964 23.5934 29.8494 24.6279 28.8024C24.952 28.4783 25.2387 28.1293 25.5503 27.7928C25.5004 27.1197 26.1236 26.9328 26.4477 26.5464C26.7344 26.1849 27.1083 25.8983 27.4074 25.5368C27.4822 25.4496 27.37 25.1504 27.4448 25.1006C27.8935 24.789 27.9309 24.3527 27.8811 23.8791C27.8686 23.717 27.9558 23.6173 28.0805 23.4927C28.417 23.1811 28.7411 22.8321 29.0776 22.508C29.2396 22.346 29.4141 22.2214 29.5886 22.0718C30.1121 22.2214 30.2742 21.4984 30.7976 21.5982C30.8974 21.6106 31.1342 21.4237 31.1217 21.3613C31.022 20.9002 31.4333 20.7007 31.5953 20.3891C31.6577 20.2645 31.6078 20.09 31.6078 19.928C31.6078 19.7036 31.5954 19.4793 31.8197 19.3172C32.1936 19.043 32.0191 18.4323 32.4803 18.1955C32.5302 18.1705 32.5551 18.0584 32.5426 17.996C32.4304 17.5349 33.0412 17.4227 33.0038 17.0238C32.9539 16.5377 33.6768 16.3632 33.4774 15.8273C33.7516 15.5655 34.0383 15.3038 33.9635 14.8675C34.2876 14.6307 34.4621 14.3191 34.4621 13.9078C34.8111 13.6835 34.8859 13.322 34.9607 12.9481C35.347 12.7362 35.2972 12.3124 35.4592 11.9883C35.5589 11.8014 35.8456 11.7141 35.8082 11.4399C35.7584 11.0535 36.1946 10.9538 36.2445 10.6921C36.3068 10.3805 36.3068 10.0938 36.5934 9.90684C36.743 9.80712 36.7555 9.68249 36.743 9.49553C36.7056 9.10914 36.6932 8.72275 37.0795 8.47346C37.2042 8.38622 37.2167 8.23666 37.2042 8.06216C37.1917 7.75056 37.2042 7.43895 37.2042 7.12735C37.2042 6.96532 37.2665 6.84068 37.4161 6.75343C37.5781 6.64125 37.6404 6.52906 37.5906 6.42935C37.5532 6.36703 37.4784 6.31718 37.4286 6.26733C37.1419 5.90587 37.0671 5.68151 37.3164 5.49454C37.79 5.14555 37.6404 4.67192 37.6654 4.23567C37.6654 4.17335 37.5906 4.12349 37.5407 4.06117C37.2167 3.61247 37.2042 3.61248 37.2042 3.27594C37.2042 2.78985 37.2042 2.80231 36.8801 2.47824C36.6558 2.25389 36.4564 2.06692 36.1074 2.10432C35.7958 2.14171 35.4717 2.04199 35.185 2.12924C34.8485 2.22895 34.674 2.7026 34.2128 2.57796C33.9261 2.90202 33.4899 3.08898 33.465 3.64987C33.4525 3.9864 32.8916 4.16089 33.0287 4.62206C32.8792 4.79655 32.7171 4.9586 32.5676 5.1331C32.418 5.30759 32.2435 5.45716 32.1064 5.64412C32.069 5.69398 32.0939 5.79368 32.1064 5.86847C32.1438 6.27978 31.5206 6.3795 31.6327 6.84067C31.6452 6.90299 31.6203 7.0027 31.5829 7.05256C31.2588 7.38909 30.9223 7.71315 30.5982 8.04968C30.4487 8.21172 30.1994 8.3239 30.2368 8.59811C30.2866 8.98449 29.9501 9.09667 29.7756 9.33349C29.9002 9.79466 29.5139 10.0066 29.3144 10.3057C29.2396 10.4179 29.3394 10.6422 29.2646 10.7419C29.0776 10.9912 28.8657 11.2156 28.6164 11.4025C28.3298 11.6144 28.4669 11.9883 28.2799 12.2002C27.9184 12.6115 27.5445 12.9979 27.1332 13.3469C26.7468 13.671 26.5474 14.3067 25.8743 14.2194C25.6001 14.4812 25.3134 14.7429 25.0392 15.0047C24.765 15.2664 24.3163 15.0919 24.067 15.4908C23.8676 15.8148 23.5186 16.0392 23.2693 16.3258C23.0948 16.5128 22.883 16.5128 22.6711 16.5627C22.3221 16.6499 22.16 17.1485 21.6989 17.0114C21.3997 17.2233 21.1878 17.6097 20.7267 17.4725C20.5646 17.6221 20.3901 17.7841 20.2281 17.9337C19.8916 17.8714 19.6423 18.021 19.4429 18.2827C19.3431 18.4074 19.1936 18.4074 19.0316 18.4074C18.6452 18.4074 18.5205 18.9807 18.0593 18.8685C17.997 18.8561 17.9222 18.9059 17.8599 18.9433C17.4361 19.23 17.2616 19.8781 16.5886 19.7909C16.3144 20.0526 16.0277 20.3143 15.7535 20.5761C15.5291 20.788 15.2799 20.9874 15.1054 21.2367C14.8561 21.5732 14.4946 21.6106 14.1456 21.7353C13.8839 21.835 14.0833 22.2089 13.9587 22.346C13.323 23.0315 12.6624 23.6797 11.9893 24.3278C11.7525 24.5522 11.5905 24.7765 11.6528 25.1255C11.5032 25.2875 11.3412 25.462 11.1916 25.6241C11.1916 26.5464 11.1916 27.4812 11.2166 28.4035C11.2166 28.4534 11.3163 28.5157 11.3786 28.5656C11.5406 28.7276 11.6777 28.8772 11.6777 29.1389C11.6653 33.4764 11.6653 37.8139 11.6777 42.1514C11.6777 42.5378 11.6902 42.9118 11.3163 43.161C11.2664 43.1984 11.2166 43.2857 11.2166 43.348C11.2041 43.7344 11.229 44.1208 11.2041 44.5071C11.1792 44.9185 11.3163 45.2052 11.578 45.5168C11.9519 45.9655 12.6873 46.1649 12.6001 46.9376C12.7621 47.2742 13.161 47.0997 13.3729 47.2866C13.7218 47.5858 14.0708 47.9099 14.3575 48.2713C14.6442 48.6452 15.0181 48.6203 15.392 48.5829C15.5665 48.5704 15.6912 48.5954 15.7909 48.7449C15.9779 49.0441 16.277 49.0441 16.5761 49.0939C16.7008 49.1064 16.788 49.3058 16.9127 49.4055C17.1744 49.6299 17.4985 49.4928 17.7976 49.5177C18.184 49.5551 18.3086 50.1035 18.7698 49.9913C18.9194 49.954 19.0814 49.9789 19.231 49.9913C19.2933 49.9913 19.393 50.0163 19.4304 50.0661C19.6797 50.4276 20.0287 50.4899 20.44 50.4525C20.6643 50.4276 20.9136 50.4276 21.138 50.4525C21.7861 50.5398 22.5464 50.1659 23.045 50.8763C23.8178 50.8888 24.5905 50.9137 25.3508 50.8888C25.463 50.8888 25.6126 50.7267 25.6874 50.6021C25.8245 50.4027 25.8743 50.4151 26.0239 50.5896C26.3978 51.0009 26.6346 51.0134 26.9712 50.7143C27.1457 50.5647 27.2952 50.4151 27.557 50.4276C27.9434 50.4401 27.9434 50.4276 28.5666 50.814C28.6788 50.8888 28.8657 50.9262 28.9904 50.8888C29.3767 50.7766 29.813 50.2282 29.813 49.9166C29.813 49.2934 29.813 48.6826 29.813 48.0594C29.813 47.9098 29.8255 47.7478 29.813 47.5982C29.8005 47.4362 29.9002 47.3365 30.0124 47.2119C30.2866 46.8753 30.8101 46.6884 30.7478 46.1275C31.0594 45.5915 31.5829 45.2301 31.9942 44.7938C32.1438 44.6443 32.1687 44.5695 31.9568 44.4573C31.8945 44.4324 31.8197 44.4074 31.7449 44.4074C31.4458 44.3701 31.0843 44.5445 30.8724 44.2828C30.5858 43.9338 30.2368 43.9089 29.8504 43.9338C29.7756 43.9338 29.6759 43.9712 29.626 43.9338C29.3269 43.7219 29.115 43.348 28.6538 43.4726C28.3796 43.1984 28.1303 42.8868 27.8312 42.6625C27.4573 42.3758 27.4573 42.0143 27.5071 41.6279C27.5445 41.3413 27.3202 41.2291 27.1831 41.0671C26.9712 40.8178 26.9587 40.5187 27.2205 40.2818C27.4822 40.045 27.5196 39.7833 27.5071 39.4592C27.4947 39.3096 27.4697 39.1102 27.557 39.0229C28.0929 38.4745 28.6538 37.951 29.2272 37.44C29.3144 37.3528 29.5138 37.4026 29.6634 37.3652C29.7257 37.3528 29.7881 37.2655 29.8255 37.2032C29.9002 37.091 29.7881 36.6298 29.6884 36.58C29.4266 36.4553 29.0776 36.5551 28.8906 36.2559C28.6788 35.9069 28.1677 36.1437 27.9184 35.7698C27.7564 35.5081 27.4822 35.3336 27.2703 35.0968C27.1706 34.997 27.046 34.8475 27.0584 34.7353C27.0833 34.3614 26.8091 34.1994 26.6097 33.9875C26.6346 33.5637 26.4228 33.277 26.1111 33.0277C26.161 32.7037 26.0738 32.4294 25.7871 32.23C25.6126 32.1178 25.6251 32.0181 25.8245 31.8935C26.1236 31.719 26.0987 31.3825 26.1485 31.0958C26.8091 30.4352 27.4573 29.7746 28.1303 29.1389C28.2176 29.0517 28.4295 29.114 28.5541 29.0517C28.7411 28.9395 28.9156 28.7899 29.0776 28.6404C29.3643 28.3662 29.3643 28.3662 29.1399 28.1543C28.7411 27.7928 28.4295 27.4812 28.1054 27.1696ZM3.23954 42.999C3.23954 44.7066 3.23954 46.4017 3.23954 48.1093C3.23954 48.3959 3.37665 48.5455 3.6384 48.5455C4.95959 48.5455 6.26832 48.5704 7.58951 48.5331C8.02575 48.5206 8.2875 48.6951 8.57418 48.9693C8.78607 49.1687 9.28463 48.9319 9.28463 48.6826C9.28463 47.2119 9.28463 45.7411 9.28463 44.2703C9.28463 42.1764 9.29709 40.0949 9.27216 38.0009C9.27216 37.6394 9.45912 37.4525 9.65855 37.2281C9.80812 37.0536 9.78319 36.8168 9.65855 36.6049C9.62116 36.5426 9.55884 36.4927 9.49652 36.4429C9.1226 36.1437 9.32202 35.7324 9.28463 35.371C9.24723 35.0594 9.25971 34.7602 9.55884 34.5608C9.62116 34.5234 9.7084 34.4611 9.72087 34.3988C9.7458 33.9376 9.74581 33.4764 9.74581 33.0153C9.74581 32.9529 9.65856 32.9031 9.62116 32.8408C9.48406 32.6663 9.27216 32.579 9.28463 32.2799C9.30955 31.5071 9.27217 30.7343 9.30956 29.9616C9.32203 29.6624 9.11013 29.5752 8.97302 29.4007C8.69881 29.0392 9.30955 29.0268 9.23477 28.7526C9.2223 28.6902 9.13506 28.6279 9.07274 28.5905C8.91071 28.4783 8.83592 28.3412 8.9107 28.2664C9.13506 28.0546 9.30955 27.8427 9.29709 27.4937C9.27216 26.0229 9.29709 24.5522 9.28463 23.0814C9.28463 22.8196 9.37188 22.6327 9.55884 22.4956C9.74581 22.3709 9.7832 22.2588 9.62116 22.159C9.20985 21.9098 9.25969 21.5109 9.29709 21.137C9.30955 20.9625 9.2971 20.8254 9.13506 20.7381C9.03535 20.6883 8.91071 20.7506 8.811 20.9126C8.69882 21.0996 8.5991 21.1245 8.47446 21.0123C8.31243 20.8628 8.21271 20.6384 7.92604 20.6509C7.70168 20.6758 7.46487 20.6509 7.22805 20.6509C6.91645 20.6509 6.59238 20.7007 6.3057 20.6384C6.03149 20.5761 5.95672 20.1648 5.57033 20.1772C4.94713 20.2146 4.33639 20.2022 3.71318 20.1772C3.41404 20.1648 3.3268 20.3767 3.1523 20.5138C2.90302 20.7132 2.76591 20.9376 2.77838 21.2866C2.8033 22.5205 2.79084 23.7669 2.79084 25.0008C2.79084 25.6988 2.8033 26.3968 2.79084 27.0948C2.79084 27.2693 2.79084 27.4064 2.91548 27.5061C3.17722 27.7056 3.26448 27.9548 3.26448 28.2914C3.25201 30.9961 3.252 33.7008 3.252 36.418C3.252 36.4927 3.26447 36.58 3.252 36.6423C3.22707 36.7046 3.16476 36.767 3.1149 36.8168C3.01519 36.929 2.81576 37.0412 2.81576 37.1409C2.81576 37.253 3.00272 37.3652 3.12736 37.4649C3.252 37.5771 3.26448 37.7018 3.26448 37.8763C3.23955 39.5963 3.23954 41.3039 3.23954 42.999ZM28.3422 39.9453C28.3422 40.3317 28.3547 40.7181 28.3298 41.092C28.3173 41.2665 28.3547 41.3787 28.4918 41.4908C28.7785 41.7277 28.9654 42.1141 29.4266 42.0268C29.7507 42.3633 30.1246 42.5877 30.6232 42.5004C30.7727 42.4755 30.9348 42.5129 31.0843 42.488C31.2588 42.463 31.371 42.5129 31.4956 42.6251C31.6452 42.7746 31.7574 42.9616 32.0565 42.9616C34.836 42.9492 37.628 42.9492 40.4075 42.9616C40.6941 42.9616 40.8063 42.7746 40.9684 42.6251C41.093 42.5004 41.2052 42.4755 41.3797 42.488C41.6913 42.5129 42.0029 42.488 42.302 42.5004C42.4765 42.5129 42.5887 42.4506 42.6884 42.3135C42.8255 42.1265 43 42.0019 43.2617 42.0268C43.4861 42.0393 43.7104 42.0019 43.9348 41.9894C44.1592 41.6279 44.5331 41.5781 44.8945 41.4908C44.9569 41.4784 45.0566 41.3662 45.0441 41.3288C44.9319 40.8676 45.418 40.6807 45.4928 40.3566C45.5925 39.9204 45.5053 39.4467 45.4804 38.9856C45.4804 38.9232 45.3806 38.8734 45.3183 38.8235C45.1438 38.6615 45.0316 38.4995 45.0441 38.2377C45.0566 37.9137 44.5829 37.8139 44.5954 37.5023C44.6203 37.0287 44.2339 36.8667 43.9971 36.58C43.9473 36.5301 43.8725 36.4678 43.8102 36.4678C42.8878 36.4803 41.9655 36.4927 41.0431 36.5177C40.9808 36.5177 40.931 36.6174 40.8811 36.6797C40.7315 36.8667 40.5446 36.9415 40.2953 36.9415C37.7402 36.929 35.185 36.9415 32.6423 36.9415C32.4055 36.9415 32.1687 36.9165 31.9443 36.9539C31.8072 36.9788 31.6951 37.091 31.5704 37.1658C31.2214 37.4151 31.0469 37.9635 30.4736 37.8638C30.137 38.1754 29.8005 38.487 29.4765 38.7986C29.115 39.1725 28.7286 39.5589 28.3422 39.9453ZM29.0028 35.0718C32.6797 35.0718 36.3068 35.0718 39.9463 35.0843C40.1208 35.0843 40.233 35.0594 40.3451 34.9223C40.4947 34.7602 40.6194 34.5857 40.906 34.5982C41.7536 34.6231 42.6011 34.6107 43.4362 34.6107C43.5609 34.486 43.6731 34.3738 43.7728 34.2741C43.9971 34.0498 44.1965 33.8254 44.4334 33.626C44.72 33.3643 44.4708 32.8408 44.9195 32.6663C44.9818 32.6413 45.0566 32.5541 45.0566 32.4918C45.069 31.7938 45.0566 31.0958 45.069 30.4103C45.069 30.2358 45.0192 30.1361 44.8821 30.0239C44.5954 29.7621 44.3212 29.4879 44.0594 29.2013C43.9473 29.0641 43.8351 29.0268 43.6606 29.0392C43.4362 29.0641 43.1994 29.0392 42.9626 29.0517C42.6385 29.0517 42.6261 29.0392 42.1774 29.3882C41.9655 29.5627 41.7536 29.5004 41.5292 29.5129C41.3049 29.5253 41.0805 29.4755 40.906 29.7123C40.7689 29.8992 40.582 29.9865 40.3202 29.9865C37.4659 29.974 34.5992 29.974 31.7449 29.9865C31.3959 29.9865 31.209 29.7995 30.9597 29.625C30.6356 29.3882 29.9875 29.5129 29.7133 29.7497C29.3767 30.0239 29.1898 30.5474 28.6164 30.4477C28.068 30.9836 27.5071 31.5071 26.9587 32.0555C26.9213 32.0929 26.9338 32.1926 26.9213 32.2674C26.9213 32.3422 26.8839 32.4419 26.9213 32.4918C27.0584 32.6663 27.3326 32.8158 27.3576 33.0028C27.3949 33.3269 27.4573 33.5637 27.7066 33.8005C28.1802 34.1869 28.604 34.6481 29.0028 35.0718ZM35.9329 28.0919C37.4036 28.0919 38.8744 28.0919 40.3451 28.0919C40.5196 28.0919 40.6817 28.1044 40.7565 27.9798C41.0057 27.5934 41.3921 27.5934 41.7785 27.6308C41.953 27.6557 42.0901 27.6308 42.1898 27.4937C42.3893 27.207 42.651 27.1073 42.9875 27.1696C43.2368 26.8705 43.5235 26.6835 43.9473 26.6586C44.1841 26.6336 44.0719 26.2473 44.1716 26.0852C44.371 25.7736 44.6702 25.5119 44.9319 25.2377C45.1563 25.0009 45.1314 24.2156 44.907 23.9788C44.745 23.8168 44.5829 23.6547 44.4084 23.4802C44.2464 23.3182 44.0844 23.1562 43.9099 22.9941C43.5733 23.0565 43.3116 22.9443 43.1122 22.6576C43.0125 22.5205 42.8753 22.5205 42.7009 22.5205C41.0805 22.533 39.4477 22.5205 37.8274 22.533C37.6778 22.533 37.5283 22.533 37.3787 22.5703C37.3164 22.5828 37.254 22.6701 37.2167 22.7324C37.0048 23.0315 36.7056 23.0315 36.394 23.0066C36.0326 22.9692 35.6213 23.1562 35.3221 22.7947C35.2349 22.6825 35.0853 22.5579 34.9607 22.5579C34.4247 22.533 33.8763 22.5454 33.3403 22.5454C32.9664 22.7822 32.6548 23.1312 32.1313 23.0191C31.907 22.9692 31.6701 23.044 31.4333 23.0066C30.9971 22.9443 30.6979 23.1312 30.4487 23.4553C30.0124 23.4055 29.7382 23.6423 29.4889 23.9539C29.4017 24.0661 29.277 24.1907 29.2646 24.3278C29.2396 24.7142 29.2895 25.1006 29.2396 25.4869C29.2022 25.9107 29.3393 26.2223 29.6759 26.4716C29.6011 27.02 29.9999 27.2942 30.3365 27.5809C30.486 27.7056 30.7852 27.6432 30.9472 27.7679C31.184 27.9548 31.371 28.1543 31.7325 28.1418C33.1534 28.0795 34.5493 28.0919 35.9329 28.0919ZM35.534 49.929C35.534 49.929 35.534 49.9415 35.534 49.929C35.9952 49.9415 36.4688 49.9415 36.93 49.9415C37.7775 49.9415 38.6376 49.929 39.4851 49.954C39.6596 49.954 39.7593 49.9041 39.8964 49.8044C40.3202 49.4803 40.3327 49.4928 40.6941 49.4803C41.0182 49.4679 41.0307 49.4803 41.4794 49.1313C41.604 49.0316 41.7287 48.9942 41.8907 49.0067C42.1524 49.0192 42.3145 48.8571 42.2895 48.5829C42.2771 48.4084 42.3145 48.2962 42.4266 48.1716C42.7632 47.7727 42.7632 47.7728 42.7632 47.3864C42.7632 47.1371 42.7507 47.1246 43.0997 46.6011C43.187 46.464 43.2368 46.3643 43.2368 46.1898C43.2243 45.7286 43.2368 45.255 43.2243 44.7938C43.2243 44.4947 43.1122 44.3576 42.813 44.37C42.5139 44.3825 42.2148 44.2703 41.9281 44.4822C41.442 44.8437 41.4295 44.8312 41.1428 44.8312C39.0489 44.8312 36.9674 44.8312 34.8734 44.8312C34.487 44.8312 34.487 44.8312 33.6769 45.2924C33.3403 45.2301 33.1035 45.3796 32.8792 45.6289C32.5177 46.0278 32.1064 46.3892 31.7325 46.7881C31.4832 47.0498 31.6577 47.5484 31.2339 47.7478C31.184 47.7727 31.1217 47.8725 31.1342 47.9348C31.1466 48.5455 31.1591 49.1563 31.1965 49.767C31.1965 49.8293 31.2962 49.929 31.3585 49.929C32.742 49.929 34.138 49.929 35.534 49.929Z" fill="#343434"/>
<path d="M7.4275 44.2704C7.4275 44.3452 7.41503 44.42 7.4275 44.4948C7.50228 45.0432 7.32779 45.3797 6.70459 45.3049C6.13124 45.6165 6.13124 45.6165 5.89442 45.3797C5.57036 45.0556 5.27121 44.6942 4.90976 44.4075C4.5483 44.1084 4.63555 43.722 4.64801 43.3605C4.64801 43.0614 5.27122 42.5005 5.57036 42.488C5.88196 42.488 6.18109 42.488 6.49269 42.488C6.77936 42.488 7.42751 43.0739 7.43997 43.3356C7.42751 43.6597 7.4275 43.9713 7.4275 44.2704Z" fill="#343434"/>
</svg>
