<svg width="173" height="160" viewBox="0 0 173 160" fill="none" xmlns="http://www.w3.org/2000/svg">
<path d="M104.231 53.5701C103.924 53.3651 103.539 53.0833 103.129 52.8527C102.334 52.4171 101.822 51.3922 100.668 51.8021C99.8994 51.264 99.1048 50.7516 98.3359 50.2135C97.1825 50.6235 96.6442 49.6242 95.8753 49.163C95.2088 48.753 94.5937 48.2405 93.9529 47.7537C93.3121 47.2925 92.6713 46.8313 92.0306 46.3444C91.1078 46.7288 90.5696 46.0882 89.9288 45.627C89.288 45.1658 88.6728 44.6277 87.9808 44.2434C87.4682 43.9615 86.7761 44.3459 86.2635 43.8078C85.9303 43.4747 85.4946 43.2441 85.1101 42.9366C84.1105 42.1935 83.9823 41.9886 83.8798 40.5793C83.8541 40.1181 84.1617 39.785 84.7513 39.7081C85.5202 39.6056 86.3404 39.6056 86.7249 38.7088C86.853 38.4014 87.1606 38.3245 87.5194 38.2989C88.3396 38.2732 89.0317 38.0683 89.4931 37.274C89.7494 36.8384 90.3389 36.9409 90.7746 36.864C91.2616 36.7871 91.6717 36.6846 91.928 36.1978C92.0049 36.0697 92.1074 35.9159 92.21 35.8135C92.3125 35.711 92.4663 35.6341 92.5944 35.6085C93.7479 35.2754 95.2088 35.711 95.8753 34.2248C96.6442 34.0711 97.4131 33.8917 98.1821 33.7892C98.5409 33.738 98.8229 33.6868 98.9767 33.4049C99.3099 32.8156 99.7712 32.5081 100.463 32.4312C101.283 32.3544 101.309 32.3287 101.976 31.5601C102.206 31.3038 102.386 31.1501 102.744 31.1245C103.231 31.0989 103.693 30.9451 104.154 30.9451C104.872 30.9195 105.308 30.612 105.666 29.9971C105.948 29.5102 106.487 29.6383 106.922 29.5359C107.819 29.3309 108.845 29.5102 109.357 28.4084C109.562 27.9472 110.178 28.0754 110.639 27.9985C111.126 27.9216 111.536 27.8191 111.792 27.3323C111.869 27.2042 111.972 27.0504 112.074 26.9479C112.177 26.8455 112.331 26.7686 112.459 26.743C113.612 26.4099 115.073 26.8455 115.74 25.3593C116.509 25.2056 117.277 25.0262 118.046 24.9237C118.405 24.8725 118.687 24.8213 118.841 24.5394C119.174 23.9501 119.636 23.6426 120.328 23.5914C121.122 23.5145 121.148 23.4889 121.84 22.7202C122.071 22.4639 122.25 22.3102 122.634 22.2846C123.121 22.259 123.583 22.1565 124.044 22.0796C124.608 22.0027 124.608 22.0027 125.531 21.1316C125.761 20.901 125.992 20.7728 126.351 20.7472C126.812 20.696 127.274 20.5679 127.735 20.4654C128.401 18.9792 129.862 19.4148 131.016 19.0561C131.272 18.9792 131.529 18.723 131.682 18.4668C131.964 18.0312 132.349 17.8518 132.836 17.8262C133.451 17.775 134.117 17.7237 134.425 17.0319C134.579 16.6988 134.809 16.5451 135.143 16.4938C135.783 16.417 136.398 16.2632 137.039 16.212C137.603 16.1863 137.859 15.802 138.116 15.4433C138.218 15.3152 138.27 15.1102 138.398 15.0589C139.679 14.649 141.32 15.1358 142.089 13.4959C142.729 13.3935 143.345 13.291 143.985 13.2141C144.524 13.1372 144.524 13.1372 145.472 12.266C145.574 12.1636 145.677 12.0098 145.805 11.9842C146.42 11.8305 147.061 11.8305 147.625 11.5742C148.009 11.3949 148.189 10.7799 148.573 10.6262C149.137 10.3956 149.829 10.4212 150.444 10.2931C150.752 10.2418 151.188 10.1906 151.29 10.0112C151.905 8.7301 153.136 8.98632 154.161 8.78134C154.674 8.67885 155.032 8.47387 155.263 8.03828C155.519 7.52582 155.981 7.47458 156.442 7.44895C157.083 7.39771 157.698 7.26959 157.98 6.6034C158.134 6.2703 158.365 6.14219 158.723 6.11656C159.364 6.06532 159.979 5.88596 160.62 5.86034C161.235 5.83471 161.415 5.3735 161.671 5.01478C161.876 4.73293 162.081 4.60482 162.466 4.57919C163.26 4.52795 164.055 4.45108 164.439 3.5799C164.567 3.27243 164.875 3.22118 165.234 3.19556C166.028 3.11869 166.797 2.91371 167.592 2.86246C168.31 2.81122 168.668 2.37563 169.053 1.86317C169.412 1.40196 170.283 1.63256 170.539 0.940747C170.693 0.530781 170.898 0.479536 171.18 0.556404C171.437 0.633273 171.719 1.47883 171.565 1.81192C171.513 1.96566 171.36 2.06815 171.283 2.19627C171.155 2.42687 171.026 2.6831 170.975 2.93933C170.95 2.99058 171.206 3.14431 171.334 3.22118C172.129 3.73364 172 4.96354 173 5.32226C173 5.32226 172.974 5.57848 172.923 5.65535C172.462 6.14219 172.231 6.68027 172.462 7.37208C172.205 7.75643 171.924 8.14077 171.667 8.55074C172.052 9.47316 171.462 10.0625 170.924 10.6262C170.36 11.2411 170.36 11.9842 170.181 12.7273C170.052 13.291 169.489 13.7778 169.078 14.2646C168.848 14.5465 168.668 14.8027 168.797 15.1102C169.155 16.007 167.874 16.3913 168.156 17.2369C168.258 17.5956 168.207 17.8262 167.976 18.1081C167.566 18.5949 167.233 19.133 166.823 19.6454C166.413 20.1579 166.977 20.8497 166.413 21.3878C165.951 21.8234 165.644 22.3871 165.259 22.8995C165.439 24.3344 164.362 25.1287 163.696 26.1536C164.029 27.0248 163.465 27.6141 163.029 28.2803C162.953 28.3828 163.081 28.5878 163.081 28.7415C163.106 28.8953 163.183 29.1003 163.106 29.2028C162.466 30.2277 161.363 31.0476 161.568 32.4569C161.133 33.2768 160.133 33.8149 160.159 34.8398C160.21 35.9672 159.313 36.454 158.852 37.2483C158.672 37.5302 158.544 37.7864 158.698 38.1195C158.826 38.4526 158.749 38.7601 158.441 38.9651C157.673 39.5031 158.339 40.4768 157.749 41.0661C157.314 41.5274 156.98 42.0911 156.596 42.6035C156.801 44.0384 155.699 44.8327 155.032 45.8576C155.468 47.3437 153.879 47.9587 153.623 49.1373C153.52 49.5729 153.725 50.0341 153.366 50.4441C152.956 50.9309 152.392 51.4178 152.264 51.9815C152.11 52.7245 152.11 53.4932 151.521 54.0569C151.726 54.9025 151.367 55.5687 150.829 56.158C150.291 56.7473 149.881 57.3879 150.111 58.2591C149.727 58.7715 149.419 59.3352 148.958 59.7964C148.445 60.3089 148.778 60.9751 148.548 61.5132C148.42 61.795 148.163 62.0256 148.009 62.2819C147.728 62.8199 147.01 63.153 147.189 63.8961C147.369 64.6648 146.728 64.9979 146.472 65.536C146.42 65.6641 146.472 65.8691 146.548 65.9972C146.702 66.3559 146.574 66.5865 146.343 66.8684C145.703 67.7139 144.831 68.4826 145.036 69.7381C145.062 69.8406 144.882 70.0712 144.754 70.0968C144.293 70.2249 143.832 70.2762 143.345 70.3531C142.781 70.4556 142.371 70.225 142.242 69.7894C142.089 69.2 142.268 68.4826 141.781 68.0214C141.345 67.5858 140.756 67.3039 140.243 66.9708C139.32 67.3039 138.782 66.6121 138.167 66.1765C137.654 65.8178 137.193 65.3822 136.475 65.6128C135.963 65.2797 135.424 64.9466 134.912 64.6135C134.656 64.4342 134.348 64.0242 134.143 64.0755C132.631 64.4342 132.016 62.9481 130.862 62.5893C130.17 62.8456 129.683 62.4612 129.17 62.0769C128.812 61.8207 128.094 61.9744 127.889 62.2306C127.504 62.7431 127.146 63.2555 126.761 63.768C126.095 64.6648 125.428 65.536 124.762 66.4328C123.378 66.484 123.224 67.8677 122.404 68.5082C121.814 68.9694 121.02 69.0463 120.61 69.815C120.225 70.5068 119.661 71.0961 119.225 71.7623C118.79 72.4285 117.713 72.121 117.38 73.0435C117.175 73.6072 116.585 74.0428 116.303 74.6065C115.893 75.3751 115.048 75.452 114.535 75.9389C114.022 76.4257 113.407 76.9638 113.484 77.9374C113.561 78.7061 113.381 78.783 112.766 78.8855C112.459 78.9367 112.126 78.9367 111.818 79.0392C111.254 79.2186 110.921 78.8598 110.562 78.578C110.203 78.2962 109.742 78.1168 109.588 77.63C109.152 76.1951 109.716 74.4015 108.076 73.3766C107.896 73.2485 107.896 72.8129 107.845 72.5054C107.384 69.5075 106.922 66.5353 106.487 63.5374C106.41 62.9993 106.077 62.7175 105.718 62.4612C105.59 62.3587 105.385 62.2819 105.359 62.1794C105.231 61.7182 105.179 61.257 105.103 60.7701C104.974 58.4384 104.616 56.0811 104.231 53.5701ZM120.199 66.2278C120.61 66.0997 121.071 66.2278 121.404 65.7153C122.301 64.4086 123.25 63.153 124.224 61.8975C124.377 61.6925 124.787 61.7438 125.069 61.6157C125.838 61.2313 125.838 60.3345 125.095 59.7964C124.839 59.6171 124.582 59.4121 124.326 59.2327C123.557 58.6947 122.711 58.9765 122.583 59.7964C122.532 60.0783 122.686 60.4626 122.558 60.6932C122.25 61.2313 121.891 61.795 121.43 62.2306C120.891 62.7431 121.43 63.4349 121.02 63.9473C120.635 64.4598 120.302 64.9979 119.892 65.4591C119.661 65.741 119.507 65.9972 119.712 66.3047C119.738 66.3559 120.02 66.279 119.738 66.7402C119.764 66.6121 119.738 66.3559 119.687 66.3303C119.354 66.2534 119.149 66.4071 118.995 66.689C118.841 66.9452 118.892 67.1246 119.277 67.2527C119.354 67.2783 119.482 67.1758 119.559 67.099C119.636 66.9708 119.738 66.8427 120.199 66.2278ZM151.188 21.7721C151.47 21.3878 151.726 20.9778 152.034 20.6191C152.29 20.3372 152.418 20.081 152.213 19.7735C152.187 19.7223 151.905 19.7992 151.752 19.8248C151.316 19.9529 150.855 19.8248 150.496 20.3372C149.906 21.2084 149.419 22.2846 148.163 22.4127C147.804 22.8995 147.471 23.3351 146.754 23.5145C145.985 23.7195 145.703 24.6163 145.241 25.2568C144.908 25.7181 144.421 25.6412 144.037 25.8462C143.652 26.0768 143.421 26.538 143.14 26.9223C142.166 26.7942 141.832 27.6141 141.32 28.1778C140.346 28.0497 140.141 29.1771 139.474 29.3821C138.808 29.5871 138.423 29.9458 138.039 30.4327C137.68 30.9195 137.475 31.6882 136.783 31.7394C135.758 31.8163 135.63 33.2768 134.502 33.0974C134.22 33.4562 133.912 33.8405 133.63 34.1992C132.656 34.1223 132.169 34.8142 131.862 35.506C131.426 36.4796 130.273 36.4284 129.76 37.1715C129.222 37.9658 127.991 37.8377 127.658 38.837C127.633 38.9394 127.402 39.0163 127.274 39.0163C126.223 38.9907 126.12 40.5537 124.967 40.3487C124.659 40.7074 124.352 41.0661 124.095 41.4505C123.66 42.1167 123.198 42.7316 122.301 42.7316C121.994 43.7565 120.738 43.654 120.251 44.4227C119.712 45.217 118.482 45.0889 118.149 46.0882C118.123 46.1907 117.893 46.2676 117.764 46.2676C116.714 46.242 116.611 47.7793 115.458 47.6C115.15 47.9587 114.842 48.3174 114.586 48.7018C114.15 49.3679 113.689 49.9829 112.792 49.9829C112.408 50.726 111.818 51.1359 110.998 51.2897C110.665 52.084 109.793 52.1608 109.229 52.6221C108.512 53.237 107.948 54.0569 107.538 54.9025C107.102 55.7737 107.64 56.7473 107.743 57.6698C107.871 58.9253 108.101 60.1808 108.332 61.4363C108.383 61.6925 108.691 61.8975 108.87 62.1281C109.075 62.3587 109.409 62.5381 109.46 62.7943C109.844 64.9979 110.178 67.1758 110.46 69.405C110.562 70.1481 111.126 70.4043 111.536 70.8399C111.844 71.173 111.921 71.6598 111.639 72.121C111.562 72.2492 111.459 72.4029 111.357 72.5054C111.075 72.7616 111.049 73.0178 111.075 73.3509C111.1 73.8378 111.459 74.2734 111.921 74.2734C112.433 74.2734 113.023 73.9659 113.048 73.6072C113.074 73.2997 112.818 72.9154 112.946 72.6847C113.51 71.6086 114.74 70.8655 114.484 69.4306C114.868 68.9182 115.176 68.3545 115.637 67.8933C116.227 67.2783 115.586 66.3047 116.329 65.7922C116.97 65.3566 116.303 64.6135 116.739 64.0755C117.252 63.4605 117.662 62.7943 118.098 62.1538C117.713 60.8214 118.944 60.232 119.43 59.3096C119.507 59.1815 119.559 59.0021 119.533 58.874C119.251 57.926 119.917 57.3367 120.456 56.8498C121.122 56.2092 120.738 55.3637 121.148 54.7231C121.584 54.0569 122.045 53.4164 122.558 52.8014C123.147 52.1352 123.378 51.0078 124.608 51.0847C125.095 50.4441 125.556 49.8292 126.043 49.1886C126.607 48.4199 127.069 47.5231 127.786 46.9338C128.35 46.4726 129.145 46.3444 129.555 45.6014C129.939 44.9096 130.478 44.3202 130.939 43.6797C131.323 43.1672 131.759 42.6804 132.067 42.1423C132.477 41.3992 133.271 41.2711 133.835 40.8099C134.553 40.2206 135.143 39.375 135.527 38.5295C135.988 37.5558 137.193 37.812 137.68 36.8896C138.09 36.0441 138.705 35.2754 139.372 34.5836C140.192 33.7124 140.423 32.2006 141.935 32.0469C142.422 31.4319 142.909 30.817 143.396 30.202C143.883 29.5615 144.447 28.9722 144.78 28.2803C145.19 27.486 146.19 27.7679 146.625 26.9992C147.087 26.1793 147.702 25.4362 148.317 24.6931C148.881 24.0013 149.189 22.9252 150.393 23.002C150.675 22.6177 150.957 22.2333 152.751 18.9024C152.572 19.0561 152.316 19.2098 152.264 19.4148C152.136 19.8504 152.367 20.0042 152.726 19.7479C152.905 19.6198 152.982 19.3636 153.059 19.133C153.008 19.0305 152.726 18.7999 151.188 21.7721ZM143.319 65.5616C143.421 65.4335 143.498 65.3054 143.601 65.1772C144.037 64.5623 144.729 64.0242 144.37 63.1018C144.806 62.4612 145.241 61.795 145.728 61.1801C145.933 60.8982 146.01 60.6676 145.882 60.3089C145.626 59.489 146.907 59.1046 146.523 58.2078C146.472 58.0797 146.472 57.8747 146.548 57.7722C146.907 57.2342 147.241 56.6961 147.676 56.2349C148.291 55.6199 147.625 54.6719 148.368 54.1338C148.983 53.6726 148.368 52.9295 148.778 52.4171C149.265 51.8021 149.727 51.1359 150.188 50.4953C150.47 50.111 150.701 49.7267 150.957 49.3167C150.444 48.2918 151.803 47.7537 151.572 46.7288C151.393 46.0114 152.572 45.5245 152.187 44.6277C152.521 44.1153 152.828 43.5772 153.161 43.0647C153.238 42.9366 153.341 42.8085 153.443 42.6804C153.546 42.5523 153.674 42.4242 153.725 42.296C153.777 42.1679 153.751 41.9886 153.7 41.8348C153.469 40.8612 154.853 40.2975 154.289 39.2469C154.93 38.222 156.058 37.4277 155.827 35.9928C156.212 35.4804 156.519 34.9167 156.98 34.4811C157.57 33.8661 156.904 32.8924 157.673 32.38C158.313 31.9444 157.621 31.2013 158.083 30.6633C158.595 30.0739 159.005 29.3821 159.441 28.7415C159.518 28.6391 159.415 28.4341 159.39 28.2803C159.185 27.4604 160.415 27.0761 160.056 26.1793C159.928 25.8974 160.133 25.6156 160.364 25.3593C160.774 24.8725 161.338 24.3857 161.44 23.822C161.594 23.0789 161.62 22.3358 162.184 21.7209C162.696 21.1572 163.286 20.5422 162.901 19.6454C163.158 19.2611 163.44 18.8767 163.696 18.4924C163.337 17.57 164.003 17.0319 164.439 16.417C164.798 15.9301 165.157 15.4945 165.106 14.7515C165.08 14.2134 165.772 13.6497 165.721 13.1116C165.618 12.1636 166.31 11.728 166.695 11.0618C166.772 10.9337 166.849 10.7799 166.977 10.6774C167.361 10.37 167.361 10.1394 166.925 10.0112C166.643 9.93437 166.336 9.95999 166.028 9.98562C165.9 9.98562 165.746 10.0881 165.644 10.2162C165.157 10.8568 164.695 11.4974 164.234 12.1379C163.67 12.9066 163.081 13.6497 162.517 14.3927C161.543 14.3159 161.21 15.1358 160.748 15.7251C160.261 16.3657 159.826 17.0063 159.339 17.6469C158.877 18.2618 158.57 19.0817 157.596 19.0049C157.006 19.7479 156.314 20.4397 155.904 21.2597C155.443 22.2077 154.34 22.2077 153.802 22.9252C153.136 23.7963 152.521 24.7444 151.803 25.5899C151.034 26.5124 150.726 27.9472 149.189 28.0497C148.804 28.5622 148.445 29.0746 148.061 29.5871C147.779 29.9714 147.42 30.3302 147.241 30.7401C146.933 31.4063 146.113 31.1757 145.728 31.6626C145.139 32.4056 144.626 33.2255 144.011 33.943C143.345 34.7629 143.011 35.9672 141.653 36.0184C141.268 36.5309 140.91 37.0434 140.525 37.5558C140.243 37.9402 139.884 38.2989 139.705 38.7088C139.397 39.4007 138.551 39.0932 138.167 39.6056C137.603 40.3743 137.065 41.143 136.475 41.9117C135.835 42.7572 135.399 43.8334 134.117 43.9871C133.733 44.4996 133.374 45.0121 132.99 45.5245C132.605 46.037 132.246 46.5494 131.862 47.0619C131.4 47.7025 130.888 48.3174 130.452 48.9836C130.093 49.5729 129.324 49.2398 128.914 49.8804C127.761 51.5971 126.505 53.237 125.274 54.8769C124.967 55.2868 124.941 55.6968 124.967 56.1836C124.993 56.4399 124.711 56.7217 124.582 56.9779C124.3 57.516 124.454 57.9516 124.89 57.7979C125.941 57.4391 126.479 58.7459 127.504 58.4384C127.966 58.2847 128.325 58.8228 128.683 59.079C128.94 59.2584 129.222 59.4377 129.452 59.6427C129.709 59.8989 129.965 60.0271 130.298 59.9246C130.836 59.7452 131.221 60.0271 131.554 60.3602C131.836 60.6164 132.067 60.7189 132.426 60.5908C132.579 60.5395 132.784 60.4626 132.887 60.5139C133.963 61.052 134.681 62.3331 136.142 62.0256C137.039 62.6918 137.962 63.3068 138.808 64.0242C139.244 64.3829 139.705 64.178 140.115 64.2804C140.833 64.4598 141.32 65.2541 142.242 64.921C142.422 64.8698 142.755 65.2285 143.011 65.4079C143.063 65.4079 143.191 65.4847 143.319 65.5616ZM87.1093 41.9373C87.2375 42.0398 87.3656 42.1167 87.4938 42.2192C88.0833 42.7572 88.7241 43.1672 89.5956 42.911C90.1595 43.5259 90.9284 43.4747 91.6717 43.6797C92.5432 43.8847 93.0558 45.0889 94.0554 45.0377C95.3626 44.9864 95.9009 46.1138 96.8749 46.5751C97.1568 46.7032 97.4131 46.9338 97.6438 47.1388C98.0796 47.5231 98.5666 47.3181 98.9767 47.19C99.6687 47.0106 100.156 47.2669 100.694 47.6768C101.181 48.0612 101.617 48.6761 102.257 48.5993C103.001 48.4968 103.411 49.0861 103.949 49.1886C104.718 49.3167 105.436 49.3679 106.051 49.9316C106.256 50.111 107.051 49.8035 107.281 49.5217C107.486 49.2655 107.666 48.7786 107.845 48.8042C108.819 48.8555 109.152 48.0612 109.665 47.5231C110.793 47.7281 110.921 46.1907 111.972 46.1907C112.202 46.1907 112.459 45.8832 112.664 45.6526C113.074 45.1658 113.33 44.4227 113.817 44.1665C114.509 43.8078 115.15 43.5003 115.611 42.8341C115.842 42.5266 116.509 42.7572 116.816 42.296C117.149 41.758 117.534 41.2455 117.944 40.7587C118.431 40.195 119.482 40.3743 119.738 39.4519C120.353 39.0419 121.148 38.9651 121.584 38.1708C121.737 37.8633 122.455 37.8889 122.763 37.6071C123.224 37.1715 123.557 36.6078 123.89 36.0953C124.095 35.7878 124.275 35.5828 124.634 35.6085C125.223 35.6597 125.505 35.1985 125.685 34.8142C125.992 34.0967 126.94 34.6604 127.222 33.9174C127.325 33.6355 127.607 33.2255 127.812 33.2255C128.786 33.2255 129.094 32.4312 129.581 31.8419C129.862 31.4832 130.042 30.8682 130.529 30.8939C131.503 30.8939 131.58 29.6896 132.349 29.6383C133.374 29.5615 133.502 28.0754 134.656 28.306C134.937 27.9472 135.194 27.486 135.553 27.2298C135.911 26.9992 136.45 27.1786 136.783 26.6661C137.193 26.0255 137.757 25.4362 138.244 24.8469C139.346 25.0006 139.474 23.5657 140.525 23.4889C141.217 23.4376 141.371 22.1821 142.345 22.2846C142.729 21.7978 143.14 21.3109 143.524 20.8497C143.627 20.7216 143.729 20.5935 143.806 20.4654C144.062 19.9017 144.677 20.1579 145.011 19.9273C145.498 19.5686 145.6 18.8255 146.395 18.7743C147.215 18.723 147.241 17.4419 148.215 17.5187C148.343 17.5187 148.522 17.4419 148.599 17.3394C148.983 16.8525 149.419 16.3401 149.727 15.802C150.137 15.0589 151.265 15.392 151.547 14.5209C151.649 14.1621 151.931 14.0084 152.264 14.034C152.623 14.0596 152.879 13.9315 153.033 13.6241C153.059 13.5728 156.263 11.4717 156.34 11.4205C156.442 11.318 156.57 11.1899 156.622 11.0362C156.647 10.9593 156.493 10.7543 156.391 10.7543C155.571 10.6006 154.443 10.6006 154.187 11.0105C153.623 12.0354 152.7 12.0611 151.777 12.1892C151.137 12.2917 150.521 12.3685 149.881 12.4967C149.752 12.5223 149.573 12.6248 149.522 12.7273C149.06 13.8547 148.009 13.6753 147.112 13.8803C146.984 13.9059 146.856 14.034 146.779 14.1621C146.446 14.7515 146.01 15.1102 145.293 15.1358C144.831 15.1358 144.344 15.3152 143.883 15.3408C143.524 15.3664 143.319 15.5202 143.088 15.7508C142.345 16.5451 142.319 16.5451 141.115 16.7244C140.756 16.7757 140.551 16.8782 140.346 17.2113C140.115 17.5956 139.859 18.0056 139.295 18.0056C138.987 18.0056 138.68 18.1081 138.346 18.1337C137.552 18.2106 136.911 18.4155 136.373 19.1586C135.886 19.8248 134.912 19.6967 134.169 19.6967C133.066 19.6967 132.938 21.0291 131.862 21.0803C130.811 21.1316 129.581 21.0547 129.042 22.3358C128.581 22.4383 128.145 22.5921 127.684 22.6433C127.325 22.6946 127.043 22.7458 126.864 23.0277C126.53 23.617 126.095 23.9757 125.377 24.0013C124.916 24.0013 124.429 24.1807 123.967 24.2063C123.608 24.2319 123.403 24.3857 123.173 24.6163C122.352 25.4618 122.327 25.4362 121.66 25.5387C121.02 25.6412 120.404 25.7437 119.764 25.8205C119.02 27.486 117.329 26.9223 116.098 27.4092C115.97 27.4604 115.893 27.6398 115.816 27.7935C115.56 28.2035 115.253 28.4853 114.714 28.5366C113.945 28.6391 113.176 28.844 112.408 28.9978C111.972 30.0739 110.972 30.0739 110.049 30.2277C109.921 30.2533 109.742 30.3558 109.691 30.4583C109.28 31.2782 108.588 31.4832 107.768 31.5344C107.281 31.5601 106.82 31.6626 106.358 31.765C106.23 31.7907 106.077 31.9188 106.025 32.0469C105.41 33.328 104.129 32.9437 103.129 33.1999C102.796 33.2768 102.565 33.3793 102.334 33.6099C101.489 34.4554 101.463 34.4298 100.848 34.5323C100.207 34.6348 99.5918 34.7117 98.951 34.8398C98.8229 34.8654 98.7716 35.096 98.6691 35.1985C98.3871 35.5572 98.1821 35.9928 97.5926 35.9928C97.1312 35.9928 96.6442 36.1978 96.1828 36.1722C95.2088 36.1209 95.0038 37.1458 94.3374 37.4021C93.4659 37.7352 92.4919 37.7864 91.5948 37.9914C91.4667 38.017 91.3898 38.222 91.3129 38.3757C91.0566 38.8113 90.6977 39.0163 90.1851 39.0676C89.7237 39.1188 89.3136 39.2982 88.8523 39.4263C88.4165 40.5537 87.3656 40.4256 86.4685 40.6049C86.3404 40.6306 86.2122 40.7587 86.1097 40.8868C85.8534 41.143 85.9559 41.348 86.366 41.5274C86.6223 41.5017 86.853 41.7323 87.1093 41.9373Z" fill="black"/>
<path d="M44.1253 112.631C41.7672 112.99 39.4091 113.374 37.051 113.682C36.4615 113.759 36.2821 114.169 36.0258 114.527C35.8207 114.809 35.6157 114.937 35.2312 114.963C34.7698 114.988 34.2828 115.091 33.8215 115.168C33.3088 115.245 33.2832 115.193 32.3349 116.116C31.9504 116.5 31.489 116.449 31.0533 116.551C30.5919 116.628 30.1306 116.68 29.8742 117.166C29.6436 117.602 29.2847 117.884 28.7721 117.884C27.9263 117.884 27.3624 118.268 26.8241 118.986C26.4909 119.421 25.6194 119.242 25.3375 119.934C25.1068 120.446 24.6198 120.446 24.1584 120.549C24.0303 120.574 23.9021 120.728 23.8252 120.856C23.492 121.471 23.0307 121.804 22.313 121.778C22.031 122.137 21.7235 122.522 21.4415 122.88C20.7238 122.855 20.3394 123.265 19.9293 123.803C19.2885 124.674 18.8784 125.929 17.8275 126.262C16.5716 126.672 16.3152 127.8 15.6232 128.594C14.8799 129.414 14.2904 130.362 13.6239 131.259C12.9575 132.156 12.3167 133.053 11.6503 133.949C11.0864 134.718 10.5226 135.487 9.95866 136.255C9.4204 136.998 9.77924 138.023 9.0103 138.766C8.34388 139.407 7.90815 140.278 7.34426 141.073C7.72873 142.405 6.44716 142.969 6.01143 143.917C5.75511 144.455 6.11395 145.121 5.60132 145.633C5.16559 146.069 4.83238 146.633 4.44791 147.145C4.70423 148.016 4.21723 148.606 3.7815 149.272C3.65334 149.477 3.85839 149.887 3.90965 150.194C4.01218 150.886 4.03781 150.886 3.47392 151.885C3.32013 152.167 3.24324 152.423 3.34576 152.757C3.55081 153.525 3.62771 154.294 2.96129 154.934C2.8075 155.088 2.83314 155.524 2.85877 155.806C2.96129 156.6 3.08945 157.369 3.21761 158.163C3.39703 159.342 3.32013 159.418 2.03856 159.623C0.782625 159.828 0.577574 159.7 0.398154 158.675C0.295629 158.035 0.244366 157.394 0.0905779 156.779C-0.114473 155.934 0.0136837 155.242 0.628837 154.627C0.551943 153.858 0.526311 153.064 0.372523 152.295C0.269998 151.757 0.449417 151.373 0.756994 151.04C1.01331 150.784 1.0902 150.527 1.03894 150.194C0.936413 149.733 0.756994 149.221 0.859519 148.785C0.962045 148.349 1.44904 148.016 1.5772 147.606C1.70535 147.196 1.29525 146.71 1.73099 146.274C1.96167 146.069 2.26925 145.71 2.21798 145.505C2.06419 144.813 2.26925 144.275 2.73061 143.789C3.37139 143.097 3.80713 142.302 3.73023 141.303C4.29412 140.534 4.85801 139.766 5.42191 138.997C5.88327 138.356 6.319 137.716 6.78037 137.05C6.37027 135.897 7.36989 135.359 7.83125 134.59C8.24136 133.924 8.75398 133.309 9.24098 132.668C10.7532 130.618 12.2142 128.517 13.7777 126.544C14.6236 125.468 15.0337 123.956 16.5972 123.572C17.6993 122.65 18.2632 121.292 19.2628 120.292C19.4423 120.113 20.0062 120.267 20.1343 120.087C20.5957 119.421 21.1083 118.909 21.9541 118.806C22.313 118.038 23.005 117.756 23.7483 117.499C24.1328 116.705 24.7992 116.398 25.6451 116.398C26.1833 116.398 26.5165 116.116 26.7472 115.68C27.0035 115.168 27.4649 115.168 27.9263 115.065C28.362 114.988 28.8234 115.014 29.2078 114.63C30.1049 113.733 30.1306 113.759 30.6944 113.682C31.4378 113.554 31.4378 113.554 32.2067 112.785C32.3092 112.682 32.3861 112.452 32.5143 112.452C33.7702 112.247 35.0261 112.016 36.2821 111.888C36.9741 111.811 37.4611 111.555 37.7943 110.94C37.8712 110.812 37.9994 110.684 38.1275 110.633C38.4351 110.556 38.7427 110.53 39.0759 110.479C44.4329 109.659 49.7642 108.839 55.1212 108.045C55.8388 107.942 56.2233 107.609 56.6078 107.071C57.146 106.277 57.7355 105.534 58.2994 104.765C59.7604 104.586 60.1193 103.202 60.9395 102.331C61.9135 102.433 62.3236 101.69 62.708 101.024C63.1438 100.307 63.8615 100.102 64.4766 99.6916C65.0918 99.2816 65.425 98.4361 65.9376 97.8211C66.3221 97.3599 66.4502 96.5912 67.2192 96.5656C67.8087 96.54 67.9881 96.1044 68.2701 95.7457C68.6545 95.2588 68.9877 94.6695 69.4747 94.3108C69.8079 94.0545 70.4487 94.2339 70.6281 93.6958C70.9357 92.8246 72.0379 93.1577 72.448 92.4147C72.7299 91.851 73.1656 91.3641 73.5758 90.8773C73.6526 90.7748 73.8577 90.6979 73.9859 90.7236C74.9598 90.8261 74.9342 89.4937 75.8057 89.4681C76.1645 89.4681 76.3696 89.3143 76.6003 89.0581C77.2667 88.2638 77.2923 88.2894 78.1125 88.1357C78.8302 88.0076 78.8814 88.0588 79.5991 87.1876C80.0349 86.6752 80.8551 87.0083 81.137 86.2908C81.3164 85.8552 81.7009 85.599 82.2135 85.5221C82.4698 85.4965 82.7262 85.2147 82.8799 84.984C83.1619 84.5485 83.5207 84.3179 84.0333 84.3179C84.9048 84.3179 85.52 83.9335 85.9044 83.1648C86.699 83.0111 87.3142 82.6011 87.6986 81.8581C88.5957 81.8581 89.0827 81.2431 89.4928 80.5769C90.1849 80.6025 90.6975 80.2951 91.0051 79.6545C91.1589 79.347 91.4408 79.2702 91.7997 79.2445C92.5942 79.2189 93.3119 79.0395 93.7733 78.2196C94.004 77.7584 94.5678 77.8096 95.0036 77.9121C95.1574 77.9378 95.3881 78.1684 95.3624 78.1684C94.7473 79.0652 94.1065 79.962 93.4401 80.8588C93.3632 80.9613 93.1581 80.9869 93.0043 80.9869C92.2098 80.9869 92.1329 81.8068 91.6459 82.1399C91.287 82.3705 90.7231 82.1399 90.4156 82.678C90.2105 83.088 89.9286 83.4723 89.3647 83.4723C88.6214 83.4979 88.5957 84.446 88.0062 84.6253C87.5448 84.7534 87.0835 84.8047 86.8528 85.2915C86.6221 85.7527 86.212 85.9577 85.725 85.9577C84.8536 85.9577 84.3409 86.4189 83.8027 87.0851C83.4695 87.4951 82.6236 87.367 82.3417 88.0332C82.111 88.5712 81.5215 88.4175 81.1626 88.6481C80.7782 88.8787 80.5475 89.3399 80.2655 89.7243C79.2915 89.5962 78.9583 90.4161 78.4457 90.9798C77.3179 90.7748 77.1898 92.2609 76.1645 92.3122C75.3956 92.3634 75.3187 93.6446 74.3447 93.5421C74.2165 93.5421 74.0627 93.6702 73.9602 93.7727C73.2169 94.5158 73.0119 95.8481 71.6278 95.8994C71.5252 95.8994 71.3971 96.1044 71.3202 96.2325C70.8332 96.8474 70.3462 97.488 69.8592 98.103C68.8852 98.0261 68.552 98.846 68.0906 99.461C67.6036 100.102 67.1423 100.742 66.6809 101.383C64.7842 101.844 64.3997 103.817 63.1694 104.919C61.5803 104.996 61.5034 106.661 60.555 107.43C60.4525 107.507 60.3243 107.737 60.35 107.788C60.555 108.07 60.8626 108.198 61.1702 108.122C62.1185 107.917 63.0412 107.763 63.7846 108.634C63.8358 108.711 64.0921 108.634 64.2203 108.634C64.5279 108.583 64.8611 108.531 65.1687 108.48C65.3224 108.455 65.5275 108.352 65.63 108.429C66.2964 108.788 66.8603 109.48 67.7574 109.07C68.7058 109.531 69.244 110.658 70.5769 110.607C71.5765 110.556 72.166 111.529 72.935 112.042C73.9859 112.759 75.0367 113.502 76.0107 114.297C76.7028 114.886 77.7793 115.117 78.0356 116.167C78.2919 117.243 79.3684 117.397 80.0349 118.063C80.2655 118.294 80.3168 118.55 80.4193 118.857C80.7013 119.703 81.8547 120.036 81.7265 121.164C81.6753 121.778 81.8034 122.393 81.8547 123.008C80.8294 123.7 81.6753 125.212 80.5987 125.878C79.5735 127.287 78.5226 128.697 77.4973 130.106C77.036 130.746 76.5234 131.361 76.062 131.976C74.6779 132.028 74.4985 133.36 73.7295 134.103C73.627 134.206 73.4732 134.334 73.3451 134.308C72.3711 134.206 72.2942 135.41 71.5252 135.564C71.192 135.615 70.8845 135.666 70.705 135.948C70.3718 136.537 69.9361 136.947 69.2184 136.896C68.9365 137.255 68.6289 137.639 68.3469 137.998C67.6549 137.972 67.1679 138.28 66.8347 138.92C66.5784 139.407 65.8094 139.151 65.6557 139.458C65.1174 140.458 64.2459 140.586 63.2976 140.714C63.0412 140.739 62.7593 141.021 62.6055 141.252C62.0929 142.046 60.8369 141.918 60.5294 142.917C59.7604 143.071 58.9915 143.276 58.2225 143.353C57.6843 143.404 57.4023 143.712 57.1204 144.096C57.0435 144.224 56.941 144.455 56.8385 144.455C53.4039 145.018 49.9436 145.557 46.4834 146.095C46.3552 146.12 46.1758 145.992 46.0989 145.89C45.4581 145.147 44.6892 145.403 43.9202 145.531C43.7664 145.557 43.5358 145.659 43.4589 145.582C42.8437 145.095 42.2029 144.634 41.3571 144.89C40.2037 144.045 39.0503 143.199 37.8969 142.354C37.6149 142.149 37.538 141.918 37.5124 141.559C37.2817 139.817 37.0254 138.1 36.7178 136.384C36.5897 135.666 36.8716 135.23 37.2048 134.667C37.4099 134.334 37.2561 133.77 37.3842 133.36C37.538 132.95 37.9994 132.668 38.025 132.156C38.025 131.848 37.9738 131.515 38.0763 131.259C38.5376 130.311 39.7423 129.722 39.3835 128.389C39.9217 127.621 40.4856 126.826 41.0495 126.083C43.4845 122.752 45.9707 119.421 48.3801 116.09C48.944 115.322 49.4822 114.604 50.4562 114.425C51.0201 113.656 51.584 112.887 52.1479 112.119C52.1992 112.042 52.2248 111.862 52.1735 111.786C52.0966 111.657 51.9172 111.504 51.7891 111.504C49.1747 111.862 46.6372 112.247 44.1253 112.631ZM50.4306 142.61C51.9941 142.379 53.5833 142.149 55.1468 141.867C55.4031 141.816 55.6338 141.508 55.7876 141.252C56.0695 140.765 56.5052 140.739 56.9666 140.637C57.4023 140.56 57.8637 140.586 58.2482 140.201C59.1965 139.279 59.2222 139.305 59.7348 139.253C60.1962 139.202 60.6832 139.074 61.1445 139.048C61.5034 139.023 61.7597 138.946 61.9135 138.613C62.221 137.972 62.7849 137.844 63.4001 137.665C63.7846 137.562 64.0152 136.998 64.2972 136.64C65.0149 136.665 65.3737 136.153 65.7838 135.692C66.0401 135.384 66.6553 135.41 66.9629 135.128C67.3986 134.692 67.6805 134.231 68.3982 134.052C69.0903 133.898 69.2697 132.719 70.2437 132.848C71.2177 132.156 71.3971 130.542 72.935 130.49C73.7295 129.568 74.1653 128.287 75.575 128.03C76.1389 127.262 76.7284 126.493 77.2667 125.724C77.6255 125.212 78.1381 124.802 78.215 124.136C78.2407 123.828 78.1638 123.521 78.2663 123.239C78.3688 122.957 78.7789 122.727 78.7789 122.47C78.7789 121.702 78.6764 120.907 78.5482 120.139C78.497 119.857 78.3944 119.524 78.1894 119.319C77.728 118.883 77.1641 118.55 76.6771 118.166C76.1645 117.781 75.6775 117.397 75.1905 117.013C75.2162 116.295 74.8061 115.885 74.2422 115.527C73.7039 115.193 73.2169 114.783 72.7043 114.399C72.448 114.22 72.1917 114.015 71.9353 113.835C71.2946 113.4 70.6281 112.99 69.9874 112.554C68.9877 113.015 68.3982 111.529 67.3986 111.991C66.6809 111.837 66.1939 110.966 65.2712 111.324C65.1686 111.376 65.0149 111.222 64.8611 111.145C63.7589 110.607 63.7589 110.581 63.1438 110.709C62.0673 110.914 60.9651 111.196 60.0936 110.197C59.1453 110.351 58.2225 110.479 57.2742 110.658C57.1717 110.684 57.0435 110.889 56.9922 111.043C56.6078 111.991 55.3262 111.734 54.8905 112.708C54.4804 113.554 53.7883 114.271 53.2244 115.04C52.2761 116.321 51.3021 117.576 50.405 118.909C49.9949 119.524 49.3797 119.498 48.8671 119.806C48.5339 120.011 48.5851 120.292 48.6364 120.651C48.7646 121.369 48.7389 121.471 48.0469 121.676C46.8678 122.06 46.2527 122.803 46.2783 124.059C46.2783 124.366 46.2014 124.853 45.9451 124.853C44.7404 124.853 44.4329 125.878 43.8946 126.596C43.7408 126.775 43.9971 127.262 43.869 127.492C43.4845 128.184 43.0231 128.799 42.5874 129.465C42.2286 129.978 41.8697 130.49 41.5109 131.028C41.8697 131.951 41.1777 132.489 40.7419 133.104C40.5625 133.36 40.3575 133.616 40.1781 133.872C40.1012 134.001 40.0499 134.154 40.0755 134.308C40.2293 135.231 40.5113 136.179 39.6142 136.922C39.8192 138.485 40.0243 140.048 40.2293 141.611C40.255 141.739 40.3831 141.892 40.5113 141.944C41.1521 142.328 41.6134 143.071 42.5618 142.866C43.3307 142.712 44.0997 142.712 44.8942 142.636C45.817 143.712 46.9447 143.097 47.9956 142.969C48.8415 142.866 49.636 142.712 50.4306 142.61Z" fill="black"/>
</svg>
