<svg width="17" height="15" viewBox="0 0 17 15" fill="none" xmlns="http://www.w3.org/2000/svg">
<path d="M11.4981 2.58948C10.8696 2.58938 10.2662 2.836 9.81774 3.2763C9.36925 3.71659 9.11153 4.31535 9.10005 4.94373L9.07689 6.24614C9.07554 6.31606 9.05941 6.38491 9.02958 6.44817C8.99974 6.51143 8.95687 6.56767 8.90377 6.61319C8.85067 6.65871 8.78855 6.6925 8.72148 6.71232C8.6544 6.73215 8.5839 6.73757 8.51459 6.72823L7.22376 6.55292C5.52526 6.32139 3.89787 5.53912 2.33664 4.23837C1.84214 6.97548 2.80799 8.87162 5.13412 10.3344L6.57876 11.2424C6.6474 11.2855 6.70442 11.3448 6.74484 11.4151C6.78526 11.4854 6.80785 11.5645 6.81062 11.6455C6.8134 11.7265 6.79628 11.807 6.76076 11.8799C6.72524 11.9528 6.6724 12.0158 6.60687 12.0635L5.29041 13.0253C6.07351 13.074 6.81691 13.0393 7.4338 12.9169C11.3352 12.138 13.9293 9.20239 13.9293 4.35992C13.9293 3.96465 13.0924 2.58948 11.4981 2.58948ZM7.4462 4.91313C7.46063 4.11602 7.7099 3.34088 8.16278 2.68476C8.61566 2.02864 9.25204 1.5207 9.99223 1.22453C10.7324 0.928369 11.5435 0.857142 12.324 1.01977C13.1045 1.1824 13.8196 1.57166 14.38 2.13881C14.9679 2.13467 15.4682 2.28352 16.587 1.60544C16.31 2.9616 16.1735 3.55037 15.5831 4.35992C15.5831 10.6793 11.6991 13.7521 7.75795 14.5385C5.05556 15.0777 1.12603 14.192 -0.000244141 13.0162C0.573641 12.9715 2.90556 12.7209 4.25345 11.7344C3.11312 10.9828 -1.42586 8.31179 1.55685 1.13079C2.95683 2.76562 4.37666 3.87865 5.81551 4.46908C6.77308 4.86187 7.00793 4.8536 7.44703 4.91396L7.4462 4.91313Z" fill="black"/>
</svg>
