<svg width="19" height="14" viewBox="0 0 19 14" fill="none" xmlns="http://www.w3.org/2000/svg">
<path d="M14.7037 1.55562C12.7407 1.55562 11.2593 2.85192 10.6667 4.88895C9.74074 3.44451 9 1.81488 8.59259 0.407471H6.51852V5.85191C6.51852 6.92599 5.62963 7.81488 4.55555 7.81488C3.48148 7.81488 2.59259 6.92599 2.59259 5.85191V0.444508H0.59259V5.88895C0.59259 8.14821 2.40741 9.96303 4.62963 9.96303C6.85185 9.96303 8.66666 8.14821 8.66666 5.88895V4.96303C9.07407 5.77784 9.59259 6.66673 10.1481 7.44451L8.85185 13.4815H10.963L11.8519 9.07414C12.6667 9.59266 13.5926 9.88895 14.7037 9.88895C16.963 9.88895 18.8148 8.0371 18.8148 5.66673C18.8148 3.40747 16.963 1.55562 14.7037 1.55562ZM14.7037 7.81488C13.8889 7.81488 13.037 7.44451 12.3704 6.88895L12.5926 6.07414V6.0371C12.7407 5.14821 13.2222 3.66673 14.7407 3.66673C15.8889 3.66673 16.8148 4.59266 16.8148 5.7408C16.7778 6.88895 15.7778 7.81488 14.7037 7.81488Z" fill="white"/>
</svg>
